G04 #@! TF.GenerationSoftware,KiCad,Pcbnew,8.0.4*
G04 #@! TF.CreationDate,2024-09-02T12:45:46+02:00*
G04 #@! TF.ProjectId,AD4030-Voltage,41443430-3330-42d5-966f-6c746167652e,rev?*
G04 #@! TF.SameCoordinates,Original*
G04 #@! TF.FileFunction,Soldermask,Bot*
G04 #@! TF.FilePolarity,Negative*
%FSLAX46Y46*%
G04 Gerber Fmt 4.6, Leading zero omitted, Abs format (unit mm)*
G04 Created by KiCad (PCBNEW 8.0.4) date 2024-09-02 12:45:46*
%MOMM*%
%LPD*%
G01*
G04 APERTURE LIST*
G04 Aperture macros list*
%AMRoundRect*
0 Rectangle with rounded corners*
0 $1 Rounding radius*
0 $2 $3 $4 $5 $6 $7 $8 $9 X,Y pos of 4 corners*
0 Add a 4 corners polygon primitive as box body*
4,1,4,$2,$3,$4,$5,$6,$7,$8,$9,$2,$3,0*
0 Add four circle primitives for the rounded corners*
1,1,$1+$1,$2,$3*
1,1,$1+$1,$4,$5*
1,1,$1+$1,$6,$7*
1,1,$1+$1,$8,$9*
0 Add four rect primitives between the rounded corners*
20,1,$1+$1,$2,$3,$4,$5,0*
20,1,$1+$1,$4,$5,$6,$7,0*
20,1,$1+$1,$6,$7,$8,$9,0*
20,1,$1+$1,$8,$9,$2,$3,0*%
%AMFreePoly0*
4,1,29,0.178017,0.779942,0.347107,0.720775,0.498792,0.625465,0.625465,0.498792,0.720775,0.347107,0.779942,0.178017,0.800000,0.000000,0.779942,-0.178017,0.720775,-0.347107,0.625465,-0.498792,0.498792,-0.625465,0.347107,-0.720775,0.178017,-0.779942,0.000000,-0.800000,-0.178017,-0.779942,-0.347107,-0.720775,-0.498792,-0.625465,-0.625465,-0.498792,-0.720775,-0.347107,-0.779942,-0.178017,
-0.800000,0.000000,-0.779942,0.178017,-0.720775,0.347107,-0.625465,0.498792,-0.498792,0.625465,-0.347107,0.720775,-0.178017,0.779942,0.000000,0.800000,0.178017,0.779942,0.178017,0.779942,$1*%
G04 Aperture macros list end*
%ADD10C,1.440000*%
%ADD11R,1.500000X3.000000*%
%ADD12O,1.500000X3.000000*%
%ADD13R,1.000000X1.000000*%
%ADD14C,1.000000*%
%ADD15C,3.200000*%
%ADD16R,2.600000X2.600000*%
%ADD17C,2.600000*%
%ADD18R,1.500000X2.500000*%
%ADD19O,1.500000X2.500000*%
%ADD20R,1.700000X1.700000*%
%ADD21O,1.700000X1.700000*%
%ADD22FreePoly0,270.000000*%
%ADD23R,3.000000X3.000000*%
%ADD24C,3.000000*%
%ADD25RoundRect,0.237500X0.237500X-0.300000X0.237500X0.300000X-0.237500X0.300000X-0.237500X-0.300000X0*%
%ADD26RoundRect,0.160000X-0.197500X-0.160000X0.197500X-0.160000X0.197500X0.160000X-0.197500X0.160000X0*%
%ADD27RoundRect,0.237500X0.250000X0.237500X-0.250000X0.237500X-0.250000X-0.237500X0.250000X-0.237500X0*%
%ADD28RoundRect,0.250000X0.412500X0.650000X-0.412500X0.650000X-0.412500X-0.650000X0.412500X-0.650000X0*%
%ADD29RoundRect,0.155000X0.212500X0.155000X-0.212500X0.155000X-0.212500X-0.155000X0.212500X-0.155000X0*%
%ADD30RoundRect,0.237500X-0.237500X0.300000X-0.237500X-0.300000X0.237500X-0.300000X0.237500X0.300000X0*%
%ADD31RoundRect,0.250000X-0.650000X0.412500X-0.650000X-0.412500X0.650000X-0.412500X0.650000X0.412500X0*%
%ADD32R,2.510000X1.000000*%
%ADD33RoundRect,0.250000X1.100000X-0.412500X1.100000X0.412500X-1.100000X0.412500X-1.100000X-0.412500X0*%
%ADD34RoundRect,0.250000X0.475000X-0.337500X0.475000X0.337500X-0.475000X0.337500X-0.475000X-0.337500X0*%
%ADD35RoundRect,0.237500X-0.250000X-0.237500X0.250000X-0.237500X0.250000X0.237500X-0.250000X0.237500X0*%
%ADD36RoundRect,0.237500X0.300000X0.237500X-0.300000X0.237500X-0.300000X-0.237500X0.300000X-0.237500X0*%
%ADD37RoundRect,0.250000X-0.475000X0.337500X-0.475000X-0.337500X0.475000X-0.337500X0.475000X0.337500X0*%
G04 APERTURE END LIST*
D10*
G04 #@! TO.C,RV201*
X97536000Y-102489000D03*
X100076000Y-105029000D03*
X97536000Y-107569000D03*
G04 #@! TD*
D11*
G04 #@! TO.C,U503*
X163123500Y-66400000D03*
D12*
X160583500Y-66400000D03*
X158043500Y-66400000D03*
X152963500Y-66400000D03*
X150423500Y-66400000D03*
X147883500Y-66400000D03*
X145343500Y-66400000D03*
G04 #@! TD*
D13*
G04 #@! TO.C,K201*
X120142000Y-114935000D03*
D14*
X120142000Y-113415000D03*
X120142000Y-111895000D03*
X120142000Y-110375000D03*
G04 #@! TD*
D15*
G04 #@! TO.C,H102*
X110000000Y-126500000D03*
G04 #@! TD*
D16*
G04 #@! TO.C,J501*
X186904000Y-65227000D03*
D17*
X181904000Y-65227000D03*
G04 #@! TD*
D18*
G04 #@! TO.C,U502*
X174752000Y-62682500D03*
D19*
X172212000Y-62682500D03*
X169672000Y-62682500D03*
G04 #@! TD*
D10*
G04 #@! TO.C,RV202*
X108204000Y-102489000D03*
X110744000Y-105029000D03*
X108204000Y-107569000D03*
G04 #@! TD*
D15*
G04 #@! TO.C,H101*
X110000000Y-63500000D03*
G04 #@! TD*
D18*
G04 #@! TO.C,U507*
X139065000Y-62611000D03*
D19*
X136525000Y-62611000D03*
X133985000Y-62611000D03*
G04 #@! TD*
D20*
G04 #@! TO.C,J403*
X183007000Y-89408000D03*
D21*
X185547000Y-89408000D03*
X183007000Y-91948000D03*
X185547000Y-91948000D03*
X183007000Y-94488000D03*
X185547000Y-94488000D03*
X183007000Y-97028000D03*
X185547000Y-97028000D03*
X183007000Y-99568000D03*
X185547000Y-99568000D03*
X183007000Y-102108000D03*
X185547000Y-102108000D03*
G04 #@! TD*
D22*
G04 #@! TO.C,J201*
X92373000Y-105029000D03*
X81873000Y-105029000D03*
D23*
X88773000Y-100269000D03*
D24*
X88773000Y-109789000D03*
G04 #@! TD*
D20*
G04 #@! TO.C,J404*
X183007000Y-112408000D03*
D21*
X185547000Y-112408000D03*
X183007000Y-114948000D03*
X185547000Y-114948000D03*
X183007000Y-117488000D03*
X185547000Y-117488000D03*
X183007000Y-120028000D03*
X185547000Y-120028000D03*
X183007000Y-122568000D03*
X185547000Y-122568000D03*
X183007000Y-125108000D03*
X185547000Y-125108000D03*
G04 #@! TD*
D25*
G04 #@! TO.C,C229*
X135509000Y-103097500D03*
X135509000Y-101372500D03*
G04 #@! TD*
G04 #@! TO.C,C208*
X116840000Y-99922500D03*
X116840000Y-98197500D03*
G04 #@! TD*
D26*
G04 #@! TO.C,R304*
X146722500Y-104521000D03*
X147917500Y-104521000D03*
G04 #@! TD*
D27*
G04 #@! TO.C,R213*
X111693500Y-102489000D03*
X109868500Y-102489000D03*
G04 #@! TD*
D28*
G04 #@! TO.C,C504*
X124498500Y-70485000D03*
X121373500Y-70485000D03*
G04 #@! TD*
D29*
G04 #@! TO.C,C309*
X152332500Y-100711000D03*
X151197500Y-100711000D03*
G04 #@! TD*
G04 #@! TO.C,C305*
X156396500Y-101600000D03*
X155261500Y-101600000D03*
G04 #@! TD*
D30*
G04 #@! TO.C,C224*
X116840000Y-109754500D03*
X116840000Y-111479500D03*
G04 #@! TD*
D25*
G04 #@! TO.C,C402*
X160020000Y-116178500D03*
X160020000Y-114453500D03*
G04 #@! TD*
D30*
G04 #@! TO.C,C219*
X97917000Y-97689500D03*
X97917000Y-99414500D03*
G04 #@! TD*
D31*
G04 #@! TO.C,C523*
X131064000Y-73589000D03*
X131064000Y-76714000D03*
G04 #@! TD*
D30*
G04 #@! TO.C,C216*
X99695000Y-97689500D03*
X99695000Y-99414500D03*
G04 #@! TD*
D29*
G04 #@! TO.C,C306*
X152332500Y-101727000D03*
X151197500Y-101727000D03*
G04 #@! TD*
D30*
G04 #@! TO.C,C408*
X173355000Y-93879500D03*
X173355000Y-95604500D03*
G04 #@! TD*
G04 #@! TO.C,C215*
X139827000Y-101372500D03*
X139827000Y-103097500D03*
G04 #@! TD*
D32*
G04 #@! TO.C,J402*
X176272000Y-108839000D03*
X179582000Y-111379000D03*
X176272000Y-113919000D03*
X179582000Y-116459000D03*
X176272000Y-118999000D03*
X179582000Y-121539000D03*
X176272000Y-124079000D03*
G04 #@! TD*
D29*
G04 #@! TO.C,C302*
X152459500Y-109601000D03*
X151324500Y-109601000D03*
G04 #@! TD*
D33*
G04 #@! TO.C,C502*
X177038000Y-68745500D03*
X177038000Y-65620500D03*
G04 #@! TD*
D31*
G04 #@! TO.C,C501*
X127508000Y-73621500D03*
X127508000Y-76746500D03*
G04 #@! TD*
G04 #@! TO.C,C522*
X142494000Y-73589000D03*
X142494000Y-76714000D03*
G04 #@! TD*
D30*
G04 #@! TO.C,C217*
X97917000Y-110643500D03*
X97917000Y-112368500D03*
G04 #@! TD*
D31*
G04 #@! TO.C,C514*
X139065000Y-64985500D03*
X139065000Y-68110500D03*
G04 #@! TD*
D33*
G04 #@! TO.C,C506*
X172212000Y-68745500D03*
X172212000Y-65620500D03*
G04 #@! TD*
D30*
G04 #@! TO.C,C312*
X150114000Y-91466500D03*
X150114000Y-93191500D03*
G04 #@! TD*
D29*
G04 #@! TO.C,C304*
X152459500Y-108585000D03*
X151324500Y-108585000D03*
G04 #@! TD*
D30*
G04 #@! TO.C,C404*
X158496000Y-93879500D03*
X158496000Y-95604500D03*
G04 #@! TD*
G04 #@! TO.C,C407*
X171831000Y-93879500D03*
X171831000Y-95604500D03*
G04 #@! TD*
D34*
G04 #@! TO.C,C315*
X133477000Y-89683500D03*
X133477000Y-87608500D03*
G04 #@! TD*
D30*
G04 #@! TO.C,C311*
X151511000Y-97308500D03*
X151511000Y-99033500D03*
G04 #@! TD*
D25*
G04 #@! TO.C,C401*
X158496000Y-116178500D03*
X158496000Y-114453500D03*
G04 #@! TD*
D30*
G04 #@! TO.C,C403*
X160020000Y-93879500D03*
X160020000Y-95604500D03*
G04 #@! TD*
D32*
G04 #@! TO.C,J401*
X176272000Y-86995000D03*
X179582000Y-89535000D03*
X176272000Y-92075000D03*
X179582000Y-94615000D03*
X176272000Y-97155000D03*
X179582000Y-99695000D03*
X176272000Y-102235000D03*
X179582000Y-104775000D03*
G04 #@! TD*
D25*
G04 #@! TO.C,C405*
X173736000Y-116178500D03*
X173736000Y-114453500D03*
G04 #@! TD*
G04 #@! TO.C,C221*
X113284000Y-99922500D03*
X113284000Y-98197500D03*
G04 #@! TD*
D27*
G04 #@! TO.C,R211*
X100943500Y-102474000D03*
X99118500Y-102474000D03*
G04 #@! TD*
D34*
G04 #@! TO.C,C318*
X138430000Y-89683500D03*
X138430000Y-87608500D03*
G04 #@! TD*
D35*
G04 #@! TO.C,R212*
X99118500Y-107554000D03*
X100943500Y-107554000D03*
G04 #@! TD*
D30*
G04 #@! TO.C,C220*
X99695000Y-110643500D03*
X99695000Y-112368500D03*
G04 #@! TD*
D25*
G04 #@! TO.C,C406*
X172212000Y-116178500D03*
X172212000Y-114453500D03*
G04 #@! TD*
D36*
G04 #@! TO.C,C313*
X150087500Y-89281000D03*
X148362500Y-89281000D03*
G04 #@! TD*
G04 #@! TO.C,C225*
X109021500Y-105029000D03*
X107296500Y-105029000D03*
G04 #@! TD*
D25*
G04 #@! TO.C,C317*
X156337000Y-99033500D03*
X156337000Y-97308500D03*
G04 #@! TD*
D35*
G04 #@! TO.C,R214*
X109868500Y-107569000D03*
X111693500Y-107569000D03*
G04 #@! TD*
D30*
G04 #@! TO.C,C211*
X113284000Y-109754500D03*
X113284000Y-111479500D03*
G04 #@! TD*
D31*
G04 #@! TO.C,C516*
X133985000Y-64985500D03*
X133985000Y-68110500D03*
G04 #@! TD*
D37*
G04 #@! TO.C,C515*
X170053000Y-78337500D03*
X170053000Y-80412500D03*
G04 #@! TD*
D29*
G04 #@! TO.C,C303*
X156396500Y-100584000D03*
X155261500Y-100584000D03*
G04 #@! TD*
M02*
