G04 #@! TF.GenerationSoftware,KiCad,Pcbnew,8.0.4*
G04 #@! TF.CreationDate,2024-09-02T12:19:07+02:00*
G04 #@! TF.ProjectId,AD4030-Voltage,41443430-3330-42d5-966f-6c746167652e,rev?*
G04 #@! TF.SameCoordinates,Original*
G04 #@! TF.FileFunction,Copper,L2,Inr*
G04 #@! TF.FilePolarity,Positive*
%FSLAX46Y46*%
G04 Gerber Fmt 4.6, Leading zero omitted, Abs format (unit mm)*
G04 Created by KiCad (PCBNEW 8.0.4) date 2024-09-02 12:19:07*
%MOMM*%
%LPD*%
G01*
G04 APERTURE LIST*
G04 #@! TA.AperFunction,NonConductor*
%ADD10C,0.200000*%
G04 #@! TD*
%ADD11C,0.300000*%
G04 #@! TA.AperFunction,NonConductor*
%ADD12C,0.300000*%
G04 #@! TD*
G04 #@! TA.AperFunction,ComponentPad*
%ADD13C,1.440000*%
G04 #@! TD*
G04 #@! TA.AperFunction,ComponentPad*
%ADD14R,1.500000X3.000000*%
G04 #@! TD*
G04 #@! TA.AperFunction,ComponentPad*
%ADD15O,1.500000X3.000000*%
G04 #@! TD*
G04 #@! TA.AperFunction,HeatsinkPad*
%ADD16C,0.500000*%
G04 #@! TD*
G04 #@! TA.AperFunction,ComponentPad*
%ADD17R,1.000000X1.000000*%
G04 #@! TD*
G04 #@! TA.AperFunction,ComponentPad*
%ADD18C,1.000000*%
G04 #@! TD*
G04 #@! TA.AperFunction,ComponentPad*
%ADD19R,2.600000X2.600000*%
G04 #@! TD*
G04 #@! TA.AperFunction,ComponentPad*
%ADD20C,2.600000*%
G04 #@! TD*
G04 #@! TA.AperFunction,ComponentPad*
%ADD21R,1.500000X2.500000*%
G04 #@! TD*
G04 #@! TA.AperFunction,ComponentPad*
%ADD22O,1.500000X2.500000*%
G04 #@! TD*
G04 #@! TA.AperFunction,ComponentPad*
%ADD23C,0.500000*%
G04 #@! TD*
G04 #@! TA.AperFunction,HeatsinkPad*
%ADD24C,0.600000*%
G04 #@! TD*
G04 #@! TA.AperFunction,ComponentPad*
%ADD25R,1.700000X1.700000*%
G04 #@! TD*
G04 #@! TA.AperFunction,ComponentPad*
%ADD26O,1.700000X1.700000*%
G04 #@! TD*
G04 #@! TA.AperFunction,ComponentPad*
%ADD27R,3.000000X3.000000*%
G04 #@! TD*
G04 #@! TA.AperFunction,ComponentPad*
%ADD28C,3.000000*%
G04 #@! TD*
G04 #@! TA.AperFunction,ViaPad*
%ADD29C,0.500000*%
G04 #@! TD*
G04 APERTURE END LIST*
D10*
X83947000Y-61087000D02*
X83947000Y-63500000D01*
X91567000Y-63500000D02*
X81407000Y-63500000D01*
X91567000Y-61087000D02*
X81407000Y-61087000D01*
X86487000Y-61087000D02*
X86487000Y-63500000D01*
X91567000Y-61087000D02*
X91567000Y-63500000D01*
X89027000Y-63500000D02*
X89027000Y-61087000D01*
X81407000Y-63500000D02*
X81407000Y-61087000D01*
D11*
D12*
X84811082Y-61664285D02*
X84882510Y-61592857D01*
X84882510Y-61592857D02*
X85025368Y-61521428D01*
X85025368Y-61521428D02*
X85382510Y-61521428D01*
X85382510Y-61521428D02*
X85525368Y-61592857D01*
X85525368Y-61592857D02*
X85596796Y-61664285D01*
X85596796Y-61664285D02*
X85668225Y-61807142D01*
X85668225Y-61807142D02*
X85668225Y-61950000D01*
X85668225Y-61950000D02*
X85596796Y-62164285D01*
X85596796Y-62164285D02*
X84739653Y-63021428D01*
X84739653Y-63021428D02*
X85668225Y-63021428D01*
D13*
G04 #@! TO.N,Net-(R211-Pad2)*
G04 #@! TO.C,RV201*
X97536000Y-102489000D03*
G04 #@! TO.N,GND*
X100076000Y-105029000D03*
G04 #@! TO.N,Net-(R212-Pad1)*
X97536000Y-107569000D03*
G04 #@! TD*
D14*
G04 #@! TO.N,GNDS*
G04 #@! TO.C,U503*
X163123500Y-66400000D03*
D15*
G04 #@! TO.N,Net-(U503-+VIN)*
X160583500Y-66400000D03*
G04 #@! TO.N,unconnected-(U503-ON{slash}~{OFF}-Pad3)*
X158043500Y-66400000D03*
G04 #@! TO.N,unconnected-(U503-NC-Pad5)*
X152963500Y-66400000D03*
G04 #@! TO.N,+9V*
X150423500Y-66400000D03*
G04 #@! TO.N,GND*
X147883500Y-66400000D03*
G04 #@! TO.N,unconnected-(U503-NC-Pad8)*
X145343500Y-66400000D03*
G04 #@! TD*
D16*
G04 #@! TO.N,GND*
G04 #@! TO.C,RN206*
X133365000Y-107654000D03*
X132065000Y-107654000D03*
X133365000Y-108754000D03*
X132065000Y-108754000D03*
G04 #@! TD*
G04 #@! TO.N,GND*
G04 #@! TO.C,RN201*
X105044000Y-104479000D03*
X103744000Y-104479000D03*
X105044000Y-105579000D03*
X103744000Y-105579000D03*
G04 #@! TD*
D17*
G04 #@! TO.N,+5V*
G04 #@! TO.C,K201*
X120142000Y-114935000D03*
D18*
G04 #@! TO.N,Net-(Q201-C)*
X120142000Y-113415000D03*
G04 #@! TO.N,Net-(U202--)*
X120142000Y-111895000D03*
G04 #@! TO.N,Net-(C227-Pad1)*
X120142000Y-110375000D03*
G04 #@! TD*
D19*
G04 #@! TO.N,Net-(J501-Pin_1)*
G04 #@! TO.C,J501*
X186904000Y-65227000D03*
D20*
G04 #@! TO.N,GNDS*
X181904000Y-65227000D03*
G04 #@! TD*
D21*
G04 #@! TO.N,Net-(U502-Vin)*
G04 #@! TO.C,U502*
X174752000Y-62682500D03*
D22*
G04 #@! TO.N,GNDS*
X172212000Y-62682500D03*
G04 #@! TO.N,Net-(U502-Vout)*
X169672000Y-62682500D03*
G04 #@! TD*
D13*
G04 #@! TO.N,Net-(R213-Pad2)*
G04 #@! TO.C,RV202*
X108204000Y-102489000D03*
G04 #@! TO.N,Net-(C225-Pad1)*
X110744000Y-105029000D03*
G04 #@! TO.N,Net-(R214-Pad1)*
X108204000Y-107569000D03*
G04 #@! TD*
D16*
G04 #@! TO.N,GND*
G04 #@! TO.C,RN203*
X124729000Y-101304000D03*
X123429000Y-101304000D03*
X124729000Y-102404000D03*
X123429000Y-102404000D03*
G04 #@! TD*
D23*
G04 #@! TO.N,GND*
G04 #@! TO.C,U501*
X123962000Y-72619000D03*
X124762000Y-73019000D03*
X123162000Y-73019000D03*
X123962000Y-73419000D03*
G04 #@! TD*
D21*
G04 #@! TO.N,+9V*
G04 #@! TO.C,U507*
X139065000Y-62611000D03*
D22*
G04 #@! TO.N,GND*
X136525000Y-62611000D03*
G04 #@! TO.N,+5V*
X133985000Y-62611000D03*
G04 #@! TD*
D24*
G04 #@! TO.N,-5VA*
G04 #@! TO.C,U201*
X136718000Y-101285000D03*
X136718000Y-102235000D03*
X136718000Y-103185000D03*
X137668000Y-101285000D03*
X137668000Y-102235000D03*
X137668000Y-103185000D03*
X138618000Y-101285000D03*
X138618000Y-102235000D03*
X138618000Y-103185000D03*
G04 #@! TD*
D16*
G04 #@! TO.N,GND*
G04 #@! TO.C,RN204*
X124729000Y-107703000D03*
X123429000Y-107703000D03*
X124729000Y-108803000D03*
X123429000Y-108803000D03*
G04 #@! TD*
G04 #@! TO.N,GND*
G04 #@! TO.C,RN205*
X133365000Y-101304000D03*
X132065000Y-101304000D03*
X133365000Y-102404000D03*
X132065000Y-102404000D03*
G04 #@! TD*
D25*
G04 #@! TO.N,unconnected-(J403-Pin_1-Pad1)*
G04 #@! TO.C,J403*
X183007000Y-89408000D03*
D26*
G04 #@! TO.N,unconnected-(J403-Pin_2-Pad2)*
X185547000Y-89408000D03*
G04 #@! TO.N,GNDS*
X183007000Y-91948000D03*
X185547000Y-91948000D03*
G04 #@! TO.N,Net-(J403-Pin_5)*
X183007000Y-94488000D03*
G04 #@! TO.N,Net-(J403-Pin_6)*
X185547000Y-94488000D03*
G04 #@! TO.N,Net-(J403-Pin_7)*
X183007000Y-97028000D03*
G04 #@! TO.N,Net-(J403-Pin_8)*
X185547000Y-97028000D03*
G04 #@! TO.N,Net-(J403-Pin_9)*
X183007000Y-99568000D03*
G04 #@! TO.N,Net-(J403-Pin_10)*
X185547000Y-99568000D03*
G04 #@! TO.N,unconnected-(J403-Pin_11-Pad11)*
X183007000Y-102108000D03*
G04 #@! TO.N,unconnected-(J403-Pin_12-Pad12)*
X185547000Y-102108000D03*
G04 #@! TD*
D16*
G04 #@! TO.N,GND*
G04 #@! TO.C,RN202*
X114367000Y-105579000D03*
X115667000Y-105579000D03*
X114367000Y-104479000D03*
X115667000Y-104479000D03*
G04 #@! TD*
D27*
G04 #@! TO.N,Net-(J201-Pin_1)*
G04 #@! TO.C,J201*
X88773000Y-100269000D03*
D28*
G04 #@! TO.N,Net-(J201-Pin_2)*
X88773000Y-109789000D03*
G04 #@! TD*
D25*
G04 #@! TO.N,unconnected-(J404-Pin_1-Pad1)*
G04 #@! TO.C,J404*
X183007000Y-112408000D03*
D26*
G04 #@! TO.N,unconnected-(J404-Pin_2-Pad2)*
X185547000Y-112408000D03*
G04 #@! TO.N,GNDS*
X183007000Y-114948000D03*
X185547000Y-114948000D03*
G04 #@! TO.N,Net-(J404-Pin_5)*
X183007000Y-117488000D03*
G04 #@! TO.N,Net-(J404-Pin_6)*
X185547000Y-117488000D03*
G04 #@! TO.N,Net-(J404-Pin_7)*
X183007000Y-120028000D03*
G04 #@! TO.N,Net-(J404-Pin_8)*
X185547000Y-120028000D03*
G04 #@! TO.N,Net-(J404-Pin_9)*
X183007000Y-122568000D03*
G04 #@! TO.N,Net-(J404-Pin_10)*
X185547000Y-122568000D03*
G04 #@! TO.N,unconnected-(J404-Pin_11-Pad11)*
X183007000Y-125108000D03*
G04 #@! TO.N,unconnected-(J404-Pin_12-Pad12)*
X185547000Y-125108000D03*
G04 #@! TD*
D29*
G04 #@! TO.N,GND*
X146304000Y-74262500D03*
X134874000Y-74262500D03*
X125730000Y-85090000D03*
X115570000Y-99441000D03*
X125730000Y-87630000D03*
X116713000Y-69215000D03*
X155930600Y-104216200D03*
X155930600Y-106603800D03*
X135890000Y-75405500D03*
X128397000Y-101981000D03*
X125730000Y-82550000D03*
X127000000Y-96520000D03*
X144018000Y-104521000D03*
X113792000Y-83312000D03*
X126111000Y-108077000D03*
X154355800Y-107391200D03*
X117983000Y-69215000D03*
X133040000Y-105191110D03*
X132080000Y-96520000D03*
X139065000Y-87757000D03*
X155168600Y-103403400D03*
X114554000Y-98679000D03*
X143510000Y-92710000D03*
X154355800Y-104216200D03*
X154355800Y-106603800D03*
X146304000Y-75405500D03*
X139827000Y-104267000D03*
X146177000Y-96774000D03*
X125476000Y-64770000D03*
X113792000Y-62357000D03*
X143510000Y-85090000D03*
X147320000Y-73119500D03*
X152730200Y-103403400D03*
X114554000Y-99441000D03*
X129540000Y-124460000D03*
X134620000Y-127000000D03*
X119380000Y-127000000D03*
X124460000Y-124460000D03*
X134620000Y-112649000D03*
X154051000Y-110363000D03*
X143637000Y-114046000D03*
X138430000Y-106172000D03*
X153543000Y-96012000D03*
X129032000Y-78867000D03*
X129032000Y-77724000D03*
X113792000Y-88392000D03*
X146304000Y-73119500D03*
X113792000Y-67437000D03*
X139700000Y-96520000D03*
X137160000Y-96520000D03*
X155930600Y-105816400D03*
X154355800Y-105816400D03*
X154940000Y-101092000D03*
X151638000Y-88392000D03*
X135890000Y-74262500D03*
X114554000Y-110236000D03*
X145415000Y-108204000D03*
X137160000Y-81280000D03*
X146116000Y-93406000D03*
X144018000Y-105537000D03*
X129540000Y-127000000D03*
X139700000Y-81280000D03*
X113792000Y-64897000D03*
X155168600Y-106603800D03*
X155168600Y-105029000D03*
X153619200Y-103403400D03*
X143510000Y-82550000D03*
X129540000Y-81280000D03*
X123129000Y-117028000D03*
X125730000Y-92710000D03*
X134620000Y-124460000D03*
X125730000Y-95250000D03*
X154355800Y-103403400D03*
X125730000Y-90170000D03*
X123129000Y-117917000D03*
X161417000Y-105029000D03*
X119380000Y-124460000D03*
X121920000Y-127000000D03*
X149733000Y-101600000D03*
X121920000Y-124460000D03*
X145669000Y-114046000D03*
X154813000Y-96012000D03*
X126036500Y-110415500D03*
X113792000Y-90932000D03*
X151638000Y-80772000D03*
X147320000Y-74262500D03*
X113792000Y-85852000D03*
X155930600Y-103403400D03*
X98806000Y-100838000D03*
X132080000Y-127000000D03*
X143510000Y-95250000D03*
X139827000Y-112014000D03*
X151638000Y-83312000D03*
X135890000Y-73119500D03*
X115570000Y-110998000D03*
X127000000Y-81280000D03*
X134493000Y-105029000D03*
X152755600Y-106603800D03*
X146752500Y-108331000D03*
X152044400Y-107391200D03*
X148590000Y-93406000D03*
X129032000Y-76581000D03*
X116840000Y-127000000D03*
X161417000Y-125730000D03*
X132080000Y-81280000D03*
X125476000Y-63500000D03*
X129540000Y-96520000D03*
X147320000Y-75405500D03*
X134874000Y-73119500D03*
X98806000Y-109220000D03*
X125476000Y-62230000D03*
X132080000Y-124460000D03*
X157632400Y-108254800D03*
X115443000Y-69215000D03*
X128270000Y-113665000D03*
X135064500Y-100393500D03*
X134874000Y-75405500D03*
X124460000Y-127000000D03*
X155168600Y-104216200D03*
X147701000Y-86995000D03*
X161417000Y-103632000D03*
X114554000Y-110998000D03*
X143002000Y-105537000D03*
X155168600Y-105816400D03*
X115570000Y-98679000D03*
X154355800Y-105029000D03*
X155930600Y-105029000D03*
X161417000Y-106426000D03*
X127000000Y-124460000D03*
X147320000Y-112014000D03*
X115570000Y-110236000D03*
X161417000Y-123190000D03*
X161417000Y-120650000D03*
X116840000Y-124460000D03*
X161417000Y-118110000D03*
X151638000Y-85852000D03*
X142240000Y-96520000D03*
X127000000Y-127000000D03*
X151130000Y-105029000D03*
X143510000Y-90170000D03*
X113792000Y-80772000D03*
X142240000Y-81280000D03*
X143002000Y-104521000D03*
X143510000Y-87630000D03*
G04 #@! TO.N,+5VA*
X116314500Y-100347500D03*
X116332722Y-96219513D03*
X153416000Y-101142800D03*
X113774500Y-109329500D03*
X122682000Y-64770000D03*
X129005500Y-108812500D03*
X153416000Y-100457000D03*
X138303000Y-112649000D03*
X122682000Y-63500000D03*
X113792000Y-113030000D03*
X110297000Y-97028000D03*
X141859000Y-108204000D03*
X108397000Y-113157000D03*
X140335000Y-101910000D03*
X122682000Y-62230000D03*
G04 #@! TO.N,Net-(C212-Pad2)*
X98806000Y-97663000D03*
G04 #@! TO.N,Net-(C213-Pad2)*
X98806000Y-112395000D03*
G04 #@! TO.N,-5VA*
X135128000Y-106553000D03*
X116840000Y-109220000D03*
X117983000Y-75946000D03*
X116713000Y-75946000D03*
X108397000Y-96901000D03*
X110297000Y-113157000D03*
X115443000Y-75946000D03*
X113665000Y-100584000D03*
X126492000Y-101981000D03*
X134747000Y-102870000D03*
G04 #@! TO.N,Net-(C227-Pad1)*
X117983000Y-106553000D03*
G04 #@! TO.N,+1V8*
X153035000Y-109474000D03*
X150767000Y-91506000D03*
X148309500Y-114908500D03*
X159258000Y-93853000D03*
X132334000Y-74803000D03*
X157353000Y-100457000D03*
X159258000Y-116178500D03*
X156337000Y-96012000D03*
X131318000Y-116586000D03*
X157353000Y-101219000D03*
X131064000Y-74803000D03*
X129794000Y-74803000D03*
X136244500Y-76988500D03*
X153035000Y-108712000D03*
G04 #@! TO.N,GNDS*
X177165000Y-82931000D03*
X167132000Y-83439000D03*
X171196000Y-120650000D03*
X165862000Y-82169000D03*
X175260000Y-127000000D03*
X171577000Y-105029000D03*
X171196000Y-125730000D03*
X173228000Y-79883000D03*
X173228000Y-81026000D03*
X164592000Y-83439000D03*
X177800000Y-127000000D03*
X162052000Y-82169000D03*
X182880000Y-107950000D03*
X160782000Y-83439000D03*
X174244000Y-79883000D03*
X163322000Y-83439000D03*
X185420000Y-107950000D03*
X162052000Y-83439000D03*
X174244000Y-81026000D03*
X171196000Y-118110000D03*
X185420000Y-106680000D03*
X174244000Y-78740000D03*
X171577000Y-103632000D03*
X163322000Y-82169000D03*
X171577000Y-106426000D03*
X184150000Y-107950000D03*
X173228000Y-78740000D03*
X184150000Y-106680000D03*
X167132000Y-82169000D03*
X160782000Y-82169000D03*
X165862000Y-83439000D03*
X180340000Y-127000000D03*
X164592000Y-82169000D03*
X182880000Y-106680000D03*
X171196000Y-123190000D03*
X186690000Y-107950000D03*
X186690000Y-106680000D03*
X172720000Y-127000000D03*
G04 #@! TO.N,VCCQ*
X172593000Y-93853000D03*
X170053000Y-79248000D03*
X169037000Y-79248000D03*
X170942000Y-79248000D03*
X172974000Y-116205000D03*
X176276000Y-83820000D03*
G04 #@! TO.N,+9V*
X131826000Y-86106000D03*
G04 #@! TO.N,Net-(D501-K)*
X177038000Y-69977000D03*
X167259000Y-71628000D03*
X175768000Y-69977000D03*
X167259000Y-74168000D03*
X178308000Y-69977000D03*
X188722000Y-83185000D03*
X188722000Y-82296000D03*
X187833000Y-83185000D03*
X167259000Y-72898000D03*
X187833000Y-82296000D03*
G04 #@! TO.N,+5V*
X129032000Y-67056000D03*
X125349000Y-75438000D03*
X129032000Y-68326000D03*
X140843000Y-99695000D03*
X122809000Y-75057000D03*
X139091500Y-114908500D03*
X129032000Y-69596000D03*
X126111000Y-75438000D03*
G04 #@! TO.N,Net-(R212-Pad2)*
X104069000Y-108204000D03*
G04 #@! TO.N,Net-(U202--)*
X114042000Y-106426000D03*
X114808000Y-95377000D03*
G04 #@! TO.N,Net-(U303-REFIN)*
X152019000Y-99568000D03*
G04 #@! TO.N,Net-(U202-FB)*
X117348000Y-95377000D03*
X114046000Y-101981000D03*
G04 #@! TO.N,Net-(U304-NR)*
X136017000Y-89662000D03*
G04 #@! TO.N,Net-(U303-~{RST})*
X154813000Y-98425000D03*
G04 #@! TO.N,Net-(U301--)*
X146177000Y-104521000D03*
G04 #@! TO.N,VDDF*
X136906000Y-88575000D03*
G04 #@! TO.N,Net-(U201-Pad16)*
X138643000Y-104703608D03*
X135509000Y-99314000D03*
G04 #@! TO.N,/ADC/ADC_CNV*
X148336000Y-91567000D03*
X159766000Y-107696000D03*
G04 #@! TO.N,/Isolation/CONN_100MHz*
X175387000Y-93980000D03*
G04 #@! TO.N,/Isolation/CONN_~{CS}*
X173482000Y-112395000D03*
G04 #@! TO.N,+3.3V*
X147674500Y-76988500D03*
X142494000Y-74803000D03*
X143764000Y-74803000D03*
X141224000Y-74803000D03*
G04 #@! TO.N,/Isolation/CONN_SDO0*
X173482000Y-100203000D03*
G04 #@! TO.N,/Isolation/CONN_SDI*
X173482000Y-111125000D03*
G04 #@! TO.N,/Isolation/CONN_BUSY*
X173482000Y-101473000D03*
G04 #@! TO.N,/Isolation/CONN_SDO1*
X173482000Y-97663000D03*
G04 #@! TO.N,/Isolation/CONN_SDO3*
X175387000Y-95631000D03*
G04 #@! TO.N,/Isolation/CONN_SDO2*
X175006000Y-98933000D03*
G04 #@! TO.N,/Isolation/CONN_GAIN_x10*
X174371000Y-117475000D03*
G04 #@! TO.N,/Isolation/CONN_GAIN_x20*
X175133000Y-115443000D03*
G04 #@! TO.N,/Isolation/CONN_SCK*
X176974500Y-110680500D03*
G04 #@! TO.N,/Isolation/CONN_CNV*
X173482000Y-108585000D03*
G04 #@! TO.N,Net-(R211-Pad1)*
X104719000Y-101854000D03*
G04 #@! TO.N,VCOM*
X146177000Y-100838000D03*
X145415000Y-107061000D03*
G04 #@! TO.N,/DIFF/SW_GAIN_x20*
X143195000Y-113096000D03*
X137343000Y-105029000D03*
X137343000Y-99441000D03*
G04 #@! TO.N,Net-(U501-VPOS)*
X123571000Y-70485000D03*
X122809000Y-70485000D03*
G04 #@! TO.N,Net-(U502-Vin)*
X170942000Y-69977000D03*
X173482000Y-69977000D03*
X172212000Y-69977000D03*
G04 #@! TO.N,Net-(U502-Vout)*
X176530000Y-79629000D03*
X177165000Y-79629000D03*
X177800000Y-79629000D03*
G04 #@! TO.N,Net-(R308-Pad2)*
X152781000Y-105029000D03*
X149098000Y-99822000D03*
G04 #@! TD*
G04 #@! TA.AperFunction,Conductor*
G04 #@! TO.N,GND*
G36*
X151831806Y-60518806D02*
G01*
X152000694Y-60687694D01*
X152019000Y-60731888D01*
X152019000Y-65292907D01*
X152014243Y-65316824D01*
X151997603Y-65356997D01*
X151959000Y-65551064D01*
X151959000Y-67248935D01*
X151997601Y-67442996D01*
X151997602Y-67442999D01*
X151997603Y-67443002D01*
X152014243Y-67483176D01*
X152019000Y-67507090D01*
X152019000Y-91821000D01*
X162026112Y-91821000D01*
X162070306Y-91839306D01*
X162287694Y-92056694D01*
X162306000Y-92100888D01*
X162306000Y-129260112D01*
X162287694Y-129304306D01*
X162110806Y-129481194D01*
X162066612Y-129499500D01*
X113523388Y-129499500D01*
X113479194Y-129481194D01*
X113302306Y-129304306D01*
X113284000Y-129260112D01*
X113284000Y-116586000D01*
X130808312Y-116586000D01*
X130828957Y-116729594D01*
X130828958Y-116729597D01*
X130889222Y-116861556D01*
X130889225Y-116861561D01*
X130984226Y-116971198D01*
X131106263Y-117049626D01*
X131106268Y-117049629D01*
X131245461Y-117090499D01*
X131245463Y-117090500D01*
X131245464Y-117090500D01*
X131390537Y-117090500D01*
X131390537Y-117090499D01*
X131529732Y-117049629D01*
X131575535Y-117020192D01*
X131651773Y-116971198D01*
X131746774Y-116861561D01*
X131746777Y-116861558D01*
X131807042Y-116729596D01*
X131827688Y-116586000D01*
X131807042Y-116442404D01*
X131746777Y-116310442D01*
X131746774Y-116310438D01*
X131651773Y-116200801D01*
X131617072Y-116178500D01*
X158748312Y-116178500D01*
X158768957Y-116322094D01*
X158768958Y-116322097D01*
X158829222Y-116454056D01*
X158829225Y-116454061D01*
X158924226Y-116563698D01*
X159046263Y-116642126D01*
X159046268Y-116642129D01*
X159185461Y-116682999D01*
X159185463Y-116683000D01*
X159185464Y-116683000D01*
X159330537Y-116683000D01*
X159330537Y-116682999D01*
X159469732Y-116642129D01*
X159557070Y-116586000D01*
X159591773Y-116563698D01*
X159686774Y-116454061D01*
X159686777Y-116454058D01*
X159747042Y-116322096D01*
X159767688Y-116178500D01*
X159747042Y-116034904D01*
X159686777Y-115902942D01*
X159686774Y-115902938D01*
X159591773Y-115793301D01*
X159469736Y-115714873D01*
X159469727Y-115714869D01*
X159330538Y-115674000D01*
X159330536Y-115674000D01*
X159185464Y-115674000D01*
X159185462Y-115674000D01*
X159046272Y-115714869D01*
X159046263Y-115714873D01*
X158924226Y-115793301D01*
X158829225Y-115902938D01*
X158829222Y-115902943D01*
X158768958Y-116034902D01*
X158768957Y-116034905D01*
X158748312Y-116178500D01*
X131617072Y-116178500D01*
X131529736Y-116122373D01*
X131529727Y-116122369D01*
X131390538Y-116081500D01*
X131390536Y-116081500D01*
X131245464Y-116081500D01*
X131245462Y-116081500D01*
X131106272Y-116122369D01*
X131106263Y-116122373D01*
X130984226Y-116200801D01*
X130889225Y-116310438D01*
X130889222Y-116310443D01*
X130828958Y-116442402D01*
X130828957Y-116442405D01*
X130808312Y-116586000D01*
X113284000Y-116586000D01*
X113284000Y-113919000D01*
X113284000Y-113665000D01*
X113030000Y-113665000D01*
X110652545Y-113665000D01*
X110608351Y-113646694D01*
X110590045Y-113602500D01*
X110608351Y-113558306D01*
X110618755Y-113549922D01*
X110630773Y-113542198D01*
X110630775Y-113542196D01*
X110725777Y-113432558D01*
X110786042Y-113300596D01*
X110806688Y-113157000D01*
X110788428Y-113030000D01*
X113282312Y-113030000D01*
X113302957Y-113173594D01*
X113302958Y-113173597D01*
X113363222Y-113305556D01*
X113363225Y-113305561D01*
X113458226Y-113415198D01*
X113560925Y-113481198D01*
X113580268Y-113493629D01*
X113719461Y-113534499D01*
X113719463Y-113534500D01*
X113719464Y-113534500D01*
X113864537Y-113534500D01*
X113864537Y-113534499D01*
X114003732Y-113493629D01*
X114049535Y-113464192D01*
X114125773Y-113415198D01*
X114163585Y-113371561D01*
X114220777Y-113305558D01*
X114281042Y-113173596D01*
X114301688Y-113030000D01*
X114281042Y-112886404D01*
X114220777Y-112754442D01*
X114200396Y-112730921D01*
X114125773Y-112644801D01*
X114003736Y-112566373D01*
X114003727Y-112566369D01*
X113864538Y-112525500D01*
X113864536Y-112525500D01*
X113719464Y-112525500D01*
X113719462Y-112525500D01*
X113580272Y-112566369D01*
X113580263Y-112566373D01*
X113458226Y-112644801D01*
X113363225Y-112754438D01*
X113363222Y-112754443D01*
X113302958Y-112886402D01*
X113302957Y-112886405D01*
X113282312Y-113030000D01*
X110788428Y-113030000D01*
X110786042Y-113013404D01*
X110725777Y-112881442D01*
X110725774Y-112881438D01*
X110630773Y-112771801D01*
X110508736Y-112693373D01*
X110508727Y-112693369D01*
X110369538Y-112652500D01*
X110369536Y-112652500D01*
X110224464Y-112652500D01*
X110224462Y-112652500D01*
X110085272Y-112693369D01*
X110085263Y-112693373D01*
X109963226Y-112771801D01*
X109868225Y-112881438D01*
X109868222Y-112881443D01*
X109807958Y-113013402D01*
X109807957Y-113013405D01*
X109787312Y-113157000D01*
X109807957Y-113300594D01*
X109807958Y-113300597D01*
X109868222Y-113432556D01*
X109868225Y-113432561D01*
X109963226Y-113542198D01*
X109975245Y-113549922D01*
X110002527Y-113589215D01*
X109994033Y-113636290D01*
X109954740Y-113663572D01*
X109941455Y-113665000D01*
X108752545Y-113665000D01*
X108708351Y-113646694D01*
X108690045Y-113602500D01*
X108708351Y-113558306D01*
X108718755Y-113549922D01*
X108730773Y-113542198D01*
X108730775Y-113542196D01*
X108825777Y-113432558D01*
X108886042Y-113300596D01*
X108906688Y-113157000D01*
X108886042Y-113013404D01*
X108825777Y-112881442D01*
X108825774Y-112881438D01*
X108730773Y-112771801D01*
X108608736Y-112693373D01*
X108608727Y-112693369D01*
X108469538Y-112652500D01*
X108469536Y-112652500D01*
X108324464Y-112652500D01*
X108324462Y-112652500D01*
X108185272Y-112693369D01*
X108185263Y-112693373D01*
X108063226Y-112771801D01*
X107968225Y-112881438D01*
X107968222Y-112881443D01*
X107907958Y-113013402D01*
X107907957Y-113013405D01*
X107887312Y-113157000D01*
X107907957Y-113300594D01*
X107907958Y-113300597D01*
X107968222Y-113432556D01*
X107968225Y-113432561D01*
X108063226Y-113542198D01*
X108075245Y-113549922D01*
X108102527Y-113589215D01*
X108094033Y-113636290D01*
X108054740Y-113663572D01*
X108041455Y-113665000D01*
X96672888Y-113665000D01*
X96628694Y-113646694D01*
X96411306Y-113429306D01*
X96393000Y-113385112D01*
X96393000Y-112395000D01*
X98296312Y-112395000D01*
X98316957Y-112538594D01*
X98316958Y-112538597D01*
X98377222Y-112670556D01*
X98377225Y-112670561D01*
X98472226Y-112780198D01*
X98594263Y-112858626D01*
X98594268Y-112858629D01*
X98688866Y-112886405D01*
X98733461Y-112899499D01*
X98733463Y-112899500D01*
X98733464Y-112899500D01*
X98878537Y-112899500D01*
X98878537Y-112899499D01*
X99017732Y-112858629D01*
X99075698Y-112821376D01*
X99139773Y-112780198D01*
X99139775Y-112780196D01*
X99234777Y-112670558D01*
X99295042Y-112538596D01*
X99315688Y-112395000D01*
X114046000Y-112395000D01*
X116078000Y-112395000D01*
X116078000Y-111379000D01*
X114046000Y-111379000D01*
X114046000Y-112395000D01*
X99315688Y-112395000D01*
X99295042Y-112251404D01*
X99234777Y-112119442D01*
X99234774Y-112119438D01*
X99139773Y-112009801D01*
X99017736Y-111931373D01*
X99017727Y-111931369D01*
X98878538Y-111890500D01*
X98878536Y-111890500D01*
X98733464Y-111890500D01*
X98733462Y-111890500D01*
X98594272Y-111931369D01*
X98594263Y-111931373D01*
X98472226Y-112009801D01*
X98377225Y-112119438D01*
X98377222Y-112119443D01*
X98316958Y-112251402D01*
X98316957Y-112251405D01*
X98296312Y-112395000D01*
X96393000Y-112395000D01*
X96393000Y-110375000D01*
X119382726Y-110375000D01*
X119401762Y-110543950D01*
X119401763Y-110543954D01*
X119457919Y-110704439D01*
X119457921Y-110704443D01*
X119548374Y-110848398D01*
X119668601Y-110968625D01*
X119812556Y-111059078D01*
X119812557Y-111059079D01*
X119812559Y-111059079D01*
X119812563Y-111059082D01*
X119860935Y-111076008D01*
X119896602Y-111107883D01*
X119899284Y-111155643D01*
X119867408Y-111191311D01*
X119860943Y-111193989D01*
X119819290Y-111208563D01*
X119812557Y-111210920D01*
X119812556Y-111210921D01*
X119668601Y-111301374D01*
X119548374Y-111421601D01*
X119457921Y-111565556D01*
X119457919Y-111565560D01*
X119401763Y-111726045D01*
X119401762Y-111726049D01*
X119382726Y-111895000D01*
X119401762Y-112063950D01*
X119401763Y-112063954D01*
X119444248Y-112185371D01*
X119457919Y-112224439D01*
X119457921Y-112224443D01*
X119548374Y-112368398D01*
X119668601Y-112488625D01*
X119812556Y-112579078D01*
X119812557Y-112579079D01*
X119812559Y-112579079D01*
X119812563Y-112579082D01*
X119860935Y-112596008D01*
X119896602Y-112627883D01*
X119899284Y-112675643D01*
X119867408Y-112711311D01*
X119860943Y-112713989D01*
X119819290Y-112728563D01*
X119812557Y-112730920D01*
X119812556Y-112730921D01*
X119668601Y-112821374D01*
X119548374Y-112941601D01*
X119457921Y-113085556D01*
X119457919Y-113085560D01*
X119401763Y-113246045D01*
X119401762Y-113246049D01*
X119382726Y-113415000D01*
X119401762Y-113583950D01*
X119401763Y-113583954D01*
X119408252Y-113602500D01*
X119457919Y-113744439D01*
X119457921Y-113744443D01*
X119548374Y-113888398D01*
X119668601Y-114008625D01*
X119758449Y-114065080D01*
X119786130Y-114104092D01*
X119778117Y-114151252D01*
X119739105Y-114178933D01*
X119725198Y-114180500D01*
X119616935Y-114180500D01*
X119616931Y-114180501D01*
X119542700Y-114195265D01*
X119542696Y-114195267D01*
X119458515Y-114251515D01*
X119402266Y-114335697D01*
X119402265Y-114335699D01*
X119387500Y-114409932D01*
X119387500Y-115460064D01*
X119387501Y-115460068D01*
X119402265Y-115534299D01*
X119402267Y-115534303D01*
X119458515Y-115618484D01*
X119542697Y-115674733D01*
X119542699Y-115674734D01*
X119616933Y-115689500D01*
X120667066Y-115689499D01*
X120741301Y-115674734D01*
X120825484Y-115618484D01*
X120881734Y-115534301D01*
X120896500Y-115460067D01*
X120896499Y-114908500D01*
X138581812Y-114908500D01*
X138602457Y-115052094D01*
X138602458Y-115052097D01*
X138662722Y-115184056D01*
X138662725Y-115184061D01*
X138757726Y-115293698D01*
X138879763Y-115372126D01*
X138879768Y-115372129D01*
X139018961Y-115412999D01*
X139018963Y-115413000D01*
X139018964Y-115413000D01*
X139164037Y-115413000D01*
X139164037Y-115412999D01*
X139303232Y-115372129D01*
X139349035Y-115342692D01*
X139425273Y-115293698D01*
X139520274Y-115184061D01*
X139520277Y-115184058D01*
X139580542Y-115052096D01*
X139601188Y-114908500D01*
X147799812Y-114908500D01*
X147820457Y-115052094D01*
X147820458Y-115052097D01*
X147880722Y-115184056D01*
X147880725Y-115184061D01*
X147975726Y-115293698D01*
X148097763Y-115372126D01*
X148097768Y-115372129D01*
X148236961Y-115412999D01*
X148236963Y-115413000D01*
X148236964Y-115413000D01*
X148382037Y-115413000D01*
X148382037Y-115412999D01*
X148521232Y-115372129D01*
X148567035Y-115342692D01*
X148643273Y-115293698D01*
X148738274Y-115184061D01*
X148738277Y-115184058D01*
X148798542Y-115052096D01*
X148819188Y-114908500D01*
X148798542Y-114764904D01*
X148738277Y-114632942D01*
X148738274Y-114632938D01*
X148643273Y-114523301D01*
X148521236Y-114444873D01*
X148521227Y-114444869D01*
X148382038Y-114404000D01*
X148382036Y-114404000D01*
X148236964Y-114404000D01*
X148236962Y-114404000D01*
X148097772Y-114444869D01*
X148097763Y-114444873D01*
X147975726Y-114523301D01*
X147880725Y-114632938D01*
X147880722Y-114632943D01*
X147820458Y-114764902D01*
X147820457Y-114764905D01*
X147799812Y-114908500D01*
X139601188Y-114908500D01*
X139580542Y-114764904D01*
X139520277Y-114632942D01*
X139520274Y-114632938D01*
X139425273Y-114523301D01*
X139303236Y-114444873D01*
X139303227Y-114444869D01*
X139164038Y-114404000D01*
X139164036Y-114404000D01*
X139018964Y-114404000D01*
X139018962Y-114404000D01*
X138879772Y-114444869D01*
X138879763Y-114444873D01*
X138757726Y-114523301D01*
X138662725Y-114632938D01*
X138662722Y-114632943D01*
X138602458Y-114764902D01*
X138602457Y-114764905D01*
X138581812Y-114908500D01*
X120896499Y-114908500D01*
X120896499Y-114409934D01*
X120881734Y-114335699D01*
X120881732Y-114335696D01*
X120825484Y-114251515D01*
X120741302Y-114195266D01*
X120741300Y-114195265D01*
X120667067Y-114180500D01*
X120558803Y-114180500D01*
X120514609Y-114162194D01*
X120496303Y-114118000D01*
X120514609Y-114073806D01*
X120525551Y-114065080D01*
X120615398Y-114008625D01*
X120615397Y-114008625D01*
X120615400Y-114008624D01*
X120735624Y-113888400D01*
X120826082Y-113744437D01*
X120882237Y-113583954D01*
X120901274Y-113415000D01*
X120882237Y-113246046D01*
X120826082Y-113085563D01*
X120793807Y-113034198D01*
X120735625Y-112941601D01*
X120615398Y-112821374D01*
X120471443Y-112730921D01*
X120471439Y-112730919D01*
X120471438Y-112730918D01*
X120471437Y-112730918D01*
X120423064Y-112713991D01*
X120387397Y-112682118D01*
X120385537Y-112649000D01*
X137793312Y-112649000D01*
X137813957Y-112792594D01*
X137813958Y-112792597D01*
X137874222Y-112924556D01*
X137874225Y-112924561D01*
X137969226Y-113034198D01*
X138091263Y-113112626D01*
X138091268Y-113112629D01*
X138230461Y-113153499D01*
X138230463Y-113153500D01*
X138230464Y-113153500D01*
X138375537Y-113153500D01*
X138375537Y-113153499D01*
X138514732Y-113112629D01*
X138540606Y-113096000D01*
X142685312Y-113096000D01*
X142705957Y-113239594D01*
X142705958Y-113239597D01*
X142766222Y-113371556D01*
X142766225Y-113371561D01*
X142861226Y-113481198D01*
X142981209Y-113558306D01*
X142983268Y-113559629D01*
X143122461Y-113600499D01*
X143122463Y-113600500D01*
X143122464Y-113600500D01*
X143267537Y-113600500D01*
X143267537Y-113600499D01*
X143406732Y-113559629D01*
X143452535Y-113530192D01*
X143528773Y-113481198D01*
X143528775Y-113481196D01*
X143623777Y-113371558D01*
X143684042Y-113239596D01*
X143704688Y-113096000D01*
X143684042Y-112952404D01*
X143623777Y-112820442D01*
X143623774Y-112820438D01*
X143528773Y-112710801D01*
X143406736Y-112632373D01*
X143406727Y-112632369D01*
X143267538Y-112591500D01*
X143267536Y-112591500D01*
X143122464Y-112591500D01*
X143122462Y-112591500D01*
X142983272Y-112632369D01*
X142983263Y-112632373D01*
X142861226Y-112710801D01*
X142766225Y-112820438D01*
X142766222Y-112820443D01*
X142705958Y-112952402D01*
X142705957Y-112952405D01*
X142685312Y-113096000D01*
X138540606Y-113096000D01*
X138560535Y-113083192D01*
X138636773Y-113034198D01*
X138640411Y-113030000D01*
X138731777Y-112924558D01*
X138792042Y-112792596D01*
X138812688Y-112649000D01*
X138792042Y-112505404D01*
X138731777Y-112373442D01*
X138731774Y-112373438D01*
X138636773Y-112263801D01*
X138514736Y-112185373D01*
X138514727Y-112185369D01*
X138375538Y-112144500D01*
X138375536Y-112144500D01*
X138230464Y-112144500D01*
X138230462Y-112144500D01*
X138091272Y-112185369D01*
X138091263Y-112185373D01*
X137969226Y-112263801D01*
X137874225Y-112373438D01*
X137874222Y-112373443D01*
X137813958Y-112505402D01*
X137813957Y-112505405D01*
X137793312Y-112649000D01*
X120385537Y-112649000D01*
X120384715Y-112634358D01*
X120416590Y-112598689D01*
X120423056Y-112596010D01*
X120471437Y-112579082D01*
X120615400Y-112488624D01*
X120735624Y-112368400D01*
X120826082Y-112224437D01*
X120882237Y-112063954D01*
X120901274Y-111895000D01*
X120882237Y-111726046D01*
X120826082Y-111565563D01*
X120735624Y-111421600D01*
X120615400Y-111301376D01*
X120615398Y-111301374D01*
X120471443Y-111210921D01*
X120471439Y-111210919D01*
X120471438Y-111210918D01*
X120471437Y-111210918D01*
X120423064Y-111193991D01*
X120387397Y-111162118D01*
X120384715Y-111114358D01*
X120416590Y-111078689D01*
X120423056Y-111076010D01*
X120471437Y-111059082D01*
X120615400Y-110968624D01*
X120735624Y-110848400D01*
X120826082Y-110704437D01*
X120882237Y-110543954D01*
X120901274Y-110375000D01*
X120882237Y-110206046D01*
X120826082Y-110045563D01*
X120758263Y-109937630D01*
X120735625Y-109901601D01*
X120615398Y-109781374D01*
X120471443Y-109690921D01*
X120471439Y-109690919D01*
X120471438Y-109690918D01*
X120471437Y-109690918D01*
X120310954Y-109634763D01*
X120310950Y-109634762D01*
X120142000Y-109615726D01*
X119973049Y-109634762D01*
X119973045Y-109634763D01*
X119812560Y-109690919D01*
X119812556Y-109690921D01*
X119668601Y-109781374D01*
X119548374Y-109901601D01*
X119457921Y-110045556D01*
X119457919Y-110045560D01*
X119401763Y-110206045D01*
X119401762Y-110206049D01*
X119382726Y-110375000D01*
X96393000Y-110375000D01*
X96393000Y-109329500D01*
X113264812Y-109329500D01*
X113285457Y-109473094D01*
X113285458Y-109473097D01*
X113345722Y-109605056D01*
X113345725Y-109605061D01*
X113440726Y-109714698D01*
X113544480Y-109781376D01*
X113562768Y-109793129D01*
X113600521Y-109804214D01*
X113701961Y-109833999D01*
X113701963Y-109834000D01*
X113701964Y-109834000D01*
X113847037Y-109834000D01*
X113847037Y-109833999D01*
X113965892Y-109799101D01*
X114013453Y-109804214D01*
X114043468Y-109841461D01*
X114045316Y-109854316D01*
X114046000Y-109855000D01*
X116078000Y-109855000D01*
X116078000Y-109220000D01*
X116330312Y-109220000D01*
X116350957Y-109363594D01*
X116350958Y-109363597D01*
X116411222Y-109495556D01*
X116411225Y-109495561D01*
X116506226Y-109605198D01*
X116628263Y-109683626D01*
X116628268Y-109683629D01*
X116734081Y-109714698D01*
X116767461Y-109724499D01*
X116767463Y-109724500D01*
X116767464Y-109724500D01*
X116912537Y-109724500D01*
X116912537Y-109724499D01*
X117051732Y-109683629D01*
X117097535Y-109654192D01*
X117173773Y-109605198D01*
X117173892Y-109605061D01*
X117268777Y-109495558D01*
X117329042Y-109363596D01*
X117349688Y-109220000D01*
X117329042Y-109076404D01*
X117268777Y-108944442D01*
X117268774Y-108944438D01*
X117173773Y-108834801D01*
X117139072Y-108812500D01*
X128495812Y-108812500D01*
X128516457Y-108956094D01*
X128516458Y-108956097D01*
X128576722Y-109088056D01*
X128576725Y-109088061D01*
X128671726Y-109197698D01*
X128793763Y-109276126D01*
X128793768Y-109276129D01*
X128932961Y-109316999D01*
X128932963Y-109317000D01*
X128932964Y-109317000D01*
X129078037Y-109317000D01*
X129078037Y-109316999D01*
X129217232Y-109276129D01*
X129304570Y-109220000D01*
X129339273Y-109197698D01*
X129349493Y-109185904D01*
X129434277Y-109088058D01*
X129494542Y-108956096D01*
X129515188Y-108812500D01*
X129500738Y-108712000D01*
X152525312Y-108712000D01*
X152545957Y-108855594D01*
X152545958Y-108855597D01*
X152606222Y-108987556D01*
X152606225Y-108987561D01*
X152662123Y-109052071D01*
X152677230Y-109097459D01*
X152662123Y-109133929D01*
X152606225Y-109198438D01*
X152606222Y-109198443D01*
X152545958Y-109330402D01*
X152545957Y-109330405D01*
X152525312Y-109474000D01*
X152545957Y-109617594D01*
X152545958Y-109617597D01*
X152606222Y-109749556D01*
X152606225Y-109749561D01*
X152701226Y-109859198D01*
X152823263Y-109937626D01*
X152823268Y-109937629D01*
X152962461Y-109978499D01*
X152962463Y-109978500D01*
X152962464Y-109978500D01*
X153107537Y-109978500D01*
X153107537Y-109978499D01*
X153246732Y-109937629D01*
X153302794Y-109901600D01*
X153368773Y-109859198D01*
X153372411Y-109855000D01*
X153463777Y-109749558D01*
X153524042Y-109617596D01*
X153544688Y-109474000D01*
X153524042Y-109330404D01*
X153463777Y-109198442D01*
X153407874Y-109133927D01*
X153392768Y-109088542D01*
X153407874Y-109052072D01*
X153463777Y-108987558D01*
X153524042Y-108855596D01*
X153544688Y-108712000D01*
X153524042Y-108568404D01*
X153463777Y-108436442D01*
X153455859Y-108427304D01*
X153368773Y-108326801D01*
X153246736Y-108248373D01*
X153246727Y-108248369D01*
X153107538Y-108207500D01*
X153107536Y-108207500D01*
X152962464Y-108207500D01*
X152962462Y-108207500D01*
X152823272Y-108248369D01*
X152823263Y-108248373D01*
X152701226Y-108326801D01*
X152606225Y-108436438D01*
X152606222Y-108436443D01*
X152545958Y-108568402D01*
X152545957Y-108568405D01*
X152525312Y-108712000D01*
X129500738Y-108712000D01*
X129494542Y-108668904D01*
X129434277Y-108536942D01*
X129427742Y-108529400D01*
X129339273Y-108427301D01*
X129217236Y-108348873D01*
X129217227Y-108348869D01*
X129078038Y-108308000D01*
X129078036Y-108308000D01*
X128932964Y-108308000D01*
X128932962Y-108308000D01*
X128793772Y-108348869D01*
X128793763Y-108348873D01*
X128671726Y-108427301D01*
X128576725Y-108536938D01*
X128576722Y-108536943D01*
X128516458Y-108668902D01*
X128516457Y-108668905D01*
X128495812Y-108812500D01*
X117139072Y-108812500D01*
X117051736Y-108756373D01*
X117051727Y-108756369D01*
X116912538Y-108715500D01*
X116912536Y-108715500D01*
X116767464Y-108715500D01*
X116767462Y-108715500D01*
X116628272Y-108756369D01*
X116628263Y-108756373D01*
X116506226Y-108834801D01*
X116411225Y-108944438D01*
X116411222Y-108944443D01*
X116350958Y-109076402D01*
X116350957Y-109076405D01*
X116330312Y-109220000D01*
X116078000Y-109220000D01*
X116078000Y-108839000D01*
X114046000Y-108839000D01*
X114045999Y-108839000D01*
X114037882Y-108847117D01*
X113993688Y-108865422D01*
X113976081Y-108862890D01*
X113847038Y-108825000D01*
X113847036Y-108825000D01*
X113701964Y-108825000D01*
X113701962Y-108825000D01*
X113562772Y-108865869D01*
X113562763Y-108865873D01*
X113440726Y-108944301D01*
X113345725Y-109053938D01*
X113345722Y-109053943D01*
X113285458Y-109185902D01*
X113285457Y-109185905D01*
X113264812Y-109329500D01*
X96393000Y-109329500D01*
X96393000Y-107568999D01*
X96556785Y-107568999D01*
X96556785Y-107569000D01*
X96575599Y-107760033D01*
X96631325Y-107943734D01*
X96721808Y-108113017D01*
X96721812Y-108113023D01*
X96843590Y-108261410D01*
X96991977Y-108383188D01*
X96991979Y-108383189D01*
X96991982Y-108383191D01*
X97161265Y-108473674D01*
X97161271Y-108473677D01*
X97344965Y-108529400D01*
X97536000Y-108548215D01*
X97727035Y-108529400D01*
X97910729Y-108473677D01*
X98080023Y-108383188D01*
X98228410Y-108261410D01*
X98275525Y-108204000D01*
X103559312Y-108204000D01*
X103579957Y-108347594D01*
X103579958Y-108347597D01*
X103640222Y-108479556D01*
X103640225Y-108479561D01*
X103735226Y-108589198D01*
X103857263Y-108667626D01*
X103857268Y-108667629D01*
X103861614Y-108668905D01*
X103996461Y-108708499D01*
X103996463Y-108708500D01*
X103996464Y-108708500D01*
X104141537Y-108708500D01*
X104141537Y-108708499D01*
X104280732Y-108667629D01*
X104326535Y-108638192D01*
X104402773Y-108589198D01*
X104402775Y-108589196D01*
X104497777Y-108479558D01*
X104558042Y-108347596D01*
X104578688Y-108204000D01*
X104558042Y-108060404D01*
X104497777Y-107928442D01*
X104497774Y-107928438D01*
X104402773Y-107818801D01*
X104280736Y-107740373D01*
X104280727Y-107740369D01*
X104141538Y-107699500D01*
X104141536Y-107699500D01*
X103996464Y-107699500D01*
X103996462Y-107699500D01*
X103857272Y-107740369D01*
X103857263Y-107740373D01*
X103735226Y-107818801D01*
X103640225Y-107928438D01*
X103640222Y-107928443D01*
X103579958Y-108060402D01*
X103579957Y-108060405D01*
X103559312Y-108204000D01*
X98275525Y-108204000D01*
X98350188Y-108113023D01*
X98440677Y-107943729D01*
X98496400Y-107760035D01*
X98515215Y-107569000D01*
X98515215Y-107568999D01*
X107224785Y-107568999D01*
X107224785Y-107569000D01*
X107243599Y-107760033D01*
X107299325Y-107943734D01*
X107389808Y-108113017D01*
X107389812Y-108113023D01*
X107511590Y-108261410D01*
X107659977Y-108383188D01*
X107659979Y-108383189D01*
X107659982Y-108383191D01*
X107829265Y-108473674D01*
X107829271Y-108473677D01*
X108012965Y-108529400D01*
X108204000Y-108548215D01*
X108395035Y-108529400D01*
X108578729Y-108473677D01*
X108748023Y-108383188D01*
X108896410Y-108261410D01*
X108943525Y-108204000D01*
X141349312Y-108204000D01*
X141369957Y-108347594D01*
X141369958Y-108347597D01*
X141430222Y-108479556D01*
X141430225Y-108479561D01*
X141525226Y-108589198D01*
X141647263Y-108667626D01*
X141647268Y-108667629D01*
X141651614Y-108668905D01*
X141786461Y-108708499D01*
X141786463Y-108708500D01*
X141786464Y-108708500D01*
X141931537Y-108708500D01*
X141931537Y-108708499D01*
X142070732Y-108667629D01*
X142116535Y-108638192D01*
X142192773Y-108589198D01*
X142192775Y-108589196D01*
X142287777Y-108479558D01*
X142348042Y-108347596D01*
X142368688Y-108204000D01*
X142348042Y-108060404D01*
X142287777Y-107928442D01*
X142287774Y-107928438D01*
X142192773Y-107818801D01*
X142070736Y-107740373D01*
X142070727Y-107740369D01*
X141931538Y-107699500D01*
X141931536Y-107699500D01*
X141786464Y-107699500D01*
X141786462Y-107699500D01*
X141647272Y-107740369D01*
X141647263Y-107740373D01*
X141525226Y-107818801D01*
X141430225Y-107928438D01*
X141430222Y-107928443D01*
X141369958Y-108060402D01*
X141369957Y-108060405D01*
X141349312Y-108204000D01*
X108943525Y-108204000D01*
X109018188Y-108113023D01*
X109108677Y-107943729D01*
X109164400Y-107760035D01*
X109170707Y-107696000D01*
X159256312Y-107696000D01*
X159276957Y-107839594D01*
X159276958Y-107839597D01*
X159337222Y-107971556D01*
X159337225Y-107971561D01*
X159432226Y-108081198D01*
X159554263Y-108159626D01*
X159554268Y-108159629D01*
X159693461Y-108200499D01*
X159693463Y-108200500D01*
X159693464Y-108200500D01*
X159838537Y-108200500D01*
X159838537Y-108200499D01*
X159977732Y-108159629D01*
X160050261Y-108113017D01*
X160099773Y-108081198D01*
X160099775Y-108081196D01*
X160194777Y-107971558D01*
X160255042Y-107839596D01*
X160275688Y-107696000D01*
X160255042Y-107552404D01*
X160194777Y-107420442D01*
X160194774Y-107420438D01*
X160099773Y-107310801D01*
X159977736Y-107232373D01*
X159977727Y-107232369D01*
X159838538Y-107191500D01*
X159838536Y-107191500D01*
X159693464Y-107191500D01*
X159693462Y-107191500D01*
X159554272Y-107232369D01*
X159554263Y-107232373D01*
X159432226Y-107310801D01*
X159337225Y-107420438D01*
X159337222Y-107420443D01*
X159276958Y-107552402D01*
X159276957Y-107552405D01*
X159256312Y-107696000D01*
X109170707Y-107696000D01*
X109183215Y-107569000D01*
X109181580Y-107552404D01*
X109168584Y-107420443D01*
X109164400Y-107377965D01*
X109108677Y-107194271D01*
X109037443Y-107061000D01*
X144905312Y-107061000D01*
X144925957Y-107204594D01*
X144925958Y-107204597D01*
X144986222Y-107336556D01*
X144986225Y-107336561D01*
X145081226Y-107446198D01*
X145203263Y-107524626D01*
X145203268Y-107524629D01*
X145297866Y-107552405D01*
X145342461Y-107565499D01*
X145342463Y-107565500D01*
X145342464Y-107565500D01*
X145487537Y-107565500D01*
X145487537Y-107565499D01*
X145626732Y-107524629D01*
X145672535Y-107495192D01*
X145748773Y-107446198D01*
X145771094Y-107420438D01*
X145843777Y-107336558D01*
X145904042Y-107204596D01*
X145924688Y-107061000D01*
X145904042Y-106917404D01*
X145843777Y-106785442D01*
X145817236Y-106754812D01*
X145748773Y-106675801D01*
X145626736Y-106597373D01*
X145626727Y-106597369D01*
X145487538Y-106556500D01*
X145487536Y-106556500D01*
X145342464Y-106556500D01*
X145342462Y-106556500D01*
X145203272Y-106597369D01*
X145203263Y-106597373D01*
X145081226Y-106675801D01*
X144986225Y-106785438D01*
X144986222Y-106785443D01*
X144925958Y-106917402D01*
X144925957Y-106917405D01*
X144905312Y-107061000D01*
X109037443Y-107061000D01*
X109035572Y-107057500D01*
X109018191Y-107024982D01*
X109018187Y-107024976D01*
X109011337Y-107016629D01*
X108896410Y-106876590D01*
X108748023Y-106754812D01*
X108748017Y-106754808D01*
X108578734Y-106664325D01*
X108578731Y-106664324D01*
X108578729Y-106664323D01*
X108477457Y-106633602D01*
X108395033Y-106608599D01*
X108204000Y-106589785D01*
X108012966Y-106608599D01*
X107866970Y-106652887D01*
X107829271Y-106664323D01*
X107829270Y-106664323D01*
X107829265Y-106664325D01*
X107659982Y-106754808D01*
X107659976Y-106754812D01*
X107511590Y-106876590D01*
X107389812Y-107024976D01*
X107389808Y-107024982D01*
X107299325Y-107194265D01*
X107243599Y-107377966D01*
X107224785Y-107568999D01*
X98515215Y-107568999D01*
X98513580Y-107552404D01*
X98500584Y-107420443D01*
X98496400Y-107377965D01*
X98440677Y-107194271D01*
X98367572Y-107057500D01*
X98350191Y-107024982D01*
X98350187Y-107024976D01*
X98343337Y-107016629D01*
X98228410Y-106876590D01*
X98080023Y-106754812D01*
X98080017Y-106754808D01*
X97910734Y-106664325D01*
X97910731Y-106664324D01*
X97910729Y-106664323D01*
X97809457Y-106633602D01*
X97727033Y-106608599D01*
X97536000Y-106589785D01*
X97344966Y-106608599D01*
X97198970Y-106652887D01*
X97161271Y-106664323D01*
X97161270Y-106664323D01*
X97161265Y-106664325D01*
X96991982Y-106754808D01*
X96991976Y-106754812D01*
X96843590Y-106876590D01*
X96721812Y-107024976D01*
X96721808Y-107024982D01*
X96631325Y-107194265D01*
X96575599Y-107377966D01*
X96556785Y-107568999D01*
X96393000Y-107568999D01*
X96393000Y-106426000D01*
X113532312Y-106426000D01*
X113552957Y-106569594D01*
X113552958Y-106569597D01*
X113613222Y-106701556D01*
X113613225Y-106701561D01*
X113708226Y-106811198D01*
X113830263Y-106889626D01*
X113830268Y-106889629D01*
X113924866Y-106917405D01*
X113969461Y-106930499D01*
X113969463Y-106930500D01*
X113969464Y-106930500D01*
X114114537Y-106930500D01*
X114114537Y-106930499D01*
X114253732Y-106889629D01*
X114299535Y-106860192D01*
X114375773Y-106811198D01*
X114424632Y-106754812D01*
X114470777Y-106701558D01*
X114531042Y-106569596D01*
X114533428Y-106553000D01*
X117473312Y-106553000D01*
X117493957Y-106696594D01*
X117493958Y-106696597D01*
X117554222Y-106828556D01*
X117554225Y-106828561D01*
X117649226Y-106938198D01*
X117771263Y-107016626D01*
X117771268Y-107016629D01*
X117910461Y-107057499D01*
X117910463Y-107057500D01*
X117910464Y-107057500D01*
X118055537Y-107057500D01*
X118055537Y-107057499D01*
X118194732Y-107016629D01*
X118240535Y-106987192D01*
X118316773Y-106938198D01*
X118316775Y-106938196D01*
X118411777Y-106828558D01*
X118472042Y-106696596D01*
X118492688Y-106553000D01*
X134618312Y-106553000D01*
X134638957Y-106696594D01*
X134638958Y-106696597D01*
X134699222Y-106828556D01*
X134699225Y-106828561D01*
X134794226Y-106938198D01*
X134916263Y-107016626D01*
X134916268Y-107016629D01*
X135055461Y-107057499D01*
X135055463Y-107057500D01*
X135055464Y-107057500D01*
X135200537Y-107057500D01*
X135200537Y-107057499D01*
X135339732Y-107016629D01*
X135385535Y-106987192D01*
X135461773Y-106938198D01*
X135461775Y-106938196D01*
X135556777Y-106828558D01*
X135617042Y-106696596D01*
X135637688Y-106553000D01*
X135617042Y-106409404D01*
X135556777Y-106277442D01*
X135556774Y-106277438D01*
X135461773Y-106167801D01*
X135339736Y-106089373D01*
X135339727Y-106089369D01*
X135200538Y-106048500D01*
X135200536Y-106048500D01*
X135055464Y-106048500D01*
X135055462Y-106048500D01*
X134916272Y-106089369D01*
X134916263Y-106089373D01*
X134794226Y-106167801D01*
X134699225Y-106277438D01*
X134699222Y-106277443D01*
X134638958Y-106409402D01*
X134638957Y-106409405D01*
X134618312Y-106553000D01*
X118492688Y-106553000D01*
X118472042Y-106409404D01*
X118411777Y-106277442D01*
X118411774Y-106277438D01*
X118316773Y-106167801D01*
X118194736Y-106089373D01*
X118194727Y-106089369D01*
X118055538Y-106048500D01*
X118055536Y-106048500D01*
X117910464Y-106048500D01*
X117910462Y-106048500D01*
X117771272Y-106089369D01*
X117771263Y-106089373D01*
X117649226Y-106167801D01*
X117554225Y-106277438D01*
X117554222Y-106277443D01*
X117493958Y-106409402D01*
X117493957Y-106409405D01*
X117473312Y-106553000D01*
X114533428Y-106553000D01*
X114551688Y-106426000D01*
X114531042Y-106282404D01*
X114470777Y-106150442D01*
X114470774Y-106150438D01*
X114375773Y-106040801D01*
X114253736Y-105962373D01*
X114253727Y-105962369D01*
X114114538Y-105921500D01*
X114114536Y-105921500D01*
X113969464Y-105921500D01*
X113969462Y-105921500D01*
X113830272Y-105962369D01*
X113830263Y-105962373D01*
X113708226Y-106040801D01*
X113613225Y-106150438D01*
X113613222Y-106150443D01*
X113552958Y-106282402D01*
X113552957Y-106282405D01*
X113532312Y-106426000D01*
X96393000Y-106426000D01*
X96393000Y-105028999D01*
X109764785Y-105028999D01*
X109764785Y-105029000D01*
X109783599Y-105220033D01*
X109839325Y-105403734D01*
X109929808Y-105573017D01*
X109929812Y-105573023D01*
X110051590Y-105721410D01*
X110199977Y-105843188D01*
X110199979Y-105843189D01*
X110199982Y-105843191D01*
X110346489Y-105921500D01*
X110369271Y-105933677D01*
X110552965Y-105989400D01*
X110744000Y-106008215D01*
X110935035Y-105989400D01*
X111118729Y-105933677D01*
X111288023Y-105843188D01*
X111436410Y-105721410D01*
X111558188Y-105573023D01*
X111648677Y-105403729D01*
X111704400Y-105220035D01*
X111723215Y-105029000D01*
X136833312Y-105029000D01*
X136853957Y-105172594D01*
X136853958Y-105172597D01*
X136914222Y-105304556D01*
X136914225Y-105304561D01*
X137009226Y-105414198D01*
X137131263Y-105492626D01*
X137131268Y-105492629D01*
X137270461Y-105533499D01*
X137270463Y-105533500D01*
X137270464Y-105533500D01*
X137415537Y-105533500D01*
X137415537Y-105533499D01*
X137554732Y-105492629D01*
X137600535Y-105463192D01*
X137676773Y-105414198D01*
X137685840Y-105403734D01*
X137771777Y-105304558D01*
X137832042Y-105172596D01*
X137852688Y-105029000D01*
X137832042Y-104885404D01*
X137771777Y-104753442D01*
X137728596Y-104703608D01*
X138133312Y-104703608D01*
X138153957Y-104847202D01*
X138153958Y-104847205D01*
X138214222Y-104979164D01*
X138214225Y-104979169D01*
X138309226Y-105088806D01*
X138431263Y-105167234D01*
X138431268Y-105167237D01*
X138449523Y-105172597D01*
X138570461Y-105208107D01*
X138570463Y-105208108D01*
X138570464Y-105208108D01*
X138715537Y-105208108D01*
X138715537Y-105208107D01*
X138854732Y-105167237D01*
X138900535Y-105137800D01*
X138976773Y-105088806D01*
X138976775Y-105088804D01*
X139028596Y-105029000D01*
X152271312Y-105029000D01*
X152291957Y-105172594D01*
X152291958Y-105172597D01*
X152352222Y-105304556D01*
X152352225Y-105304561D01*
X152447226Y-105414198D01*
X152569263Y-105492626D01*
X152569268Y-105492629D01*
X152708461Y-105533499D01*
X152708463Y-105533500D01*
X152708464Y-105533500D01*
X152853537Y-105533500D01*
X152853537Y-105533499D01*
X152992732Y-105492629D01*
X153038535Y-105463192D01*
X153114773Y-105414198D01*
X153123840Y-105403734D01*
X153209777Y-105304558D01*
X153270042Y-105172596D01*
X153290688Y-105029000D01*
X153270042Y-104885404D01*
X153209777Y-104753442D01*
X153166596Y-104703608D01*
X153114773Y-104643801D01*
X152992736Y-104565373D01*
X152992727Y-104565369D01*
X152853538Y-104524500D01*
X152853536Y-104524500D01*
X152708464Y-104524500D01*
X152708462Y-104524500D01*
X152569272Y-104565369D01*
X152569263Y-104565373D01*
X152447226Y-104643801D01*
X152352225Y-104753438D01*
X152352222Y-104753443D01*
X152291958Y-104885402D01*
X152291957Y-104885405D01*
X152271312Y-105029000D01*
X139028596Y-105029000D01*
X139071777Y-104979166D01*
X139132042Y-104847204D01*
X139152688Y-104703608D01*
X139132042Y-104560012D01*
X139114226Y-104521000D01*
X145667312Y-104521000D01*
X145687957Y-104664594D01*
X145687958Y-104664597D01*
X145748222Y-104796556D01*
X145748225Y-104796561D01*
X145843226Y-104906198D01*
X145956764Y-104979164D01*
X145965268Y-104984629D01*
X146104461Y-105025499D01*
X146104463Y-105025500D01*
X146104464Y-105025500D01*
X146249537Y-105025500D01*
X146249537Y-105025499D01*
X146388732Y-104984629D01*
X146434535Y-104955192D01*
X146510773Y-104906198D01*
X146510775Y-104906196D01*
X146605777Y-104796558D01*
X146666042Y-104664596D01*
X146686688Y-104521000D01*
X146666042Y-104377404D01*
X146605777Y-104245442D01*
X146601045Y-104239981D01*
X146510773Y-104135801D01*
X146388736Y-104057373D01*
X146388727Y-104057369D01*
X146249538Y-104016500D01*
X146249536Y-104016500D01*
X146104464Y-104016500D01*
X146104462Y-104016500D01*
X145965272Y-104057369D01*
X145965263Y-104057373D01*
X145843226Y-104135801D01*
X145748225Y-104245438D01*
X145748222Y-104245443D01*
X145687958Y-104377402D01*
X145687957Y-104377405D01*
X145667312Y-104521000D01*
X139114226Y-104521000D01*
X139071777Y-104428050D01*
X139027892Y-104377404D01*
X138976773Y-104318409D01*
X138854736Y-104239981D01*
X138854727Y-104239977D01*
X138715538Y-104199108D01*
X138715536Y-104199108D01*
X138570464Y-104199108D01*
X138570462Y-104199108D01*
X138431272Y-104239977D01*
X138431263Y-104239981D01*
X138309226Y-104318409D01*
X138214225Y-104428046D01*
X138214222Y-104428051D01*
X138153958Y-104560010D01*
X138153957Y-104560013D01*
X138133312Y-104703608D01*
X137728596Y-104703608D01*
X137676773Y-104643801D01*
X137554736Y-104565373D01*
X137554727Y-104565369D01*
X137415538Y-104524500D01*
X137415536Y-104524500D01*
X137270464Y-104524500D01*
X137270462Y-104524500D01*
X137131272Y-104565369D01*
X137131263Y-104565373D01*
X137009226Y-104643801D01*
X136914225Y-104753438D01*
X136914222Y-104753443D01*
X136853958Y-104885402D01*
X136853957Y-104885405D01*
X136833312Y-105029000D01*
X111723215Y-105029000D01*
X111704400Y-104837965D01*
X111648677Y-104654271D01*
X111648674Y-104654265D01*
X111558191Y-104484982D01*
X111558187Y-104484976D01*
X111511469Y-104428050D01*
X111436410Y-104336590D01*
X111288023Y-104214812D01*
X111288017Y-104214808D01*
X111118734Y-104124325D01*
X111118731Y-104124324D01*
X111118729Y-104124323D01*
X111017457Y-104093602D01*
X110935033Y-104068599D01*
X110744000Y-104049785D01*
X110552966Y-104068599D01*
X110406970Y-104112887D01*
X110369271Y-104124323D01*
X110369270Y-104124323D01*
X110369265Y-104124325D01*
X110199982Y-104214808D01*
X110199976Y-104214812D01*
X110051590Y-104336590D01*
X109929812Y-104484976D01*
X109929808Y-104484982D01*
X109839325Y-104654265D01*
X109783599Y-104837966D01*
X109764785Y-105028999D01*
X96393000Y-105028999D01*
X96393000Y-102488999D01*
X96556785Y-102488999D01*
X96556785Y-102489000D01*
X96575599Y-102680033D01*
X96599731Y-102759585D01*
X96627905Y-102852462D01*
X96631325Y-102863734D01*
X96721808Y-103033017D01*
X96721812Y-103033023D01*
X96843590Y-103181410D01*
X96991977Y-103303188D01*
X96991979Y-103303189D01*
X96991982Y-103303191D01*
X97048928Y-103333629D01*
X97161271Y-103393677D01*
X97344965Y-103449400D01*
X97536000Y-103468215D01*
X97727035Y-103449400D01*
X97910729Y-103393677D01*
X98080023Y-103303188D01*
X98228410Y-103181410D01*
X98350188Y-103033023D01*
X98440677Y-102863729D01*
X98496400Y-102680035D01*
X98515215Y-102489000D01*
X98515215Y-102488999D01*
X107224785Y-102488999D01*
X107224785Y-102489000D01*
X107243599Y-102680033D01*
X107267731Y-102759585D01*
X107295905Y-102852462D01*
X107299325Y-102863734D01*
X107389808Y-103033017D01*
X107389812Y-103033023D01*
X107511590Y-103181410D01*
X107659977Y-103303188D01*
X107659979Y-103303189D01*
X107659982Y-103303191D01*
X107716928Y-103333629D01*
X107829271Y-103393677D01*
X108012965Y-103449400D01*
X108204000Y-103468215D01*
X108395035Y-103449400D01*
X108578729Y-103393677D01*
X108748023Y-103303188D01*
X108896410Y-103181410D01*
X109018188Y-103033023D01*
X109105325Y-102870000D01*
X134237312Y-102870000D01*
X134257957Y-103013594D01*
X134257958Y-103013597D01*
X134318222Y-103145556D01*
X134318225Y-103145561D01*
X134413226Y-103255198D01*
X134529238Y-103329754D01*
X134535268Y-103333629D01*
X134674461Y-103374499D01*
X134674463Y-103374500D01*
X134674464Y-103374500D01*
X134819537Y-103374500D01*
X134819537Y-103374499D01*
X134958732Y-103333629D01*
X135006100Y-103303187D01*
X135080773Y-103255198D01*
X135175774Y-103145561D01*
X135175777Y-103145558D01*
X135236042Y-103013596D01*
X135256688Y-102870000D01*
X135236042Y-102726404D01*
X135175777Y-102594442D01*
X135152464Y-102567537D01*
X135080773Y-102484801D01*
X134958736Y-102406373D01*
X134958727Y-102406369D01*
X134819538Y-102365500D01*
X134819536Y-102365500D01*
X134674464Y-102365500D01*
X134674462Y-102365500D01*
X134535272Y-102406369D01*
X134535263Y-102406373D01*
X134413226Y-102484801D01*
X134318225Y-102594438D01*
X134318222Y-102594443D01*
X134257958Y-102726402D01*
X134257957Y-102726405D01*
X134237312Y-102870000D01*
X109105325Y-102870000D01*
X109108677Y-102863729D01*
X109164400Y-102680035D01*
X109183215Y-102489000D01*
X109182801Y-102484801D01*
X109171120Y-102366196D01*
X109164400Y-102297965D01*
X109108677Y-102114271D01*
X109095839Y-102090252D01*
X109037443Y-101981000D01*
X113536312Y-101981000D01*
X113556957Y-102124594D01*
X113556958Y-102124597D01*
X113617222Y-102256556D01*
X113617225Y-102256561D01*
X113712226Y-102366198D01*
X113834263Y-102444626D01*
X113834268Y-102444629D01*
X113971094Y-102484804D01*
X113973461Y-102485499D01*
X113973463Y-102485500D01*
X113973464Y-102485500D01*
X114118537Y-102485500D01*
X114118537Y-102485499D01*
X114257732Y-102444629D01*
X114317265Y-102406369D01*
X114379773Y-102366198D01*
X114380378Y-102365500D01*
X114474777Y-102256558D01*
X114535042Y-102124596D01*
X114555688Y-101981000D01*
X125982312Y-101981000D01*
X126002957Y-102124594D01*
X126002958Y-102124597D01*
X126063222Y-102256556D01*
X126063225Y-102256561D01*
X126158226Y-102366198D01*
X126280263Y-102444626D01*
X126280268Y-102444629D01*
X126417094Y-102484804D01*
X126419461Y-102485499D01*
X126419463Y-102485500D01*
X126419464Y-102485500D01*
X126564537Y-102485500D01*
X126564537Y-102485499D01*
X126703732Y-102444629D01*
X126763265Y-102406369D01*
X126825773Y-102366198D01*
X126826378Y-102365500D01*
X126920777Y-102256558D01*
X126981042Y-102124596D01*
X127001688Y-101981000D01*
X126981042Y-101837404D01*
X126920777Y-101705442D01*
X126920774Y-101705438D01*
X126825773Y-101595801D01*
X126703736Y-101517373D01*
X126703727Y-101517369D01*
X126564538Y-101476500D01*
X126564536Y-101476500D01*
X126419464Y-101476500D01*
X126419462Y-101476500D01*
X126280272Y-101517369D01*
X126280263Y-101517373D01*
X126158226Y-101595801D01*
X126063225Y-101705438D01*
X126063222Y-101705443D01*
X126002958Y-101837402D01*
X126002957Y-101837405D01*
X125982312Y-101981000D01*
X114555688Y-101981000D01*
X114535042Y-101837404D01*
X114474777Y-101705442D01*
X114474774Y-101705438D01*
X114379773Y-101595801D01*
X114257736Y-101517373D01*
X114257727Y-101517369D01*
X114118538Y-101476500D01*
X114118536Y-101476500D01*
X113973464Y-101476500D01*
X113973462Y-101476500D01*
X113834272Y-101517369D01*
X113834263Y-101517373D01*
X113712226Y-101595801D01*
X113617225Y-101705438D01*
X113617222Y-101705443D01*
X113556958Y-101837402D01*
X113556957Y-101837405D01*
X113536312Y-101981000D01*
X109037443Y-101981000D01*
X109018191Y-101944982D01*
X109018187Y-101944976D01*
X108989483Y-101910000D01*
X108896410Y-101796590D01*
X108748023Y-101674812D01*
X108748017Y-101674808D01*
X108578734Y-101584325D01*
X108578731Y-101584324D01*
X108578729Y-101584323D01*
X108477457Y-101553602D01*
X108395033Y-101528599D01*
X108204000Y-101509785D01*
X108012966Y-101528599D01*
X107894160Y-101564639D01*
X107829271Y-101584323D01*
X107829270Y-101584323D01*
X107829265Y-101584325D01*
X107659982Y-101674808D01*
X107659976Y-101674812D01*
X107511590Y-101796590D01*
X107389812Y-101944976D01*
X107389808Y-101944982D01*
X107299325Y-102114265D01*
X107243599Y-102297966D01*
X107224785Y-102488999D01*
X98515215Y-102488999D01*
X98514801Y-102484801D01*
X98503120Y-102366196D01*
X98496400Y-102297965D01*
X98440677Y-102114271D01*
X98427839Y-102090252D01*
X98350191Y-101944982D01*
X98350187Y-101944976D01*
X98321483Y-101910000D01*
X98275525Y-101854000D01*
X104209312Y-101854000D01*
X104229957Y-101997594D01*
X104229958Y-101997597D01*
X104290222Y-102129556D01*
X104290225Y-102129561D01*
X104385226Y-102239198D01*
X104507263Y-102317626D01*
X104507268Y-102317629D01*
X104646461Y-102358499D01*
X104646463Y-102358500D01*
X104646464Y-102358500D01*
X104791537Y-102358500D01*
X104791537Y-102358499D01*
X104930732Y-102317629D01*
X104976535Y-102288192D01*
X105052773Y-102239198D01*
X105056411Y-102235000D01*
X105147777Y-102129558D01*
X105208042Y-101997596D01*
X105228688Y-101854000D01*
X105208042Y-101710404D01*
X105147777Y-101578442D01*
X105146384Y-101576834D01*
X105052773Y-101468801D01*
X104930736Y-101390373D01*
X104930727Y-101390369D01*
X104791538Y-101349500D01*
X104791536Y-101349500D01*
X104646464Y-101349500D01*
X104646462Y-101349500D01*
X104507272Y-101390369D01*
X104507263Y-101390373D01*
X104385226Y-101468801D01*
X104290225Y-101578438D01*
X104290222Y-101578443D01*
X104229958Y-101710402D01*
X104229957Y-101710405D01*
X104209312Y-101854000D01*
X98275525Y-101854000D01*
X98228410Y-101796590D01*
X98080023Y-101674812D01*
X98080017Y-101674808D01*
X97910734Y-101584325D01*
X97910731Y-101584324D01*
X97910729Y-101584323D01*
X97809457Y-101553602D01*
X97727033Y-101528599D01*
X97536000Y-101509785D01*
X97344966Y-101528599D01*
X97226160Y-101564639D01*
X97161271Y-101584323D01*
X97161270Y-101584323D01*
X97161265Y-101584325D01*
X96991982Y-101674808D01*
X96991976Y-101674812D01*
X96843590Y-101796590D01*
X96721812Y-101944976D01*
X96721808Y-101944982D01*
X96631325Y-102114265D01*
X96575599Y-102297966D01*
X96556785Y-102488999D01*
X96393000Y-102488999D01*
X96393000Y-101284998D01*
X136158715Y-101284998D01*
X136158715Y-101285001D01*
X136177770Y-101429747D01*
X136177773Y-101429757D01*
X136204614Y-101494558D01*
X136233645Y-101564643D01*
X136322526Y-101680474D01*
X136361546Y-101710415D01*
X136385463Y-101751842D01*
X136373083Y-101798048D01*
X136361548Y-101809582D01*
X136350693Y-101817911D01*
X136322527Y-101839524D01*
X136233642Y-101955362D01*
X136177773Y-102090242D01*
X136177770Y-102090252D01*
X136158715Y-102234998D01*
X136158715Y-102235001D01*
X136177770Y-102379747D01*
X136177773Y-102379757D01*
X136221573Y-102485500D01*
X136233645Y-102514643D01*
X136322526Y-102630474D01*
X136361546Y-102660415D01*
X136385463Y-102701842D01*
X136373083Y-102748048D01*
X136361548Y-102759582D01*
X136350693Y-102767911D01*
X136322527Y-102789524D01*
X136233642Y-102905362D01*
X136177773Y-103040242D01*
X136177770Y-103040252D01*
X136158715Y-103184998D01*
X136158715Y-103185001D01*
X136177770Y-103329747D01*
X136177773Y-103329757D01*
X136204248Y-103393674D01*
X136233645Y-103464643D01*
X136322526Y-103580474D01*
X136438357Y-103669355D01*
X136573246Y-103725228D01*
X136573250Y-103725228D01*
X136573252Y-103725229D01*
X136717998Y-103744285D01*
X136718000Y-103744285D01*
X136718002Y-103744285D01*
X136862747Y-103725229D01*
X136862747Y-103725228D01*
X136862754Y-103725228D01*
X136997643Y-103669355D01*
X137113474Y-103580474D01*
X137143415Y-103541453D01*
X137184842Y-103517537D01*
X137231048Y-103529917D01*
X137242584Y-103541453D01*
X137272526Y-103580474D01*
X137388357Y-103669355D01*
X137523246Y-103725228D01*
X137523250Y-103725228D01*
X137523252Y-103725229D01*
X137667998Y-103744285D01*
X137668000Y-103744285D01*
X137668002Y-103744285D01*
X137812747Y-103725229D01*
X137812747Y-103725228D01*
X137812754Y-103725228D01*
X137947643Y-103669355D01*
X138063474Y-103580474D01*
X138093415Y-103541453D01*
X138134842Y-103517537D01*
X138181048Y-103529917D01*
X138192584Y-103541453D01*
X138222526Y-103580474D01*
X138338357Y-103669355D01*
X138473246Y-103725228D01*
X138473250Y-103725228D01*
X138473252Y-103725229D01*
X138617998Y-103744285D01*
X138618000Y-103744285D01*
X138618002Y-103744285D01*
X138762747Y-103725229D01*
X138762747Y-103725228D01*
X138762754Y-103725228D01*
X138897643Y-103669355D01*
X139013474Y-103580474D01*
X139102355Y-103464643D01*
X139158228Y-103329754D01*
X139161725Y-103303191D01*
X139177285Y-103185001D01*
X139177285Y-103184998D01*
X139158229Y-103040252D01*
X139158228Y-103040250D01*
X139158228Y-103040246D01*
X139102355Y-102905358D01*
X139013474Y-102789526D01*
X138974453Y-102759584D01*
X138950537Y-102718158D01*
X138962917Y-102671952D01*
X138974454Y-102660415D01*
X139013474Y-102630474D01*
X139102355Y-102514643D01*
X139158228Y-102379754D01*
X139166407Y-102317626D01*
X139177285Y-102235001D01*
X139177285Y-102234998D01*
X139158229Y-102090252D01*
X139158228Y-102090250D01*
X139158228Y-102090246D01*
X139102355Y-101955358D01*
X139067551Y-101910000D01*
X139825312Y-101910000D01*
X139845957Y-102053594D01*
X139845958Y-102053597D01*
X139906222Y-102185556D01*
X139906225Y-102185561D01*
X140001226Y-102295198D01*
X140110619Y-102365500D01*
X140123268Y-102373629D01*
X140234772Y-102406369D01*
X140262461Y-102414499D01*
X140262463Y-102414500D01*
X140262464Y-102414500D01*
X140407537Y-102414500D01*
X140407537Y-102414499D01*
X140546732Y-102373629D01*
X140592535Y-102344192D01*
X140668773Y-102295198D01*
X140702255Y-102256558D01*
X140763777Y-102185558D01*
X140824042Y-102053596D01*
X140844688Y-101910000D01*
X140824042Y-101766404D01*
X140763777Y-101634442D01*
X140763774Y-101634438D01*
X140668773Y-101524801D01*
X140546736Y-101446373D01*
X140546727Y-101446369D01*
X140407538Y-101405500D01*
X140407536Y-101405500D01*
X140262464Y-101405500D01*
X140262462Y-101405500D01*
X140123272Y-101446369D01*
X140123263Y-101446373D01*
X140001226Y-101524801D01*
X139906225Y-101634438D01*
X139906222Y-101634443D01*
X139845958Y-101766402D01*
X139845957Y-101766405D01*
X139825312Y-101910000D01*
X139067551Y-101910000D01*
X139013474Y-101839526D01*
X138974453Y-101809584D01*
X138950537Y-101768158D01*
X138962917Y-101721952D01*
X138974454Y-101710415D01*
X138974467Y-101710405D01*
X139013474Y-101680474D01*
X139102355Y-101564643D01*
X139158228Y-101429754D01*
X139167069Y-101362597D01*
X139177285Y-101285001D01*
X139177285Y-101284998D01*
X139158229Y-101140252D01*
X139158228Y-101140250D01*
X139158228Y-101140246D01*
X139119865Y-101047630D01*
X139102357Y-101005362D01*
X139102356Y-101005361D01*
X139102355Y-101005358D01*
X139013474Y-100889526D01*
X139013472Y-100889525D01*
X139013472Y-100889524D01*
X138974417Y-100859556D01*
X138946325Y-100838000D01*
X145667312Y-100838000D01*
X145687957Y-100981594D01*
X145687958Y-100981597D01*
X145748222Y-101113556D01*
X145748225Y-101113561D01*
X145843226Y-101223198D01*
X145965263Y-101301626D01*
X145965268Y-101301629D01*
X146104461Y-101342499D01*
X146104463Y-101342500D01*
X146104464Y-101342500D01*
X146249537Y-101342500D01*
X146249537Y-101342499D01*
X146388732Y-101301629D01*
X146434535Y-101272192D01*
X146510773Y-101223198D01*
X146514411Y-101219000D01*
X146605777Y-101113558D01*
X146666042Y-100981596D01*
X146686688Y-100838000D01*
X146666042Y-100694404D01*
X146605777Y-100562442D01*
X146605774Y-100562438D01*
X146514411Y-100457000D01*
X152906312Y-100457000D01*
X152926957Y-100600594D01*
X152926958Y-100600597D01*
X152987221Y-100732555D01*
X152987223Y-100732558D01*
X153010110Y-100758972D01*
X153025216Y-100804360D01*
X153010110Y-100840828D01*
X152987223Y-100867241D01*
X152987221Y-100867244D01*
X152926958Y-100999202D01*
X152926957Y-100999205D01*
X152906312Y-101142800D01*
X152926957Y-101286394D01*
X152926958Y-101286397D01*
X152987222Y-101418356D01*
X152987225Y-101418361D01*
X153082226Y-101527998D01*
X153204263Y-101606426D01*
X153204268Y-101606429D01*
X153323554Y-101641454D01*
X153343461Y-101647299D01*
X153343463Y-101647300D01*
X153343464Y-101647300D01*
X153488537Y-101647300D01*
X153488537Y-101647299D01*
X153627732Y-101606429D01*
X153692758Y-101564639D01*
X153749773Y-101527998D01*
X153758980Y-101517373D01*
X153844777Y-101418358D01*
X153905042Y-101286396D01*
X153925688Y-101142800D01*
X153905042Y-100999204D01*
X153844777Y-100867242D01*
X153821888Y-100840827D01*
X153806782Y-100795442D01*
X153821887Y-100758973D01*
X153844777Y-100732558D01*
X153905042Y-100600596D01*
X153925688Y-100457000D01*
X156843312Y-100457000D01*
X156863957Y-100600594D01*
X156863958Y-100600597D01*
X156924222Y-100732556D01*
X156924225Y-100732561D01*
X156980123Y-100797071D01*
X156995230Y-100842459D01*
X156980123Y-100878929D01*
X156924225Y-100943438D01*
X156924222Y-100943443D01*
X156863958Y-101075402D01*
X156863957Y-101075405D01*
X156843312Y-101219000D01*
X156863957Y-101362594D01*
X156863958Y-101362597D01*
X156924222Y-101494556D01*
X156924225Y-101494561D01*
X157019226Y-101604198D01*
X157141263Y-101682626D01*
X157141268Y-101682629D01*
X157235866Y-101710405D01*
X157280461Y-101723499D01*
X157280463Y-101723500D01*
X157280464Y-101723500D01*
X157425537Y-101723500D01*
X157425537Y-101723499D01*
X157564732Y-101682629D01*
X157610535Y-101653192D01*
X157686773Y-101604198D01*
X157686775Y-101604196D01*
X157781777Y-101494558D01*
X157842042Y-101362596D01*
X157862688Y-101219000D01*
X157842042Y-101075404D01*
X157781777Y-100943442D01*
X157725874Y-100878927D01*
X157710768Y-100833542D01*
X157725874Y-100797072D01*
X157781777Y-100732558D01*
X157842042Y-100600596D01*
X157862688Y-100457000D01*
X157842042Y-100313404D01*
X157781777Y-100181442D01*
X157781774Y-100181438D01*
X157686773Y-100071801D01*
X157564736Y-99993373D01*
X157564727Y-99993369D01*
X157425538Y-99952500D01*
X157425536Y-99952500D01*
X157280464Y-99952500D01*
X157280462Y-99952500D01*
X157141272Y-99993369D01*
X157141263Y-99993373D01*
X157019226Y-100071801D01*
X156924225Y-100181438D01*
X156924222Y-100181443D01*
X156863958Y-100313402D01*
X156863957Y-100313405D01*
X156843312Y-100457000D01*
X153925688Y-100457000D01*
X153905042Y-100313404D01*
X153844777Y-100181442D01*
X153844774Y-100181438D01*
X153749773Y-100071801D01*
X153627736Y-99993373D01*
X153627727Y-99993369D01*
X153488538Y-99952500D01*
X153488536Y-99952500D01*
X153343464Y-99952500D01*
X153343462Y-99952500D01*
X153204272Y-99993369D01*
X153204263Y-99993373D01*
X153082226Y-100071801D01*
X152987225Y-100181438D01*
X152987222Y-100181443D01*
X152926958Y-100313402D01*
X152926957Y-100313405D01*
X152906312Y-100457000D01*
X146514411Y-100457000D01*
X146510773Y-100452801D01*
X146388736Y-100374373D01*
X146388727Y-100374369D01*
X146249538Y-100333500D01*
X146249536Y-100333500D01*
X146104464Y-100333500D01*
X146104462Y-100333500D01*
X145965272Y-100374369D01*
X145965263Y-100374373D01*
X145843226Y-100452801D01*
X145748225Y-100562438D01*
X145748222Y-100562443D01*
X145687958Y-100694402D01*
X145687957Y-100694405D01*
X145667312Y-100838000D01*
X138946325Y-100838000D01*
X138897643Y-100800645D01*
X138897639Y-100800643D01*
X138762757Y-100744773D01*
X138762747Y-100744770D01*
X138618002Y-100725715D01*
X138617998Y-100725715D01*
X138473252Y-100744770D01*
X138473242Y-100744773D01*
X138338360Y-100800643D01*
X138222524Y-100889526D01*
X138192584Y-100928545D01*
X138151157Y-100952462D01*
X138104952Y-100940081D01*
X138093416Y-100928545D01*
X138063476Y-100889528D01*
X138063474Y-100889527D01*
X138063474Y-100889526D01*
X137947643Y-100800645D01*
X137947639Y-100800643D01*
X137812757Y-100744773D01*
X137812747Y-100744770D01*
X137668002Y-100725715D01*
X137667998Y-100725715D01*
X137523252Y-100744770D01*
X137523242Y-100744773D01*
X137388360Y-100800643D01*
X137272524Y-100889526D01*
X137242584Y-100928545D01*
X137201157Y-100952462D01*
X137154952Y-100940081D01*
X137143416Y-100928545D01*
X137113476Y-100889528D01*
X137113474Y-100889527D01*
X137113474Y-100889526D01*
X136997643Y-100800645D01*
X136997639Y-100800643D01*
X136862757Y-100744773D01*
X136862747Y-100744770D01*
X136718002Y-100725715D01*
X136717998Y-100725715D01*
X136573252Y-100744770D01*
X136573242Y-100744773D01*
X136438360Y-100800643D01*
X136322525Y-100889525D01*
X136233643Y-101005360D01*
X136177773Y-101140242D01*
X136177770Y-101140252D01*
X136158715Y-101284998D01*
X96393000Y-101284998D01*
X96393000Y-100584000D01*
X113155312Y-100584000D01*
X113175957Y-100727594D01*
X113175958Y-100727597D01*
X113236222Y-100859556D01*
X113236225Y-100859561D01*
X113331226Y-100969198D01*
X113453263Y-101047626D01*
X113453268Y-101047629D01*
X113547866Y-101075405D01*
X113592461Y-101088499D01*
X113592463Y-101088500D01*
X113592464Y-101088500D01*
X113737537Y-101088500D01*
X113737537Y-101088499D01*
X113876732Y-101047629D01*
X113942500Y-101005362D01*
X113998773Y-100969198D01*
X114021094Y-100943439D01*
X114067810Y-100889526D01*
X114093766Y-100859571D01*
X114136541Y-100838159D01*
X114141000Y-100838000D01*
X116077999Y-100838000D01*
X116078000Y-100838000D01*
X116078000Y-100837999D01*
X116078171Y-100837828D01*
X116122364Y-100819521D01*
X116139969Y-100822052D01*
X116203915Y-100840828D01*
X116241963Y-100852000D01*
X116241964Y-100852000D01*
X116387037Y-100852000D01*
X116387037Y-100851999D01*
X116526232Y-100811129D01*
X116572035Y-100781692D01*
X116648273Y-100732698D01*
X116648393Y-100732560D01*
X116743277Y-100623058D01*
X116803542Y-100491096D01*
X116824188Y-100347500D01*
X116803542Y-100203904D01*
X116743277Y-100071942D01*
X116743274Y-100071938D01*
X116648273Y-99962301D01*
X116526236Y-99883873D01*
X116526227Y-99883869D01*
X116387038Y-99843000D01*
X116387036Y-99843000D01*
X116241964Y-99843000D01*
X116241962Y-99843000D01*
X116158108Y-99867621D01*
X116110547Y-99862508D01*
X116080532Y-99825261D01*
X116080409Y-99824409D01*
X116078000Y-99822000D01*
X114046000Y-99822000D01*
X114046000Y-100114692D01*
X114027694Y-100158886D01*
X113983500Y-100177192D01*
X113949710Y-100167271D01*
X113916150Y-100145703D01*
X113876732Y-100120371D01*
X113876729Y-100120370D01*
X113876727Y-100120369D01*
X113737538Y-100079500D01*
X113737536Y-100079500D01*
X113592464Y-100079500D01*
X113592462Y-100079500D01*
X113453272Y-100120369D01*
X113453263Y-100120373D01*
X113331226Y-100198801D01*
X113236225Y-100308438D01*
X113236222Y-100308443D01*
X113175958Y-100440402D01*
X113175957Y-100440405D01*
X113155312Y-100584000D01*
X96393000Y-100584000D01*
X96393000Y-99314000D01*
X134999312Y-99314000D01*
X135019957Y-99457594D01*
X135019958Y-99457597D01*
X135080222Y-99589556D01*
X135080225Y-99589561D01*
X135175226Y-99699198D01*
X135297263Y-99777626D01*
X135297268Y-99777629D01*
X135436461Y-99818499D01*
X135436463Y-99818500D01*
X135436464Y-99818500D01*
X135581537Y-99818500D01*
X135581537Y-99818499D01*
X135720732Y-99777629D01*
X135766535Y-99748192D01*
X135842773Y-99699198D01*
X135846411Y-99695000D01*
X135937777Y-99589558D01*
X135998042Y-99457596D01*
X136000428Y-99441000D01*
X136833312Y-99441000D01*
X136853957Y-99584594D01*
X136853958Y-99584597D01*
X136914222Y-99716556D01*
X136914225Y-99716561D01*
X137009226Y-99826198D01*
X137098971Y-99883873D01*
X137131268Y-99904629D01*
X137270461Y-99945499D01*
X137270463Y-99945500D01*
X137270464Y-99945500D01*
X137415537Y-99945500D01*
X137415537Y-99945499D01*
X137554732Y-99904629D01*
X137620273Y-99862508D01*
X137676773Y-99826198D01*
X137680411Y-99822000D01*
X137771777Y-99716558D01*
X137781622Y-99695000D01*
X140333312Y-99695000D01*
X140353957Y-99838594D01*
X140353958Y-99838597D01*
X140414222Y-99970556D01*
X140414225Y-99970561D01*
X140509226Y-100080198D01*
X140631263Y-100158626D01*
X140631268Y-100158629D01*
X140768094Y-100198804D01*
X140770461Y-100199499D01*
X140770463Y-100199500D01*
X140770464Y-100199500D01*
X140915537Y-100199500D01*
X140915537Y-100199499D01*
X141054732Y-100158629D01*
X141123099Y-100114692D01*
X141176773Y-100080198D01*
X141177378Y-100079500D01*
X141271777Y-99970558D01*
X141332042Y-99838596D01*
X141334428Y-99822000D01*
X148588312Y-99822000D01*
X148608957Y-99965594D01*
X148608958Y-99965597D01*
X148669222Y-100097556D01*
X148669225Y-100097561D01*
X148764226Y-100207198D01*
X148886263Y-100285626D01*
X148886268Y-100285629D01*
X148980866Y-100313405D01*
X149025461Y-100326499D01*
X149025463Y-100326500D01*
X149025464Y-100326500D01*
X149170537Y-100326500D01*
X149170537Y-100326499D01*
X149309732Y-100285629D01*
X149360030Y-100253304D01*
X149431773Y-100207198D01*
X149431775Y-100207196D01*
X149526777Y-100097558D01*
X149587042Y-99965596D01*
X149607688Y-99822000D01*
X149587042Y-99678404D01*
X149536622Y-99568000D01*
X151509312Y-99568000D01*
X151529957Y-99711594D01*
X151529958Y-99711597D01*
X151590222Y-99843556D01*
X151590225Y-99843561D01*
X151685226Y-99953198D01*
X151807263Y-100031626D01*
X151807268Y-100031629D01*
X151944094Y-100071804D01*
X151946461Y-100072499D01*
X151946463Y-100072500D01*
X151946464Y-100072500D01*
X152091537Y-100072500D01*
X152091537Y-100072499D01*
X152230732Y-100031629D01*
X152290265Y-99993369D01*
X152352773Y-99953198D01*
X152353378Y-99952500D01*
X152447777Y-99843558D01*
X152508042Y-99711596D01*
X152528688Y-99568000D01*
X152508042Y-99424404D01*
X152447777Y-99292442D01*
X152447774Y-99292438D01*
X152352773Y-99182801D01*
X152230736Y-99104373D01*
X152230727Y-99104369D01*
X152091538Y-99063500D01*
X152091536Y-99063500D01*
X151946464Y-99063500D01*
X151946462Y-99063500D01*
X151807272Y-99104369D01*
X151807263Y-99104373D01*
X151685226Y-99182801D01*
X151590225Y-99292438D01*
X151590222Y-99292443D01*
X151529958Y-99424402D01*
X151529957Y-99424405D01*
X151509312Y-99568000D01*
X149536622Y-99568000D01*
X149526777Y-99546442D01*
X149526774Y-99546438D01*
X149431773Y-99436801D01*
X149309736Y-99358373D01*
X149309727Y-99358369D01*
X149170538Y-99317500D01*
X149170536Y-99317500D01*
X149025464Y-99317500D01*
X149025462Y-99317500D01*
X148886272Y-99358369D01*
X148886263Y-99358373D01*
X148764226Y-99436801D01*
X148669225Y-99546438D01*
X148669222Y-99546443D01*
X148608958Y-99678402D01*
X148608957Y-99678405D01*
X148588312Y-99822000D01*
X141334428Y-99822000D01*
X141352688Y-99695000D01*
X141332042Y-99551404D01*
X141271777Y-99419442D01*
X141271774Y-99419438D01*
X141176773Y-99309801D01*
X141054736Y-99231373D01*
X141054727Y-99231369D01*
X140915538Y-99190500D01*
X140915536Y-99190500D01*
X140770464Y-99190500D01*
X140770462Y-99190500D01*
X140631272Y-99231369D01*
X140631263Y-99231373D01*
X140509226Y-99309801D01*
X140414225Y-99419438D01*
X140414222Y-99419443D01*
X140353958Y-99551402D01*
X140353957Y-99551405D01*
X140333312Y-99695000D01*
X137781622Y-99695000D01*
X137832042Y-99584596D01*
X137852688Y-99441000D01*
X137832042Y-99297404D01*
X137771777Y-99165442D01*
X137771774Y-99165438D01*
X137676773Y-99055801D01*
X137554736Y-98977373D01*
X137554727Y-98977369D01*
X137415538Y-98936500D01*
X137415536Y-98936500D01*
X137270464Y-98936500D01*
X137270462Y-98936500D01*
X137131272Y-98977369D01*
X137131263Y-98977373D01*
X137009226Y-99055801D01*
X136914225Y-99165438D01*
X136914222Y-99165443D01*
X136853958Y-99297402D01*
X136853957Y-99297405D01*
X136833312Y-99441000D01*
X136000428Y-99441000D01*
X136018688Y-99314000D01*
X135998042Y-99170404D01*
X135937777Y-99038442D01*
X135937774Y-99038438D01*
X135842773Y-98928801D01*
X135720736Y-98850373D01*
X135720727Y-98850369D01*
X135581538Y-98809500D01*
X135581536Y-98809500D01*
X135436464Y-98809500D01*
X135436462Y-98809500D01*
X135297272Y-98850369D01*
X135297263Y-98850373D01*
X135175226Y-98928801D01*
X135080225Y-99038438D01*
X135080222Y-99038443D01*
X135019958Y-99170402D01*
X135019957Y-99170405D01*
X134999312Y-99314000D01*
X96393000Y-99314000D01*
X96393000Y-98425000D01*
X154303312Y-98425000D01*
X154323957Y-98568594D01*
X154323958Y-98568597D01*
X154384222Y-98700556D01*
X154384225Y-98700561D01*
X154479226Y-98810198D01*
X154601263Y-98888626D01*
X154601268Y-98888629D01*
X154738094Y-98928804D01*
X154740461Y-98929499D01*
X154740463Y-98929500D01*
X154740464Y-98929500D01*
X154885537Y-98929500D01*
X154885537Y-98929499D01*
X155024732Y-98888629D01*
X155084265Y-98850369D01*
X155146773Y-98810198D01*
X155241774Y-98700561D01*
X155241777Y-98700558D01*
X155302042Y-98568596D01*
X155322688Y-98425000D01*
X155302042Y-98281404D01*
X155241777Y-98149442D01*
X155241774Y-98149438D01*
X155146773Y-98039801D01*
X155024736Y-97961373D01*
X155024727Y-97961369D01*
X154885538Y-97920500D01*
X154885536Y-97920500D01*
X154740464Y-97920500D01*
X154740462Y-97920500D01*
X154601272Y-97961369D01*
X154601263Y-97961373D01*
X154479226Y-98039801D01*
X154384225Y-98149438D01*
X154384222Y-98149443D01*
X154323958Y-98281402D01*
X154323957Y-98281405D01*
X154303312Y-98425000D01*
X96393000Y-98425000D01*
X96393000Y-98298000D01*
X114046000Y-98298000D01*
X116078000Y-98298000D01*
X116078000Y-97282000D01*
X114046000Y-97282000D01*
X114046000Y-98298000D01*
X96393000Y-98298000D01*
X96393000Y-97663000D01*
X98296312Y-97663000D01*
X98316957Y-97806594D01*
X98316958Y-97806597D01*
X98377222Y-97938556D01*
X98377225Y-97938561D01*
X98472226Y-98048198D01*
X98594263Y-98126626D01*
X98594268Y-98126629D01*
X98671967Y-98149443D01*
X98733461Y-98167499D01*
X98733463Y-98167500D01*
X98733464Y-98167500D01*
X98878537Y-98167500D01*
X98878537Y-98167499D01*
X99017732Y-98126629D01*
X99063535Y-98097192D01*
X99139773Y-98048198D01*
X99139775Y-98048196D01*
X99234777Y-97938558D01*
X99295042Y-97806596D01*
X99315688Y-97663000D01*
X99295042Y-97519404D01*
X99234777Y-97387442D01*
X99234774Y-97387438D01*
X99139773Y-97277801D01*
X99017736Y-97199373D01*
X99017727Y-97199369D01*
X98878538Y-97158500D01*
X98878536Y-97158500D01*
X98733464Y-97158500D01*
X98733462Y-97158500D01*
X98594272Y-97199369D01*
X98594263Y-97199373D01*
X98472226Y-97277801D01*
X98377225Y-97387438D01*
X98377222Y-97387443D01*
X98316958Y-97519402D01*
X98316957Y-97519405D01*
X98296312Y-97663000D01*
X96393000Y-97663000D01*
X96393000Y-96672888D01*
X96411306Y-96628694D01*
X96628694Y-96411306D01*
X96672888Y-96393000D01*
X108041455Y-96393000D01*
X108085649Y-96411306D01*
X108103955Y-96455500D01*
X108085649Y-96499694D01*
X108075245Y-96508078D01*
X108063226Y-96515801D01*
X107968225Y-96625438D01*
X107968222Y-96625443D01*
X107907958Y-96757402D01*
X107907957Y-96757405D01*
X107887312Y-96901000D01*
X107907957Y-97044594D01*
X107907958Y-97044597D01*
X107968222Y-97176556D01*
X107968225Y-97176561D01*
X108063226Y-97286198D01*
X108185263Y-97364626D01*
X108185268Y-97364629D01*
X108262967Y-97387443D01*
X108324461Y-97405499D01*
X108324463Y-97405500D01*
X108324464Y-97405500D01*
X108469537Y-97405500D01*
X108469537Y-97405499D01*
X108608732Y-97364629D01*
X108654535Y-97335192D01*
X108730773Y-97286198D01*
X108734411Y-97282000D01*
X108825777Y-97176558D01*
X108886042Y-97044596D01*
X108888428Y-97028000D01*
X109787312Y-97028000D01*
X109807957Y-97171594D01*
X109807958Y-97171597D01*
X109868222Y-97303556D01*
X109868225Y-97303561D01*
X109963226Y-97413198D01*
X110085263Y-97491626D01*
X110085268Y-97491629D01*
X110179866Y-97519405D01*
X110224461Y-97532499D01*
X110224463Y-97532500D01*
X110224464Y-97532500D01*
X110369537Y-97532500D01*
X110369537Y-97532499D01*
X110508732Y-97491629D01*
X110554535Y-97462192D01*
X110630773Y-97413198D01*
X110630775Y-97413196D01*
X110725777Y-97303558D01*
X110786042Y-97171596D01*
X110806688Y-97028000D01*
X110786042Y-96884404D01*
X110725777Y-96752442D01*
X110725774Y-96752438D01*
X110630773Y-96642801D01*
X110508736Y-96564373D01*
X110508727Y-96564369D01*
X110369538Y-96523500D01*
X110369536Y-96523500D01*
X110224464Y-96523500D01*
X110224462Y-96523500D01*
X110085272Y-96564369D01*
X110085263Y-96564373D01*
X109963226Y-96642801D01*
X109868225Y-96752438D01*
X109868222Y-96752443D01*
X109807958Y-96884402D01*
X109807957Y-96884405D01*
X109787312Y-97028000D01*
X108888428Y-97028000D01*
X108906688Y-96901000D01*
X108886042Y-96757404D01*
X108825777Y-96625442D01*
X108825774Y-96625438D01*
X108730773Y-96515801D01*
X108718755Y-96508078D01*
X108691473Y-96468785D01*
X108699967Y-96421710D01*
X108739260Y-96394428D01*
X108752545Y-96393000D01*
X113030000Y-96393000D01*
X113284000Y-96393000D01*
X113284000Y-96219513D01*
X115823034Y-96219513D01*
X115843679Y-96363107D01*
X115843680Y-96363110D01*
X115903944Y-96495069D01*
X115903947Y-96495074D01*
X115998948Y-96604711D01*
X116120985Y-96683139D01*
X116120990Y-96683142D01*
X116260183Y-96724012D01*
X116260185Y-96724013D01*
X116260186Y-96724013D01*
X116405259Y-96724013D01*
X116405259Y-96724012D01*
X116544454Y-96683142D01*
X116607225Y-96642801D01*
X116666495Y-96604711D01*
X116736865Y-96523500D01*
X116761499Y-96495071D01*
X116821764Y-96363109D01*
X116842410Y-96219513D01*
X116821764Y-96075917D01*
X116792574Y-96012000D01*
X155827312Y-96012000D01*
X155847957Y-96155594D01*
X155847958Y-96155597D01*
X155908222Y-96287556D01*
X155908225Y-96287561D01*
X156003226Y-96397198D01*
X156125263Y-96475626D01*
X156125268Y-96475629D01*
X156262094Y-96515804D01*
X156264461Y-96516499D01*
X156264463Y-96516500D01*
X156264464Y-96516500D01*
X156409537Y-96516500D01*
X156409537Y-96516499D01*
X156548732Y-96475629D01*
X156648820Y-96411306D01*
X156670773Y-96397198D01*
X156674411Y-96393000D01*
X156765777Y-96287558D01*
X156826042Y-96155596D01*
X156846688Y-96012000D01*
X156826042Y-95868404D01*
X156765777Y-95736442D01*
X156693094Y-95652561D01*
X156670773Y-95626801D01*
X156548736Y-95548373D01*
X156548727Y-95548369D01*
X156409538Y-95507500D01*
X156409536Y-95507500D01*
X156264464Y-95507500D01*
X156264462Y-95507500D01*
X156125272Y-95548369D01*
X156125263Y-95548373D01*
X156003226Y-95626801D01*
X155908225Y-95736438D01*
X155908222Y-95736443D01*
X155847958Y-95868402D01*
X155847957Y-95868405D01*
X155827312Y-96012000D01*
X116792574Y-96012000D01*
X116761499Y-95943955D01*
X116761496Y-95943951D01*
X116666495Y-95834314D01*
X116544458Y-95755886D01*
X116544449Y-95755882D01*
X116405260Y-95715013D01*
X116405258Y-95715013D01*
X116260186Y-95715013D01*
X116260184Y-95715013D01*
X116120994Y-95755882D01*
X116120985Y-95755886D01*
X115998948Y-95834314D01*
X115903947Y-95943951D01*
X115903944Y-95943956D01*
X115843680Y-96075915D01*
X115843679Y-96075918D01*
X115823034Y-96219513D01*
X113284000Y-96219513D01*
X113284000Y-95377000D01*
X114298312Y-95377000D01*
X114318957Y-95520594D01*
X114318958Y-95520597D01*
X114379222Y-95652556D01*
X114379225Y-95652561D01*
X114474226Y-95762198D01*
X114586446Y-95834317D01*
X114596268Y-95840629D01*
X114690866Y-95868405D01*
X114735461Y-95881499D01*
X114735463Y-95881500D01*
X114735464Y-95881500D01*
X114880537Y-95881500D01*
X114880537Y-95881499D01*
X115019732Y-95840629D01*
X115065535Y-95811192D01*
X115141773Y-95762198D01*
X115145411Y-95758000D01*
X115236777Y-95652558D01*
X115297042Y-95520596D01*
X115317688Y-95377000D01*
X116838312Y-95377000D01*
X116858957Y-95520594D01*
X116858958Y-95520597D01*
X116919222Y-95652556D01*
X116919225Y-95652561D01*
X117014226Y-95762198D01*
X117126446Y-95834317D01*
X117136268Y-95840629D01*
X117230866Y-95868405D01*
X117275461Y-95881499D01*
X117275463Y-95881500D01*
X117275464Y-95881500D01*
X117420537Y-95881500D01*
X117420537Y-95881499D01*
X117559732Y-95840629D01*
X117605535Y-95811192D01*
X117681773Y-95762198D01*
X117685411Y-95758000D01*
X126492000Y-95758000D01*
X142494000Y-95758000D01*
X142748000Y-95758000D01*
X142748000Y-93853000D01*
X158748312Y-93853000D01*
X158768957Y-93996594D01*
X158768958Y-93996597D01*
X158829222Y-94128556D01*
X158829225Y-94128561D01*
X158924226Y-94238198D01*
X159046263Y-94316626D01*
X159046268Y-94316629D01*
X159185461Y-94357499D01*
X159185463Y-94357500D01*
X159185464Y-94357500D01*
X159330537Y-94357500D01*
X159330537Y-94357499D01*
X159469732Y-94316629D01*
X159515535Y-94287192D01*
X159591773Y-94238198D01*
X159686774Y-94128561D01*
X159686777Y-94128558D01*
X159747042Y-93996596D01*
X159767688Y-93853000D01*
X159747042Y-93709404D01*
X159686777Y-93577442D01*
X159686774Y-93577438D01*
X159591773Y-93467801D01*
X159469736Y-93389373D01*
X159469727Y-93389369D01*
X159330538Y-93348500D01*
X159330536Y-93348500D01*
X159185464Y-93348500D01*
X159185462Y-93348500D01*
X159046272Y-93389369D01*
X159046263Y-93389373D01*
X158924226Y-93467801D01*
X158829225Y-93577438D01*
X158829222Y-93577443D01*
X158768958Y-93709402D01*
X158768957Y-93709405D01*
X158748312Y-93853000D01*
X142748000Y-93853000D01*
X142748000Y-91567000D01*
X147826312Y-91567000D01*
X147846957Y-91710594D01*
X147846958Y-91710597D01*
X147907222Y-91842556D01*
X147907225Y-91842561D01*
X148002226Y-91952198D01*
X148124263Y-92030626D01*
X148124268Y-92030629D01*
X148213039Y-92056694D01*
X148263461Y-92071499D01*
X148263463Y-92071500D01*
X148263464Y-92071500D01*
X148408537Y-92071500D01*
X148408537Y-92071499D01*
X148547732Y-92030629D01*
X148593535Y-92001192D01*
X148669773Y-91952198D01*
X148764774Y-91842561D01*
X148764777Y-91842558D01*
X148825042Y-91710596D01*
X148845688Y-91567000D01*
X148836918Y-91506000D01*
X150257312Y-91506000D01*
X150277957Y-91649594D01*
X150277958Y-91649597D01*
X150338222Y-91781556D01*
X150338225Y-91781561D01*
X150433226Y-91891198D01*
X150555263Y-91969626D01*
X150555268Y-91969629D01*
X150694461Y-92010499D01*
X150694463Y-92010500D01*
X150694464Y-92010500D01*
X150839537Y-92010500D01*
X150839537Y-92010499D01*
X150978732Y-91969629D01*
X151024535Y-91940192D01*
X151100773Y-91891198D01*
X151100775Y-91891196D01*
X151195777Y-91781558D01*
X151256042Y-91649596D01*
X151276688Y-91506000D01*
X151256042Y-91362404D01*
X151195777Y-91230442D01*
X151153632Y-91181804D01*
X151100773Y-91120801D01*
X150978736Y-91042373D01*
X150978727Y-91042369D01*
X150839538Y-91001500D01*
X150839536Y-91001500D01*
X150694464Y-91001500D01*
X150694462Y-91001500D01*
X150555272Y-91042369D01*
X150555263Y-91042373D01*
X150433226Y-91120801D01*
X150338225Y-91230438D01*
X150338222Y-91230443D01*
X150277958Y-91362402D01*
X150277957Y-91362405D01*
X150257312Y-91506000D01*
X148836918Y-91506000D01*
X148825042Y-91423404D01*
X148764777Y-91291442D01*
X148764774Y-91291438D01*
X148669773Y-91181801D01*
X148547736Y-91103373D01*
X148547727Y-91103369D01*
X148408538Y-91062500D01*
X148408536Y-91062500D01*
X148263464Y-91062500D01*
X148263462Y-91062500D01*
X148124272Y-91103369D01*
X148124263Y-91103373D01*
X148002226Y-91181801D01*
X147907225Y-91291438D01*
X147907222Y-91291443D01*
X147846958Y-91423402D01*
X147846957Y-91423405D01*
X147826312Y-91567000D01*
X142748000Y-91567000D01*
X142748000Y-82042000D01*
X142494000Y-82042000D01*
X126746000Y-82042000D01*
X126492000Y-82042000D01*
X126492000Y-95758000D01*
X117685411Y-95758000D01*
X117776777Y-95652558D01*
X117837042Y-95520596D01*
X117857688Y-95377000D01*
X117837042Y-95233404D01*
X117776777Y-95101442D01*
X117776774Y-95101438D01*
X117681773Y-94991801D01*
X117559736Y-94913373D01*
X117559727Y-94913369D01*
X117420538Y-94872500D01*
X117420536Y-94872500D01*
X117275464Y-94872500D01*
X117275462Y-94872500D01*
X117136272Y-94913369D01*
X117136263Y-94913373D01*
X117014226Y-94991801D01*
X116919225Y-95101438D01*
X116919222Y-95101443D01*
X116858958Y-95233402D01*
X116858957Y-95233405D01*
X116838312Y-95377000D01*
X115317688Y-95377000D01*
X115297042Y-95233404D01*
X115236777Y-95101442D01*
X115236774Y-95101438D01*
X115141773Y-94991801D01*
X115019736Y-94913373D01*
X115019727Y-94913369D01*
X114880538Y-94872500D01*
X114880536Y-94872500D01*
X114735464Y-94872500D01*
X114735462Y-94872500D01*
X114596272Y-94913369D01*
X114596263Y-94913373D01*
X114474226Y-94991801D01*
X114379225Y-95101438D01*
X114379222Y-95101443D01*
X114318958Y-95233402D01*
X114318957Y-95233405D01*
X114298312Y-95377000D01*
X113284000Y-95377000D01*
X113284000Y-94869000D01*
X113284000Y-76988500D01*
X135734812Y-76988500D01*
X135755457Y-77132094D01*
X135755458Y-77132097D01*
X135815722Y-77264056D01*
X135815725Y-77264061D01*
X135910726Y-77373698D01*
X136032763Y-77452126D01*
X136032768Y-77452129D01*
X136171961Y-77492999D01*
X136171963Y-77493000D01*
X136171964Y-77493000D01*
X136317037Y-77493000D01*
X136317037Y-77492999D01*
X136456232Y-77452129D01*
X136502035Y-77422692D01*
X136578273Y-77373698D01*
X136673274Y-77264061D01*
X136673277Y-77264058D01*
X136733542Y-77132096D01*
X136754188Y-76988500D01*
X147164812Y-76988500D01*
X147185457Y-77132094D01*
X147185458Y-77132097D01*
X147245722Y-77264056D01*
X147245725Y-77264061D01*
X147340726Y-77373698D01*
X147462763Y-77452126D01*
X147462768Y-77452129D01*
X147601961Y-77492999D01*
X147601963Y-77493000D01*
X147601964Y-77493000D01*
X147747037Y-77493000D01*
X147747037Y-77492999D01*
X147886232Y-77452129D01*
X147932035Y-77422692D01*
X148008273Y-77373698D01*
X148103274Y-77264061D01*
X148103277Y-77264058D01*
X148163542Y-77132096D01*
X148184188Y-76988500D01*
X148163542Y-76844904D01*
X148103277Y-76712942D01*
X148103274Y-76712938D01*
X148008273Y-76603301D01*
X147886236Y-76524873D01*
X147886227Y-76524869D01*
X147747038Y-76484000D01*
X147747036Y-76484000D01*
X147601964Y-76484000D01*
X147601962Y-76484000D01*
X147462772Y-76524869D01*
X147462763Y-76524873D01*
X147340726Y-76603301D01*
X147245725Y-76712938D01*
X147245722Y-76712943D01*
X147185458Y-76844902D01*
X147185457Y-76844905D01*
X147164812Y-76988500D01*
X136754188Y-76988500D01*
X136733542Y-76844904D01*
X136673277Y-76712942D01*
X136673274Y-76712938D01*
X136578273Y-76603301D01*
X136456236Y-76524873D01*
X136456227Y-76524869D01*
X136317038Y-76484000D01*
X136317036Y-76484000D01*
X136171964Y-76484000D01*
X136171962Y-76484000D01*
X136032772Y-76524869D01*
X136032763Y-76524873D01*
X135910726Y-76603301D01*
X135815725Y-76712938D01*
X135815722Y-76712943D01*
X135755458Y-76844902D01*
X135755457Y-76844905D01*
X135734812Y-76988500D01*
X113284000Y-76988500D01*
X113284000Y-75946000D01*
X114933312Y-75946000D01*
X114953957Y-76089594D01*
X114953958Y-76089597D01*
X115014222Y-76221556D01*
X115014225Y-76221561D01*
X115109226Y-76331198D01*
X115231263Y-76409626D01*
X115231268Y-76409629D01*
X115370461Y-76450499D01*
X115370463Y-76450500D01*
X115370464Y-76450500D01*
X115515537Y-76450500D01*
X115515537Y-76450499D01*
X115654732Y-76409629D01*
X115700535Y-76380192D01*
X115776773Y-76331198D01*
X115871774Y-76221561D01*
X115871777Y-76221558D01*
X115932042Y-76089596D01*
X115952688Y-75946000D01*
X116203312Y-75946000D01*
X116223957Y-76089594D01*
X116223958Y-76089597D01*
X116284222Y-76221556D01*
X116284225Y-76221561D01*
X116379226Y-76331198D01*
X116501263Y-76409626D01*
X116501268Y-76409629D01*
X116640461Y-76450499D01*
X116640463Y-76450500D01*
X116640464Y-76450500D01*
X116785537Y-76450500D01*
X116785537Y-76450499D01*
X116924732Y-76409629D01*
X116970535Y-76380192D01*
X117046773Y-76331198D01*
X117141774Y-76221561D01*
X117141777Y-76221558D01*
X117202042Y-76089596D01*
X117222688Y-75946000D01*
X117473312Y-75946000D01*
X117493957Y-76089594D01*
X117493958Y-76089597D01*
X117554222Y-76221556D01*
X117554225Y-76221561D01*
X117649226Y-76331198D01*
X117771263Y-76409626D01*
X117771268Y-76409629D01*
X117910461Y-76450499D01*
X117910463Y-76450500D01*
X117910464Y-76450500D01*
X118055537Y-76450500D01*
X118055537Y-76450499D01*
X118194732Y-76409629D01*
X118240535Y-76380192D01*
X118316773Y-76331198D01*
X118411774Y-76221561D01*
X118411777Y-76221558D01*
X118472042Y-76089596D01*
X118492688Y-75946000D01*
X118472042Y-75802404D01*
X118411777Y-75670442D01*
X118411774Y-75670438D01*
X118316773Y-75560801D01*
X118194736Y-75482373D01*
X118194727Y-75482369D01*
X118055538Y-75441500D01*
X118055536Y-75441500D01*
X117910464Y-75441500D01*
X117910462Y-75441500D01*
X117771272Y-75482369D01*
X117771263Y-75482373D01*
X117649226Y-75560801D01*
X117554225Y-75670438D01*
X117554222Y-75670443D01*
X117493958Y-75802402D01*
X117493957Y-75802405D01*
X117473312Y-75946000D01*
X117222688Y-75946000D01*
X117202042Y-75802404D01*
X117141777Y-75670442D01*
X117141774Y-75670438D01*
X117046773Y-75560801D01*
X116924736Y-75482373D01*
X116924727Y-75482369D01*
X116785538Y-75441500D01*
X116785536Y-75441500D01*
X116640464Y-75441500D01*
X116640462Y-75441500D01*
X116501272Y-75482369D01*
X116501263Y-75482373D01*
X116379226Y-75560801D01*
X116284225Y-75670438D01*
X116284222Y-75670443D01*
X116223958Y-75802402D01*
X116223957Y-75802405D01*
X116203312Y-75946000D01*
X115952688Y-75946000D01*
X115932042Y-75802404D01*
X115871777Y-75670442D01*
X115871774Y-75670438D01*
X115776773Y-75560801D01*
X115654736Y-75482373D01*
X115654727Y-75482369D01*
X115515538Y-75441500D01*
X115515536Y-75441500D01*
X115370464Y-75441500D01*
X115370462Y-75441500D01*
X115231272Y-75482369D01*
X115231263Y-75482373D01*
X115109226Y-75560801D01*
X115014225Y-75670438D01*
X115014222Y-75670443D01*
X114953958Y-75802402D01*
X114953957Y-75802405D01*
X114933312Y-75946000D01*
X113284000Y-75946000D01*
X113284000Y-75057000D01*
X122299312Y-75057000D01*
X122319957Y-75200594D01*
X122319958Y-75200597D01*
X122380222Y-75332556D01*
X122380225Y-75332561D01*
X122475226Y-75442198D01*
X122597263Y-75520626D01*
X122597268Y-75520629D01*
X122734094Y-75560804D01*
X122736461Y-75561499D01*
X122736463Y-75561500D01*
X122736464Y-75561500D01*
X122881537Y-75561500D01*
X122881537Y-75561499D01*
X123020732Y-75520629D01*
X123080265Y-75482369D01*
X123142773Y-75442198D01*
X123146411Y-75438000D01*
X124839312Y-75438000D01*
X124859957Y-75581594D01*
X124859958Y-75581597D01*
X124920222Y-75713556D01*
X124920225Y-75713561D01*
X125015226Y-75823198D01*
X125137263Y-75901626D01*
X125137268Y-75901629D01*
X125276461Y-75942499D01*
X125276463Y-75942500D01*
X125276464Y-75942500D01*
X125421537Y-75942500D01*
X125421537Y-75942499D01*
X125560732Y-75901629D01*
X125682775Y-75823196D01*
X125682778Y-75823192D01*
X125686154Y-75820268D01*
X125686905Y-75821135D01*
X125725537Y-75801795D01*
X125770926Y-75816898D01*
X125777216Y-75823188D01*
X125777225Y-75823196D01*
X125899268Y-75901629D01*
X126038461Y-75942499D01*
X126038463Y-75942500D01*
X126038464Y-75942500D01*
X126183537Y-75942500D01*
X126183537Y-75942499D01*
X126322732Y-75901629D01*
X126368535Y-75872192D01*
X126444773Y-75823198D01*
X126450232Y-75816898D01*
X126539777Y-75713558D01*
X126600042Y-75581596D01*
X126620688Y-75438000D01*
X126600042Y-75294404D01*
X126539777Y-75162442D01*
X126467094Y-75078561D01*
X126444773Y-75052801D01*
X126322736Y-74974373D01*
X126322727Y-74974369D01*
X126183538Y-74933500D01*
X126183536Y-74933500D01*
X126038464Y-74933500D01*
X126038462Y-74933500D01*
X125899272Y-74974369D01*
X125899263Y-74974373D01*
X125777225Y-75052802D01*
X125773850Y-75055728D01*
X125773101Y-75054863D01*
X125734454Y-75074205D01*
X125689067Y-75059095D01*
X125682774Y-75052802D01*
X125560736Y-74974373D01*
X125560727Y-74974369D01*
X125421538Y-74933500D01*
X125421536Y-74933500D01*
X125276464Y-74933500D01*
X125276462Y-74933500D01*
X125137272Y-74974369D01*
X125137263Y-74974373D01*
X125015226Y-75052801D01*
X124920225Y-75162438D01*
X124920222Y-75162443D01*
X124859958Y-75294402D01*
X124859957Y-75294405D01*
X124839312Y-75438000D01*
X123146411Y-75438000D01*
X123237774Y-75332561D01*
X123237777Y-75332558D01*
X123298042Y-75200596D01*
X123318688Y-75057000D01*
X123298042Y-74913404D01*
X123247622Y-74803000D01*
X129284312Y-74803000D01*
X129304957Y-74946594D01*
X129304958Y-74946597D01*
X129365222Y-75078556D01*
X129365225Y-75078561D01*
X129460226Y-75188198D01*
X129582263Y-75266626D01*
X129582268Y-75266629D01*
X129676866Y-75294405D01*
X129721461Y-75307499D01*
X129721463Y-75307500D01*
X129721464Y-75307500D01*
X129866537Y-75307500D01*
X129866537Y-75307499D01*
X130005732Y-75266629D01*
X130051535Y-75237192D01*
X130127773Y-75188198D01*
X130222774Y-75078561D01*
X130222777Y-75078558D01*
X130283042Y-74946596D01*
X130303688Y-74803000D01*
X130554312Y-74803000D01*
X130574957Y-74946594D01*
X130574958Y-74946597D01*
X130635222Y-75078556D01*
X130635225Y-75078561D01*
X130730226Y-75188198D01*
X130852263Y-75266626D01*
X130852268Y-75266629D01*
X130946866Y-75294405D01*
X130991461Y-75307499D01*
X130991463Y-75307500D01*
X130991464Y-75307500D01*
X131136537Y-75307500D01*
X131136537Y-75307499D01*
X131275732Y-75266629D01*
X131321535Y-75237192D01*
X131397773Y-75188198D01*
X131492774Y-75078561D01*
X131492777Y-75078558D01*
X131553042Y-74946596D01*
X131573688Y-74803000D01*
X131824312Y-74803000D01*
X131844957Y-74946594D01*
X131844958Y-74946597D01*
X131905222Y-75078556D01*
X131905225Y-75078561D01*
X132000226Y-75188198D01*
X132122263Y-75266626D01*
X132122268Y-75266629D01*
X132216866Y-75294405D01*
X132261461Y-75307499D01*
X132261463Y-75307500D01*
X132261464Y-75307500D01*
X132406537Y-75307500D01*
X132406537Y-75307499D01*
X132545732Y-75266629D01*
X132591535Y-75237192D01*
X132667773Y-75188198D01*
X132762774Y-75078561D01*
X132762777Y-75078558D01*
X132823042Y-74946596D01*
X132843688Y-74803000D01*
X140714312Y-74803000D01*
X140734957Y-74946594D01*
X140734958Y-74946597D01*
X140795222Y-75078556D01*
X140795225Y-75078561D01*
X140890226Y-75188198D01*
X141012263Y-75266626D01*
X141012268Y-75266629D01*
X141106866Y-75294405D01*
X141151461Y-75307499D01*
X141151463Y-75307500D01*
X141151464Y-75307500D01*
X141296537Y-75307500D01*
X141296537Y-75307499D01*
X141435732Y-75266629D01*
X141481535Y-75237192D01*
X141557773Y-75188198D01*
X141652774Y-75078561D01*
X141652777Y-75078558D01*
X141713042Y-74946596D01*
X141733688Y-74803000D01*
X141984312Y-74803000D01*
X142004957Y-74946594D01*
X142004958Y-74946597D01*
X142065222Y-75078556D01*
X142065225Y-75078561D01*
X142160226Y-75188198D01*
X142282263Y-75266626D01*
X142282268Y-75266629D01*
X142376866Y-75294405D01*
X142421461Y-75307499D01*
X142421463Y-75307500D01*
X142421464Y-75307500D01*
X142566537Y-75307500D01*
X142566537Y-75307499D01*
X142705732Y-75266629D01*
X142751535Y-75237192D01*
X142827773Y-75188198D01*
X142922774Y-75078561D01*
X142922777Y-75078558D01*
X142983042Y-74946596D01*
X143003688Y-74803000D01*
X143254312Y-74803000D01*
X143274957Y-74946594D01*
X143274958Y-74946597D01*
X143335222Y-75078556D01*
X143335225Y-75078561D01*
X143430226Y-75188198D01*
X143552263Y-75266626D01*
X143552268Y-75266629D01*
X143646866Y-75294405D01*
X143691461Y-75307499D01*
X143691463Y-75307500D01*
X143691464Y-75307500D01*
X143836537Y-75307500D01*
X143836537Y-75307499D01*
X143975732Y-75266629D01*
X144021535Y-75237192D01*
X144097773Y-75188198D01*
X144192774Y-75078561D01*
X144192777Y-75078558D01*
X144253042Y-74946596D01*
X144273688Y-74803000D01*
X144253042Y-74659404D01*
X144192777Y-74527442D01*
X144192774Y-74527438D01*
X144097773Y-74417801D01*
X143975736Y-74339373D01*
X143975727Y-74339369D01*
X143836538Y-74298500D01*
X143836536Y-74298500D01*
X143691464Y-74298500D01*
X143691462Y-74298500D01*
X143552272Y-74339369D01*
X143552263Y-74339373D01*
X143430226Y-74417801D01*
X143335225Y-74527438D01*
X143335222Y-74527443D01*
X143274958Y-74659402D01*
X143274957Y-74659405D01*
X143254312Y-74803000D01*
X143003688Y-74803000D01*
X142983042Y-74659404D01*
X142922777Y-74527442D01*
X142922774Y-74527438D01*
X142827773Y-74417801D01*
X142705736Y-74339373D01*
X142705727Y-74339369D01*
X142566538Y-74298500D01*
X142566536Y-74298500D01*
X142421464Y-74298500D01*
X142421462Y-74298500D01*
X142282272Y-74339369D01*
X142282263Y-74339373D01*
X142160226Y-74417801D01*
X142065225Y-74527438D01*
X142065222Y-74527443D01*
X142004958Y-74659402D01*
X142004957Y-74659405D01*
X141984312Y-74803000D01*
X141733688Y-74803000D01*
X141713042Y-74659404D01*
X141652777Y-74527442D01*
X141652774Y-74527438D01*
X141557773Y-74417801D01*
X141435736Y-74339373D01*
X141435727Y-74339369D01*
X141296538Y-74298500D01*
X141296536Y-74298500D01*
X141151464Y-74298500D01*
X141151462Y-74298500D01*
X141012272Y-74339369D01*
X141012263Y-74339373D01*
X140890226Y-74417801D01*
X140795225Y-74527438D01*
X140795222Y-74527443D01*
X140734958Y-74659402D01*
X140734957Y-74659405D01*
X140714312Y-74803000D01*
X132843688Y-74803000D01*
X132823042Y-74659404D01*
X132762777Y-74527442D01*
X132762774Y-74527438D01*
X132667773Y-74417801D01*
X132545736Y-74339373D01*
X132545727Y-74339369D01*
X132406538Y-74298500D01*
X132406536Y-74298500D01*
X132261464Y-74298500D01*
X132261462Y-74298500D01*
X132122272Y-74339369D01*
X132122263Y-74339373D01*
X132000226Y-74417801D01*
X131905225Y-74527438D01*
X131905222Y-74527443D01*
X131844958Y-74659402D01*
X131844957Y-74659405D01*
X131824312Y-74803000D01*
X131573688Y-74803000D01*
X131553042Y-74659404D01*
X131492777Y-74527442D01*
X131492774Y-74527438D01*
X131397773Y-74417801D01*
X131275736Y-74339373D01*
X131275727Y-74339369D01*
X131136538Y-74298500D01*
X131136536Y-74298500D01*
X130991464Y-74298500D01*
X130991462Y-74298500D01*
X130852272Y-74339369D01*
X130852263Y-74339373D01*
X130730226Y-74417801D01*
X130635225Y-74527438D01*
X130635222Y-74527443D01*
X130574958Y-74659402D01*
X130574957Y-74659405D01*
X130554312Y-74803000D01*
X130303688Y-74803000D01*
X130283042Y-74659404D01*
X130222777Y-74527442D01*
X130222774Y-74527438D01*
X130127773Y-74417801D01*
X130005736Y-74339373D01*
X130005727Y-74339369D01*
X129866538Y-74298500D01*
X129866536Y-74298500D01*
X129721464Y-74298500D01*
X129721462Y-74298500D01*
X129582272Y-74339369D01*
X129582263Y-74339373D01*
X129460226Y-74417801D01*
X129365225Y-74527438D01*
X129365222Y-74527443D01*
X129304958Y-74659402D01*
X129304957Y-74659405D01*
X129284312Y-74803000D01*
X123247622Y-74803000D01*
X123237777Y-74781442D01*
X123237774Y-74781438D01*
X123142773Y-74671801D01*
X123020736Y-74593373D01*
X123020727Y-74593369D01*
X122881538Y-74552500D01*
X122881536Y-74552500D01*
X122736464Y-74552500D01*
X122736462Y-74552500D01*
X122597272Y-74593369D01*
X122597263Y-74593373D01*
X122475226Y-74671801D01*
X122380225Y-74781438D01*
X122380222Y-74781443D01*
X122319958Y-74913402D01*
X122319957Y-74913405D01*
X122299312Y-75057000D01*
X113284000Y-75057000D01*
X113284000Y-70485000D01*
X122299312Y-70485000D01*
X122319957Y-70628594D01*
X122319958Y-70628597D01*
X122380222Y-70760556D01*
X122380225Y-70760561D01*
X122475226Y-70870198D01*
X122597263Y-70948626D01*
X122597268Y-70948629D01*
X122736461Y-70989499D01*
X122736463Y-70989500D01*
X122736464Y-70989500D01*
X122881537Y-70989500D01*
X122881537Y-70989499D01*
X123020732Y-70948629D01*
X123142775Y-70870196D01*
X123142778Y-70870192D01*
X123146154Y-70867268D01*
X123146905Y-70868135D01*
X123185537Y-70848795D01*
X123230926Y-70863898D01*
X123237216Y-70870188D01*
X123237225Y-70870196D01*
X123359268Y-70948629D01*
X123498461Y-70989499D01*
X123498463Y-70989500D01*
X123498464Y-70989500D01*
X123643537Y-70989500D01*
X123643537Y-70989499D01*
X123782732Y-70948629D01*
X123840650Y-70911407D01*
X123904773Y-70870198D01*
X123999774Y-70760561D01*
X123999777Y-70760558D01*
X124060042Y-70628596D01*
X124080688Y-70485000D01*
X124060042Y-70341404D01*
X123999777Y-70209442D01*
X123952000Y-70154304D01*
X123904773Y-70099801D01*
X123782736Y-70021373D01*
X123782727Y-70021369D01*
X123643538Y-69980500D01*
X123643536Y-69980500D01*
X123498464Y-69980500D01*
X123498462Y-69980500D01*
X123359272Y-70021369D01*
X123359263Y-70021373D01*
X123237225Y-70099802D01*
X123233850Y-70102728D01*
X123233101Y-70101863D01*
X123194454Y-70121205D01*
X123149067Y-70106095D01*
X123142774Y-70099802D01*
X123020736Y-70021373D01*
X123020727Y-70021369D01*
X122881538Y-69980500D01*
X122881536Y-69980500D01*
X122736464Y-69980500D01*
X122736462Y-69980500D01*
X122597272Y-70021369D01*
X122597263Y-70021373D01*
X122475226Y-70099801D01*
X122380225Y-70209438D01*
X122380222Y-70209443D01*
X122319958Y-70341402D01*
X122319957Y-70341405D01*
X122299312Y-70485000D01*
X113284000Y-70485000D01*
X113284000Y-69596000D01*
X128522312Y-69596000D01*
X128542957Y-69739594D01*
X128542958Y-69739597D01*
X128603222Y-69871556D01*
X128603225Y-69871561D01*
X128698226Y-69981198D01*
X128820263Y-70059626D01*
X128820268Y-70059629D01*
X128957087Y-70099802D01*
X128959461Y-70100499D01*
X128959463Y-70100500D01*
X128959464Y-70100500D01*
X129104537Y-70100500D01*
X129104537Y-70100499D01*
X129243732Y-70059629D01*
X129310672Y-70016609D01*
X129365773Y-69981198D01*
X129460774Y-69871561D01*
X129460777Y-69871558D01*
X129521042Y-69739596D01*
X129541688Y-69596000D01*
X129521042Y-69452404D01*
X129460777Y-69320442D01*
X129460774Y-69320438D01*
X129365773Y-69210801D01*
X129243736Y-69132373D01*
X129243727Y-69132369D01*
X129104538Y-69091500D01*
X129104536Y-69091500D01*
X128959464Y-69091500D01*
X128959462Y-69091500D01*
X128820272Y-69132369D01*
X128820263Y-69132373D01*
X128698226Y-69210801D01*
X128603225Y-69320438D01*
X128603222Y-69320443D01*
X128542958Y-69452402D01*
X128542957Y-69452405D01*
X128522312Y-69596000D01*
X113284000Y-69596000D01*
X113284000Y-68326000D01*
X128522312Y-68326000D01*
X128542957Y-68469594D01*
X128542958Y-68469597D01*
X128603222Y-68601556D01*
X128603225Y-68601561D01*
X128698226Y-68711198D01*
X128820263Y-68789626D01*
X128820268Y-68789629D01*
X128959461Y-68830499D01*
X128959463Y-68830500D01*
X128959464Y-68830500D01*
X129104537Y-68830500D01*
X129104537Y-68830499D01*
X129243732Y-68789629D01*
X129289535Y-68760192D01*
X129365773Y-68711198D01*
X129460774Y-68601561D01*
X129460777Y-68601558D01*
X129521042Y-68469596D01*
X129541688Y-68326000D01*
X129521042Y-68182404D01*
X129460777Y-68050442D01*
X129460774Y-68050438D01*
X129365773Y-67940801D01*
X129243736Y-67862373D01*
X129243727Y-67862369D01*
X129104538Y-67821500D01*
X129104536Y-67821500D01*
X128959464Y-67821500D01*
X128959462Y-67821500D01*
X128820272Y-67862369D01*
X128820263Y-67862373D01*
X128698226Y-67940801D01*
X128603225Y-68050438D01*
X128603222Y-68050443D01*
X128542958Y-68182402D01*
X128542957Y-68182405D01*
X128522312Y-68326000D01*
X113284000Y-68326000D01*
X113284000Y-67056000D01*
X128522312Y-67056000D01*
X128542957Y-67199594D01*
X128542958Y-67199597D01*
X128603222Y-67331556D01*
X128603225Y-67331561D01*
X128698226Y-67441198D01*
X128820263Y-67519626D01*
X128820268Y-67519629D01*
X128959461Y-67560499D01*
X128959463Y-67560500D01*
X128959464Y-67560500D01*
X129104537Y-67560500D01*
X129104537Y-67560499D01*
X129243732Y-67519629D01*
X129300460Y-67483172D01*
X129365773Y-67441198D01*
X129460774Y-67331561D01*
X129460777Y-67331558D01*
X129521042Y-67199596D01*
X129541688Y-67056000D01*
X129521042Y-66912404D01*
X129460777Y-66780442D01*
X129460774Y-66780438D01*
X129365773Y-66670801D01*
X129243736Y-66592373D01*
X129243727Y-66592369D01*
X129104538Y-66551500D01*
X129104536Y-66551500D01*
X128959464Y-66551500D01*
X128959462Y-66551500D01*
X128820272Y-66592369D01*
X128820263Y-66592373D01*
X128698226Y-66670801D01*
X128603225Y-66780438D01*
X128603222Y-66780443D01*
X128542958Y-66912402D01*
X128542957Y-66912405D01*
X128522312Y-67056000D01*
X113284000Y-67056000D01*
X113284000Y-65551064D01*
X144339000Y-65551064D01*
X144339000Y-67248935D01*
X144377602Y-67443000D01*
X144377602Y-67443001D01*
X144453324Y-67625809D01*
X144453325Y-67625811D01*
X144563253Y-67790330D01*
X144563254Y-67790331D01*
X144703169Y-67930246D01*
X144867691Y-68040176D01*
X145050498Y-68115897D01*
X145244565Y-68154500D01*
X145442435Y-68154500D01*
X145636502Y-68115897D01*
X145819309Y-68040176D01*
X145983831Y-67930246D01*
X146123746Y-67790331D01*
X146233676Y-67625809D01*
X146309397Y-67443002D01*
X146348000Y-67248935D01*
X146348000Y-65551065D01*
X146348000Y-65551064D01*
X149419000Y-65551064D01*
X149419000Y-67248935D01*
X149457602Y-67443000D01*
X149457602Y-67443001D01*
X149533324Y-67625809D01*
X149533325Y-67625811D01*
X149643253Y-67790330D01*
X149643254Y-67790331D01*
X149783169Y-67930246D01*
X149947691Y-68040176D01*
X150130498Y-68115897D01*
X150324565Y-68154500D01*
X150522435Y-68154500D01*
X150716502Y-68115897D01*
X150899309Y-68040176D01*
X151063831Y-67930246D01*
X151203746Y-67790331D01*
X151313676Y-67625809D01*
X151389397Y-67443002D01*
X151428000Y-67248935D01*
X151428000Y-65551065D01*
X151389397Y-65356998D01*
X151313676Y-65174191D01*
X151203746Y-65009669D01*
X151063831Y-64869754D01*
X151063830Y-64869753D01*
X150899311Y-64759825D01*
X150899309Y-64759824D01*
X150716500Y-64684102D01*
X150522435Y-64645500D01*
X150324565Y-64645500D01*
X150130499Y-64684102D01*
X150130498Y-64684102D01*
X149947690Y-64759824D01*
X149947688Y-64759825D01*
X149783169Y-64869753D01*
X149643253Y-65009669D01*
X149533325Y-65174188D01*
X149533324Y-65174190D01*
X149457602Y-65356998D01*
X149457602Y-65356999D01*
X149419000Y-65551064D01*
X146348000Y-65551064D01*
X146309397Y-65356998D01*
X146233676Y-65174191D01*
X146123746Y-65009669D01*
X145983831Y-64869754D01*
X145983830Y-64869753D01*
X145819311Y-64759825D01*
X145819309Y-64759824D01*
X145636500Y-64684102D01*
X145442435Y-64645500D01*
X145244565Y-64645500D01*
X145050499Y-64684102D01*
X145050498Y-64684102D01*
X144867690Y-64759824D01*
X144867688Y-64759825D01*
X144703169Y-64869753D01*
X144563253Y-65009669D01*
X144453325Y-65174188D01*
X144453324Y-65174190D01*
X144377602Y-65356998D01*
X144377602Y-65356999D01*
X144339000Y-65551064D01*
X113284000Y-65551064D01*
X113284000Y-64770000D01*
X122172312Y-64770000D01*
X122192957Y-64913594D01*
X122192958Y-64913597D01*
X122253222Y-65045556D01*
X122253225Y-65045561D01*
X122348226Y-65155198D01*
X122470263Y-65233626D01*
X122470268Y-65233629D01*
X122546642Y-65256054D01*
X122609461Y-65274499D01*
X122609463Y-65274500D01*
X122609464Y-65274500D01*
X122754537Y-65274500D01*
X122754537Y-65274499D01*
X122893732Y-65233629D01*
X122939535Y-65204192D01*
X123015773Y-65155198D01*
X123110774Y-65045561D01*
X123110777Y-65045558D01*
X123171042Y-64913596D01*
X123191688Y-64770000D01*
X123171042Y-64626404D01*
X123110777Y-64494442D01*
X123101471Y-64483702D01*
X123015773Y-64384801D01*
X122893736Y-64306373D01*
X122893727Y-64306369D01*
X122754538Y-64265500D01*
X122754536Y-64265500D01*
X122609464Y-64265500D01*
X122609462Y-64265500D01*
X122470272Y-64306369D01*
X122470263Y-64306373D01*
X122348226Y-64384801D01*
X122253225Y-64494438D01*
X122253222Y-64494443D01*
X122192958Y-64626402D01*
X122192957Y-64626405D01*
X122172312Y-64770000D01*
X113284000Y-64770000D01*
X113284000Y-63500000D01*
X122172312Y-63500000D01*
X122192957Y-63643594D01*
X122192958Y-63643597D01*
X122253222Y-63775556D01*
X122253225Y-63775561D01*
X122348226Y-63885198D01*
X122470263Y-63963626D01*
X122470268Y-63963629D01*
X122609461Y-64004499D01*
X122609463Y-64004500D01*
X122609464Y-64004500D01*
X122754537Y-64004500D01*
X122754537Y-64004499D01*
X122893732Y-63963629D01*
X122939535Y-63934192D01*
X123015773Y-63885198D01*
X123110774Y-63775561D01*
X123110777Y-63775558D01*
X123171042Y-63643596D01*
X123191688Y-63500000D01*
X123171042Y-63356404D01*
X123110777Y-63224442D01*
X123098207Y-63209935D01*
X123015773Y-63114801D01*
X122893736Y-63036373D01*
X122893727Y-63036369D01*
X122754538Y-62995500D01*
X122754536Y-62995500D01*
X122609464Y-62995500D01*
X122609462Y-62995500D01*
X122470272Y-63036369D01*
X122470263Y-63036373D01*
X122348226Y-63114801D01*
X122253225Y-63224438D01*
X122253222Y-63224443D01*
X122192958Y-63356402D01*
X122192957Y-63356405D01*
X122172312Y-63500000D01*
X113284000Y-63500000D01*
X113284000Y-62230000D01*
X122172312Y-62230000D01*
X122192957Y-62373594D01*
X122192958Y-62373597D01*
X122253222Y-62505556D01*
X122253225Y-62505561D01*
X122348226Y-62615198D01*
X122448731Y-62679788D01*
X122470268Y-62693629D01*
X122609461Y-62734499D01*
X122609463Y-62734500D01*
X122609464Y-62734500D01*
X122754537Y-62734500D01*
X122754537Y-62734499D01*
X122893732Y-62693629D01*
X122939535Y-62664192D01*
X123015773Y-62615198D01*
X123110774Y-62505561D01*
X123110777Y-62505558D01*
X123171042Y-62373596D01*
X123191688Y-62230000D01*
X123171042Y-62086404D01*
X123137092Y-62012064D01*
X132980500Y-62012064D01*
X132980500Y-63209935D01*
X133019102Y-63404000D01*
X133019102Y-63404001D01*
X133094824Y-63586809D01*
X133094825Y-63586811D01*
X133132768Y-63643597D01*
X133204754Y-63751331D01*
X133344669Y-63891246D01*
X133509191Y-64001176D01*
X133691998Y-64076897D01*
X133886065Y-64115500D01*
X134083935Y-64115500D01*
X134278002Y-64076897D01*
X134460809Y-64001176D01*
X134625331Y-63891246D01*
X134765246Y-63751331D01*
X134875176Y-63586809D01*
X134950897Y-63404002D01*
X134989500Y-63209935D01*
X134989500Y-62012065D01*
X134950897Y-61817998D01*
X134875176Y-61635191D01*
X134765246Y-61470669D01*
X134630509Y-61335932D01*
X138060500Y-61335932D01*
X138060500Y-63886064D01*
X138060501Y-63886068D01*
X138075265Y-63960299D01*
X138075267Y-63960303D01*
X138131515Y-64044484D01*
X138215697Y-64100733D01*
X138215699Y-64100734D01*
X138289933Y-64115500D01*
X139840066Y-64115499D01*
X139914301Y-64100734D01*
X139998484Y-64044484D01*
X140054734Y-63960301D01*
X140069500Y-63886067D01*
X140069499Y-61335934D01*
X140054734Y-61261699D01*
X140027422Y-61220824D01*
X139998484Y-61177515D01*
X139914302Y-61121266D01*
X139914300Y-61121265D01*
X139840067Y-61106500D01*
X138289935Y-61106500D01*
X138289931Y-61106501D01*
X138215700Y-61121265D01*
X138215696Y-61121267D01*
X138131515Y-61177515D01*
X138075266Y-61261697D01*
X138075265Y-61261699D01*
X138060500Y-61335932D01*
X134630509Y-61335932D01*
X134625331Y-61330754D01*
X134625330Y-61330753D01*
X134460811Y-61220825D01*
X134460809Y-61220824D01*
X134278000Y-61145102D01*
X134083935Y-61106500D01*
X133886065Y-61106500D01*
X133691999Y-61145102D01*
X133691998Y-61145102D01*
X133509190Y-61220824D01*
X133509188Y-61220825D01*
X133344669Y-61330753D01*
X133204753Y-61470669D01*
X133094825Y-61635188D01*
X133094824Y-61635190D01*
X133019102Y-61817998D01*
X133019102Y-61817999D01*
X132980500Y-62012064D01*
X123137092Y-62012064D01*
X123110777Y-61954442D01*
X123090112Y-61930593D01*
X123015773Y-61844801D01*
X122893736Y-61766373D01*
X122893727Y-61766369D01*
X122754538Y-61725500D01*
X122754536Y-61725500D01*
X122609464Y-61725500D01*
X122609462Y-61725500D01*
X122470272Y-61766369D01*
X122470263Y-61766373D01*
X122348226Y-61844801D01*
X122253225Y-61954438D01*
X122253222Y-61954443D01*
X122192958Y-62086402D01*
X122192957Y-62086405D01*
X122172312Y-62230000D01*
X113284000Y-62230000D01*
X113284000Y-60731888D01*
X113302306Y-60687694D01*
X113471194Y-60518806D01*
X113515388Y-60500500D01*
X151787612Y-60500500D01*
X151831806Y-60518806D01*
G37*
G04 #@! TD.AperFunction*
G04 #@! TD*
G04 #@! TA.AperFunction,Conductor*
G04 #@! TO.N,GNDS*
G36*
X189296806Y-60518806D02*
G01*
X189465694Y-60687694D01*
X189484000Y-60731888D01*
X189484000Y-81866108D01*
X189465694Y-81910302D01*
X189421500Y-81928608D01*
X189377306Y-81910302D01*
X189368580Y-81899360D01*
X189318772Y-81820093D01*
X189318771Y-81820091D01*
X189197908Y-81699228D01*
X189197906Y-81699227D01*
X189053189Y-81608294D01*
X189053188Y-81608293D01*
X189053183Y-81608291D01*
X188891850Y-81551838D01*
X188891849Y-81551837D01*
X188891847Y-81551837D01*
X188722000Y-81532701D01*
X188552152Y-81551837D01*
X188390811Y-81608293D01*
X188390810Y-81608294D01*
X188310752Y-81658599D01*
X188263593Y-81666612D01*
X188244248Y-81658599D01*
X188164189Y-81608294D01*
X188164188Y-81608293D01*
X188164183Y-81608291D01*
X188002850Y-81551838D01*
X188002849Y-81551837D01*
X188002847Y-81551837D01*
X187833000Y-81532701D01*
X187663152Y-81551837D01*
X187501811Y-81608293D01*
X187501810Y-81608294D01*
X187357093Y-81699227D01*
X187357091Y-81699228D01*
X187236228Y-81820091D01*
X187236227Y-81820093D01*
X187145294Y-81964810D01*
X187145293Y-81964811D01*
X187088837Y-82126152D01*
X187069701Y-82295999D01*
X187069701Y-82296000D01*
X187088837Y-82465847D01*
X187145293Y-82627188D01*
X187145294Y-82627189D01*
X187195599Y-82707248D01*
X187203612Y-82754407D01*
X187195599Y-82773752D01*
X187145294Y-82853810D01*
X187145293Y-82853811D01*
X187088837Y-83015152D01*
X187069701Y-83184999D01*
X187069701Y-83185000D01*
X187088837Y-83354847D01*
X187145293Y-83516188D01*
X187145294Y-83516189D01*
X187236227Y-83660906D01*
X187236228Y-83660908D01*
X187357091Y-83781771D01*
X187357093Y-83781772D01*
X187501810Y-83872705D01*
X187501811Y-83872706D01*
X187501813Y-83872706D01*
X187501817Y-83872709D01*
X187663150Y-83929162D01*
X187833000Y-83948299D01*
X188002850Y-83929162D01*
X188164183Y-83872709D01*
X188244250Y-83822398D01*
X188291407Y-83814386D01*
X188310745Y-83822395D01*
X188390817Y-83872709D01*
X188552150Y-83929162D01*
X188722000Y-83948299D01*
X188891850Y-83929162D01*
X189053183Y-83872709D01*
X189197909Y-83781771D01*
X189318771Y-83660909D01*
X189368580Y-83581639D01*
X189407592Y-83553958D01*
X189454752Y-83561971D01*
X189482433Y-83600983D01*
X189484000Y-83614891D01*
X189484000Y-129133112D01*
X189465694Y-129177306D01*
X189248306Y-129394694D01*
X189204112Y-129413000D01*
X170967888Y-129413000D01*
X170923694Y-129394694D01*
X170706306Y-129177306D01*
X170688000Y-129133112D01*
X170688000Y-125107995D01*
X181897768Y-125107995D01*
X181897768Y-125108004D01*
X181916653Y-125311813D01*
X181916655Y-125311825D01*
X181957234Y-125454442D01*
X181972672Y-125508701D01*
X182063912Y-125691935D01*
X182063913Y-125691936D01*
X182063915Y-125691940D01*
X182187259Y-125855275D01*
X182187264Y-125855280D01*
X182187268Y-125855285D01*
X182289870Y-125948819D01*
X182338533Y-125993182D01*
X182338534Y-125993183D01*
X182338538Y-125993186D01*
X182512573Y-126100944D01*
X182703444Y-126174888D01*
X182904653Y-126212500D01*
X182904656Y-126212500D01*
X183109344Y-126212500D01*
X183109347Y-126212500D01*
X183310556Y-126174888D01*
X183501427Y-126100944D01*
X183675462Y-125993186D01*
X183826732Y-125855285D01*
X183950088Y-125691935D01*
X184041328Y-125508701D01*
X184097345Y-125311821D01*
X184116232Y-125108000D01*
X184116232Y-125107995D01*
X184437768Y-125107995D01*
X184437768Y-125108004D01*
X184456653Y-125311813D01*
X184456655Y-125311825D01*
X184497234Y-125454442D01*
X184512672Y-125508701D01*
X184603912Y-125691935D01*
X184603913Y-125691936D01*
X184603915Y-125691940D01*
X184727259Y-125855275D01*
X184727264Y-125855280D01*
X184727268Y-125855285D01*
X184829870Y-125948819D01*
X184878533Y-125993182D01*
X184878534Y-125993183D01*
X184878538Y-125993186D01*
X185052573Y-126100944D01*
X185243444Y-126174888D01*
X185444653Y-126212500D01*
X185444656Y-126212500D01*
X185649344Y-126212500D01*
X185649347Y-126212500D01*
X185850556Y-126174888D01*
X186041427Y-126100944D01*
X186215462Y-125993186D01*
X186366732Y-125855285D01*
X186490088Y-125691935D01*
X186581328Y-125508701D01*
X186637345Y-125311821D01*
X186656232Y-125108000D01*
X186637345Y-124904179D01*
X186581328Y-124707299D01*
X186490088Y-124524065D01*
X186490085Y-124524061D01*
X186490084Y-124524059D01*
X186366740Y-124360724D01*
X186366735Y-124360719D01*
X186366732Y-124360715D01*
X186271834Y-124274204D01*
X186215466Y-124222817D01*
X186215463Y-124222815D01*
X186215462Y-124222814D01*
X186041427Y-124115056D01*
X186041425Y-124115055D01*
X185985948Y-124093563D01*
X185850556Y-124041112D01*
X185850553Y-124041111D01*
X185850552Y-124041111D01*
X185649351Y-124003500D01*
X185649347Y-124003500D01*
X185444653Y-124003500D01*
X185444648Y-124003500D01*
X185243447Y-124041111D01*
X185052574Y-124115055D01*
X184878533Y-124222817D01*
X184727266Y-124360717D01*
X184727259Y-124360724D01*
X184603915Y-124524059D01*
X184603912Y-124524065D01*
X184512672Y-124707298D01*
X184456655Y-124904174D01*
X184456653Y-124904186D01*
X184437768Y-125107995D01*
X184116232Y-125107995D01*
X184097345Y-124904179D01*
X184041328Y-124707299D01*
X183950088Y-124524065D01*
X183950085Y-124524061D01*
X183950084Y-124524059D01*
X183826740Y-124360724D01*
X183826735Y-124360719D01*
X183826732Y-124360715D01*
X183731834Y-124274204D01*
X183675466Y-124222817D01*
X183675463Y-124222815D01*
X183675462Y-124222814D01*
X183501427Y-124115056D01*
X183501425Y-124115055D01*
X183445948Y-124093563D01*
X183310556Y-124041112D01*
X183310553Y-124041111D01*
X183310552Y-124041111D01*
X183109351Y-124003500D01*
X183109347Y-124003500D01*
X182904653Y-124003500D01*
X182904648Y-124003500D01*
X182703447Y-124041111D01*
X182512574Y-124115055D01*
X182338533Y-124222817D01*
X182187266Y-124360717D01*
X182187259Y-124360724D01*
X182063915Y-124524059D01*
X182063912Y-124524065D01*
X181972672Y-124707298D01*
X181916655Y-124904174D01*
X181916653Y-124904186D01*
X181897768Y-125107995D01*
X170688000Y-125107995D01*
X170688000Y-122567995D01*
X181897768Y-122567995D01*
X181897768Y-122568004D01*
X181916653Y-122771813D01*
X181916655Y-122771825D01*
X181957234Y-122914442D01*
X181972672Y-122968701D01*
X182063912Y-123151935D01*
X182063913Y-123151936D01*
X182063915Y-123151940D01*
X182187259Y-123315275D01*
X182187264Y-123315280D01*
X182187268Y-123315285D01*
X182289870Y-123408819D01*
X182338533Y-123453182D01*
X182338534Y-123453183D01*
X182338538Y-123453186D01*
X182512573Y-123560944D01*
X182703444Y-123634888D01*
X182904653Y-123672500D01*
X182904656Y-123672500D01*
X183109344Y-123672500D01*
X183109347Y-123672500D01*
X183310556Y-123634888D01*
X183501427Y-123560944D01*
X183675462Y-123453186D01*
X183826732Y-123315285D01*
X183950088Y-123151935D01*
X184041328Y-122968701D01*
X184097345Y-122771821D01*
X184116232Y-122568000D01*
X184116232Y-122567995D01*
X184437768Y-122567995D01*
X184437768Y-122568004D01*
X184456653Y-122771813D01*
X184456655Y-122771825D01*
X184497234Y-122914442D01*
X184512672Y-122968701D01*
X184603912Y-123151935D01*
X184603913Y-123151936D01*
X184603915Y-123151940D01*
X184727259Y-123315275D01*
X184727264Y-123315280D01*
X184727268Y-123315285D01*
X184829870Y-123408819D01*
X184878533Y-123453182D01*
X184878534Y-123453183D01*
X184878538Y-123453186D01*
X185052573Y-123560944D01*
X185243444Y-123634888D01*
X185444653Y-123672500D01*
X185444656Y-123672500D01*
X185649344Y-123672500D01*
X185649347Y-123672500D01*
X185850556Y-123634888D01*
X186041427Y-123560944D01*
X186215462Y-123453186D01*
X186366732Y-123315285D01*
X186490088Y-123151935D01*
X186581328Y-122968701D01*
X186637345Y-122771821D01*
X186656232Y-122568000D01*
X186637345Y-122364179D01*
X186581328Y-122167299D01*
X186490088Y-121984065D01*
X186490085Y-121984061D01*
X186490084Y-121984059D01*
X186366740Y-121820724D01*
X186366735Y-121820719D01*
X186366732Y-121820715D01*
X186271834Y-121734204D01*
X186215466Y-121682817D01*
X186215463Y-121682815D01*
X186215462Y-121682814D01*
X186041427Y-121575056D01*
X186041425Y-121575055D01*
X185985948Y-121553563D01*
X185850556Y-121501112D01*
X185850553Y-121501111D01*
X185850552Y-121501111D01*
X185649351Y-121463500D01*
X185649347Y-121463500D01*
X185444653Y-121463500D01*
X185444648Y-121463500D01*
X185243447Y-121501111D01*
X185052574Y-121575055D01*
X184878533Y-121682817D01*
X184727266Y-121820717D01*
X184727259Y-121820724D01*
X184603915Y-121984059D01*
X184603912Y-121984065D01*
X184512672Y-122167298D01*
X184456655Y-122364174D01*
X184456653Y-122364186D01*
X184437768Y-122567995D01*
X184116232Y-122567995D01*
X184097345Y-122364179D01*
X184041328Y-122167299D01*
X183950088Y-121984065D01*
X183950085Y-121984061D01*
X183950084Y-121984059D01*
X183826740Y-121820724D01*
X183826735Y-121820719D01*
X183826732Y-121820715D01*
X183731834Y-121734204D01*
X183675466Y-121682817D01*
X183675463Y-121682815D01*
X183675462Y-121682814D01*
X183501427Y-121575056D01*
X183501425Y-121575055D01*
X183445948Y-121553563D01*
X183310556Y-121501112D01*
X183310553Y-121501111D01*
X183310552Y-121501111D01*
X183109351Y-121463500D01*
X183109347Y-121463500D01*
X182904653Y-121463500D01*
X182904648Y-121463500D01*
X182703447Y-121501111D01*
X182512574Y-121575055D01*
X182338533Y-121682817D01*
X182187266Y-121820717D01*
X182187259Y-121820724D01*
X182063915Y-121984059D01*
X182063912Y-121984065D01*
X181972672Y-122167298D01*
X181916655Y-122364174D01*
X181916653Y-122364186D01*
X181897768Y-122567995D01*
X170688000Y-122567995D01*
X170688000Y-120027995D01*
X181897768Y-120027995D01*
X181897768Y-120028004D01*
X181916653Y-120231813D01*
X181916655Y-120231825D01*
X181957234Y-120374442D01*
X181972672Y-120428701D01*
X182063912Y-120611935D01*
X182063913Y-120611936D01*
X182063915Y-120611940D01*
X182187259Y-120775275D01*
X182187264Y-120775280D01*
X182187268Y-120775285D01*
X182289870Y-120868819D01*
X182338533Y-120913182D01*
X182338534Y-120913183D01*
X182338538Y-120913186D01*
X182512573Y-121020944D01*
X182703444Y-121094888D01*
X182904653Y-121132500D01*
X182904656Y-121132500D01*
X183109344Y-121132500D01*
X183109347Y-121132500D01*
X183310556Y-121094888D01*
X183501427Y-121020944D01*
X183675462Y-120913186D01*
X183826732Y-120775285D01*
X183950088Y-120611935D01*
X184041328Y-120428701D01*
X184097345Y-120231821D01*
X184116232Y-120028000D01*
X184116232Y-120027995D01*
X184437768Y-120027995D01*
X184437768Y-120028004D01*
X184456653Y-120231813D01*
X184456655Y-120231825D01*
X184497234Y-120374442D01*
X184512672Y-120428701D01*
X184603912Y-120611935D01*
X184603913Y-120611936D01*
X184603915Y-120611940D01*
X184727259Y-120775275D01*
X184727264Y-120775280D01*
X184727268Y-120775285D01*
X184829870Y-120868819D01*
X184878533Y-120913182D01*
X184878534Y-120913183D01*
X184878538Y-120913186D01*
X185052573Y-121020944D01*
X185243444Y-121094888D01*
X185444653Y-121132500D01*
X185444656Y-121132500D01*
X185649344Y-121132500D01*
X185649347Y-121132500D01*
X185850556Y-121094888D01*
X186041427Y-121020944D01*
X186215462Y-120913186D01*
X186366732Y-120775285D01*
X186490088Y-120611935D01*
X186581328Y-120428701D01*
X186637345Y-120231821D01*
X186656232Y-120028000D01*
X186637345Y-119824179D01*
X186581328Y-119627299D01*
X186490088Y-119444065D01*
X186490085Y-119444061D01*
X186490084Y-119444059D01*
X186366740Y-119280724D01*
X186366735Y-119280719D01*
X186366732Y-119280715D01*
X186271834Y-119194204D01*
X186215466Y-119142817D01*
X186215463Y-119142815D01*
X186215462Y-119142814D01*
X186041427Y-119035056D01*
X186041425Y-119035055D01*
X185985948Y-119013563D01*
X185850556Y-118961112D01*
X185850553Y-118961111D01*
X185850552Y-118961111D01*
X185649351Y-118923500D01*
X185649347Y-118923500D01*
X185444653Y-118923500D01*
X185444648Y-118923500D01*
X185243447Y-118961111D01*
X185052574Y-119035055D01*
X184878533Y-119142817D01*
X184727266Y-119280717D01*
X184727259Y-119280724D01*
X184603915Y-119444059D01*
X184603912Y-119444065D01*
X184512672Y-119627298D01*
X184456655Y-119824174D01*
X184456653Y-119824186D01*
X184437768Y-120027995D01*
X184116232Y-120027995D01*
X184097345Y-119824179D01*
X184041328Y-119627299D01*
X183950088Y-119444065D01*
X183950085Y-119444061D01*
X183950084Y-119444059D01*
X183826740Y-119280724D01*
X183826735Y-119280719D01*
X183826732Y-119280715D01*
X183731834Y-119194204D01*
X183675466Y-119142817D01*
X183675463Y-119142815D01*
X183675462Y-119142814D01*
X183501427Y-119035056D01*
X183501425Y-119035055D01*
X183445948Y-119013563D01*
X183310556Y-118961112D01*
X183310553Y-118961111D01*
X183310552Y-118961111D01*
X183109351Y-118923500D01*
X183109347Y-118923500D01*
X182904653Y-118923500D01*
X182904648Y-118923500D01*
X182703447Y-118961111D01*
X182512574Y-119035055D01*
X182338533Y-119142817D01*
X182187266Y-119280717D01*
X182187259Y-119280724D01*
X182063915Y-119444059D01*
X182063912Y-119444065D01*
X181972672Y-119627298D01*
X181916655Y-119824174D01*
X181916653Y-119824186D01*
X181897768Y-120027995D01*
X170688000Y-120027995D01*
X170688000Y-117475000D01*
X173861312Y-117475000D01*
X173881957Y-117618594D01*
X173881958Y-117618597D01*
X173942222Y-117750556D01*
X173942225Y-117750561D01*
X174037226Y-117860198D01*
X174159263Y-117938626D01*
X174159268Y-117938629D01*
X174298461Y-117979499D01*
X174298463Y-117979500D01*
X174298464Y-117979500D01*
X174443537Y-117979500D01*
X174443537Y-117979499D01*
X174582732Y-117938629D01*
X174660421Y-117888701D01*
X174704773Y-117860198D01*
X174799774Y-117750561D01*
X174799777Y-117750558D01*
X174860042Y-117618596D01*
X174878820Y-117487995D01*
X181897768Y-117487995D01*
X181897768Y-117488004D01*
X181916653Y-117691813D01*
X181916655Y-117691825D01*
X181964562Y-117860198D01*
X181972672Y-117888701D01*
X182063912Y-118071935D01*
X182063913Y-118071936D01*
X182063915Y-118071940D01*
X182187259Y-118235275D01*
X182187264Y-118235280D01*
X182187268Y-118235285D01*
X182289870Y-118328819D01*
X182338533Y-118373182D01*
X182338534Y-118373183D01*
X182338538Y-118373186D01*
X182512573Y-118480944D01*
X182703444Y-118554888D01*
X182904653Y-118592500D01*
X182904656Y-118592500D01*
X183109344Y-118592500D01*
X183109347Y-118592500D01*
X183310556Y-118554888D01*
X183501427Y-118480944D01*
X183675462Y-118373186D01*
X183826732Y-118235285D01*
X183950088Y-118071935D01*
X184041328Y-117888701D01*
X184097345Y-117691821D01*
X184101557Y-117646371D01*
X184116232Y-117488004D01*
X184116232Y-117487995D01*
X184437768Y-117487995D01*
X184437768Y-117488004D01*
X184456653Y-117691813D01*
X184456655Y-117691825D01*
X184504562Y-117860198D01*
X184512672Y-117888701D01*
X184603912Y-118071935D01*
X184603913Y-118071936D01*
X184603915Y-118071940D01*
X184727259Y-118235275D01*
X184727264Y-118235280D01*
X184727268Y-118235285D01*
X184829870Y-118328819D01*
X184878533Y-118373182D01*
X184878534Y-118373183D01*
X184878538Y-118373186D01*
X185052573Y-118480944D01*
X185243444Y-118554888D01*
X185444653Y-118592500D01*
X185444656Y-118592500D01*
X185649344Y-118592500D01*
X185649347Y-118592500D01*
X185850556Y-118554888D01*
X186041427Y-118480944D01*
X186215462Y-118373186D01*
X186366732Y-118235285D01*
X186490088Y-118071935D01*
X186581328Y-117888701D01*
X186637345Y-117691821D01*
X186641557Y-117646371D01*
X186656232Y-117488004D01*
X186656232Y-117487995D01*
X186637346Y-117284186D01*
X186637344Y-117284174D01*
X186613234Y-117199438D01*
X186581328Y-117087299D01*
X186490088Y-116904065D01*
X186490085Y-116904061D01*
X186490084Y-116904059D01*
X186366740Y-116740724D01*
X186366735Y-116740719D01*
X186366732Y-116740715D01*
X186271834Y-116654204D01*
X186215466Y-116602817D01*
X186215463Y-116602815D01*
X186215462Y-116602814D01*
X186041427Y-116495056D01*
X186041425Y-116495055D01*
X185935599Y-116454058D01*
X185850556Y-116421112D01*
X185850553Y-116421111D01*
X185850552Y-116421111D01*
X185649351Y-116383500D01*
X185649347Y-116383500D01*
X185444653Y-116383500D01*
X185444648Y-116383500D01*
X185243447Y-116421111D01*
X185052574Y-116495055D01*
X184878533Y-116602817D01*
X184727266Y-116740717D01*
X184727259Y-116740724D01*
X184603915Y-116904059D01*
X184603912Y-116904065D01*
X184512672Y-117087298D01*
X184456655Y-117284174D01*
X184456653Y-117284186D01*
X184437768Y-117487995D01*
X184116232Y-117487995D01*
X184097346Y-117284186D01*
X184097344Y-117284174D01*
X184073234Y-117199438D01*
X184041328Y-117087299D01*
X183950088Y-116904065D01*
X183950085Y-116904061D01*
X183950084Y-116904059D01*
X183826740Y-116740724D01*
X183826735Y-116740719D01*
X183826732Y-116740715D01*
X183731834Y-116654204D01*
X183675466Y-116602817D01*
X183675463Y-116602815D01*
X183675462Y-116602814D01*
X183501427Y-116495056D01*
X183501425Y-116495055D01*
X183395599Y-116454058D01*
X183310556Y-116421112D01*
X183310553Y-116421111D01*
X183310552Y-116421111D01*
X183109351Y-116383500D01*
X183109347Y-116383500D01*
X182904653Y-116383500D01*
X182904648Y-116383500D01*
X182703447Y-116421111D01*
X182512574Y-116495055D01*
X182338533Y-116602817D01*
X182187266Y-116740717D01*
X182187259Y-116740724D01*
X182063915Y-116904059D01*
X182063912Y-116904065D01*
X181972672Y-117087298D01*
X181916655Y-117284174D01*
X181916653Y-117284186D01*
X181897768Y-117487995D01*
X174878820Y-117487995D01*
X174880688Y-117475000D01*
X174860042Y-117331404D01*
X174799777Y-117199442D01*
X174799774Y-117199438D01*
X174704773Y-117089801D01*
X174582736Y-117011373D01*
X174582727Y-117011369D01*
X174443538Y-116970500D01*
X174443536Y-116970500D01*
X174298464Y-116970500D01*
X174298462Y-116970500D01*
X174159272Y-117011369D01*
X174159263Y-117011373D01*
X174037226Y-117089801D01*
X173942225Y-117199438D01*
X173942222Y-117199443D01*
X173881958Y-117331402D01*
X173881957Y-117331405D01*
X173861312Y-117475000D01*
X170688000Y-117475000D01*
X170688000Y-116205000D01*
X172464312Y-116205000D01*
X172484957Y-116348594D01*
X172484958Y-116348597D01*
X172545222Y-116480556D01*
X172545225Y-116480561D01*
X172640226Y-116590198D01*
X172762263Y-116668626D01*
X172762268Y-116668629D01*
X172811212Y-116683000D01*
X172901461Y-116709499D01*
X172901463Y-116709500D01*
X172901464Y-116709500D01*
X173046537Y-116709500D01*
X173046537Y-116709499D01*
X173185732Y-116668629D01*
X173288137Y-116602817D01*
X173307773Y-116590198D01*
X173402774Y-116480561D01*
X173402777Y-116480558D01*
X173463042Y-116348596D01*
X173483688Y-116205000D01*
X173463042Y-116061404D01*
X173402777Y-115929442D01*
X173402774Y-115929438D01*
X173307773Y-115819801D01*
X173185736Y-115741373D01*
X173185727Y-115741369D01*
X173046538Y-115700500D01*
X173046536Y-115700500D01*
X172901464Y-115700500D01*
X172901462Y-115700500D01*
X172762272Y-115741369D01*
X172762263Y-115741373D01*
X172640226Y-115819801D01*
X172545225Y-115929438D01*
X172545222Y-115929443D01*
X172484958Y-116061402D01*
X172484957Y-116061405D01*
X172464312Y-116205000D01*
X170688000Y-116205000D01*
X170688000Y-115443000D01*
X174623312Y-115443000D01*
X174643957Y-115586594D01*
X174643958Y-115586597D01*
X174704222Y-115718556D01*
X174704225Y-115718561D01*
X174799226Y-115828198D01*
X174915531Y-115902942D01*
X174921268Y-115906629D01*
X174998967Y-115929443D01*
X175060461Y-115947499D01*
X175060463Y-115947500D01*
X175060464Y-115947500D01*
X175205537Y-115947500D01*
X175205537Y-115947499D01*
X175344732Y-115906629D01*
X175390535Y-115877192D01*
X175466773Y-115828198D01*
X175466775Y-115828196D01*
X175561777Y-115718558D01*
X175622042Y-115586596D01*
X175642688Y-115443000D01*
X175622042Y-115299404D01*
X175561777Y-115167442D01*
X175561774Y-115167438D01*
X175466773Y-115057801D01*
X175344736Y-114979373D01*
X175344727Y-114979369D01*
X175205538Y-114938500D01*
X175205536Y-114938500D01*
X175060464Y-114938500D01*
X175060462Y-114938500D01*
X174921272Y-114979369D01*
X174921263Y-114979373D01*
X174799226Y-115057801D01*
X174704225Y-115167438D01*
X174704222Y-115167443D01*
X174643958Y-115299402D01*
X174643957Y-115299405D01*
X174623312Y-115443000D01*
X170688000Y-115443000D01*
X170688000Y-112395000D01*
X172972312Y-112395000D01*
X172992957Y-112538594D01*
X172992958Y-112538597D01*
X173053222Y-112670556D01*
X173053225Y-112670561D01*
X173148226Y-112780198D01*
X173270263Y-112858626D01*
X173270268Y-112858629D01*
X173409461Y-112899499D01*
X173409463Y-112899500D01*
X173409464Y-112899500D01*
X173554537Y-112899500D01*
X173554537Y-112899499D01*
X173693732Y-112858629D01*
X173771421Y-112808701D01*
X173815773Y-112780198D01*
X173910774Y-112670561D01*
X173910777Y-112670558D01*
X173971042Y-112538596D01*
X173991688Y-112395000D01*
X173971042Y-112251404D01*
X173910777Y-112119442D01*
X173910774Y-112119438D01*
X173815773Y-112009801D01*
X173693736Y-111931373D01*
X173693727Y-111931369D01*
X173554538Y-111890500D01*
X173554536Y-111890500D01*
X173409464Y-111890500D01*
X173409462Y-111890500D01*
X173270272Y-111931369D01*
X173270263Y-111931373D01*
X173148226Y-112009801D01*
X173053225Y-112119438D01*
X173053222Y-112119443D01*
X172992958Y-112251402D01*
X172992957Y-112251405D01*
X172972312Y-112395000D01*
X170688000Y-112395000D01*
X170688000Y-111125000D01*
X172972312Y-111125000D01*
X172992957Y-111268594D01*
X172992958Y-111268597D01*
X173053222Y-111400556D01*
X173053225Y-111400561D01*
X173148226Y-111510198D01*
X173270263Y-111588626D01*
X173270268Y-111588629D01*
X173409461Y-111629499D01*
X173409463Y-111629500D01*
X173409464Y-111629500D01*
X173554537Y-111629500D01*
X173554537Y-111629499D01*
X173693732Y-111588629D01*
X173780393Y-111532935D01*
X173780398Y-111532932D01*
X181902500Y-111532932D01*
X181902500Y-113283064D01*
X181902501Y-113283068D01*
X181917265Y-113357299D01*
X181917267Y-113357303D01*
X181973515Y-113441484D01*
X182057697Y-113497733D01*
X182057699Y-113497734D01*
X182131933Y-113512500D01*
X183882066Y-113512499D01*
X183956301Y-113497734D01*
X184040484Y-113441484D01*
X184096734Y-113357301D01*
X184111500Y-113283067D01*
X184111499Y-112407995D01*
X184437768Y-112407995D01*
X184437768Y-112408004D01*
X184456653Y-112611813D01*
X184456655Y-112611825D01*
X184504562Y-112780198D01*
X184512672Y-112808701D01*
X184603912Y-112991935D01*
X184603913Y-112991936D01*
X184603915Y-112991940D01*
X184727259Y-113155275D01*
X184727264Y-113155280D01*
X184727268Y-113155285D01*
X184829870Y-113248819D01*
X184878533Y-113293182D01*
X184878534Y-113293183D01*
X184878538Y-113293186D01*
X185052573Y-113400944D01*
X185243444Y-113474888D01*
X185444653Y-113512500D01*
X185444656Y-113512500D01*
X185649344Y-113512500D01*
X185649347Y-113512500D01*
X185850556Y-113474888D01*
X186041427Y-113400944D01*
X186215462Y-113293186D01*
X186366732Y-113155285D01*
X186490088Y-112991935D01*
X186581328Y-112808701D01*
X186637345Y-112611821D01*
X186637346Y-112611813D01*
X186656232Y-112408004D01*
X186656232Y-112407995D01*
X186637346Y-112204186D01*
X186637344Y-112204174D01*
X186613234Y-112119438D01*
X186581328Y-112007299D01*
X186490088Y-111824065D01*
X186490085Y-111824061D01*
X186490084Y-111824059D01*
X186366740Y-111660724D01*
X186366735Y-111660719D01*
X186366732Y-111660715D01*
X186271834Y-111574204D01*
X186215466Y-111522817D01*
X186215463Y-111522815D01*
X186215462Y-111522814D01*
X186041427Y-111415056D01*
X186041425Y-111415055D01*
X185936781Y-111374516D01*
X185850556Y-111341112D01*
X185850553Y-111341111D01*
X185850552Y-111341111D01*
X185649351Y-111303500D01*
X185649347Y-111303500D01*
X185444653Y-111303500D01*
X185444648Y-111303500D01*
X185243447Y-111341111D01*
X185052574Y-111415055D01*
X184878533Y-111522817D01*
X184727266Y-111660717D01*
X184727259Y-111660724D01*
X184603915Y-111824059D01*
X184603912Y-111824065D01*
X184512672Y-112007298D01*
X184456655Y-112204174D01*
X184456653Y-112204186D01*
X184437768Y-112407995D01*
X184111499Y-112407995D01*
X184111499Y-111532934D01*
X184096734Y-111458699D01*
X184096732Y-111458696D01*
X184040484Y-111374515D01*
X183956302Y-111318266D01*
X183956300Y-111318265D01*
X183882067Y-111303500D01*
X182131935Y-111303500D01*
X182131931Y-111303501D01*
X182057700Y-111318265D01*
X182057696Y-111318267D01*
X181973515Y-111374515D01*
X181917266Y-111458697D01*
X181917265Y-111458699D01*
X181902500Y-111532932D01*
X173780398Y-111532932D01*
X173815773Y-111510198D01*
X173815775Y-111510196D01*
X173910777Y-111400558D01*
X173971042Y-111268596D01*
X173991688Y-111125000D01*
X173971042Y-110981404D01*
X173910777Y-110849442D01*
X173910774Y-110849438D01*
X173815773Y-110739801D01*
X173723498Y-110680500D01*
X176464812Y-110680500D01*
X176485457Y-110824094D01*
X176485458Y-110824097D01*
X176545722Y-110956056D01*
X176545725Y-110956061D01*
X176640726Y-111065698D01*
X176762763Y-111144126D01*
X176762768Y-111144129D01*
X176901961Y-111184999D01*
X176901963Y-111185000D01*
X176901964Y-111185000D01*
X177047037Y-111185000D01*
X177047037Y-111184999D01*
X177186232Y-111144129D01*
X177232035Y-111114692D01*
X177308273Y-111065698D01*
X177308275Y-111065696D01*
X177403277Y-110956058D01*
X177463542Y-110824096D01*
X177484188Y-110680500D01*
X177463542Y-110536904D01*
X177403277Y-110404942D01*
X177403274Y-110404938D01*
X177308273Y-110295301D01*
X177186236Y-110216873D01*
X177186227Y-110216869D01*
X177047038Y-110176000D01*
X177047036Y-110176000D01*
X176901964Y-110176000D01*
X176901962Y-110176000D01*
X176762772Y-110216869D01*
X176762763Y-110216873D01*
X176640726Y-110295301D01*
X176545725Y-110404938D01*
X176545722Y-110404943D01*
X176485458Y-110536902D01*
X176485457Y-110536905D01*
X176464812Y-110680500D01*
X173723498Y-110680500D01*
X173693736Y-110661373D01*
X173693727Y-110661369D01*
X173554538Y-110620500D01*
X173554536Y-110620500D01*
X173409464Y-110620500D01*
X173409462Y-110620500D01*
X173270272Y-110661369D01*
X173270263Y-110661373D01*
X173148226Y-110739801D01*
X173053225Y-110849438D01*
X173053222Y-110849443D01*
X172992958Y-110981402D01*
X172992957Y-110981405D01*
X172972312Y-111125000D01*
X170688000Y-111125000D01*
X170688000Y-108585000D01*
X172972312Y-108585000D01*
X172992957Y-108728594D01*
X172992958Y-108728597D01*
X173053222Y-108860556D01*
X173053225Y-108860561D01*
X173148226Y-108970198D01*
X173270263Y-109048626D01*
X173270268Y-109048629D01*
X173409461Y-109089499D01*
X173409463Y-109089500D01*
X173409464Y-109089500D01*
X173554537Y-109089500D01*
X173554537Y-109089499D01*
X173693732Y-109048629D01*
X173739535Y-109019192D01*
X173815773Y-108970198D01*
X173910774Y-108860561D01*
X173910777Y-108860558D01*
X173971042Y-108728596D01*
X173991688Y-108585000D01*
X173971042Y-108441404D01*
X173910777Y-108309442D01*
X173910774Y-108309438D01*
X173815773Y-108199801D01*
X173693736Y-108121373D01*
X173693727Y-108121369D01*
X173554538Y-108080500D01*
X173554536Y-108080500D01*
X173409464Y-108080500D01*
X173409462Y-108080500D01*
X173270272Y-108121369D01*
X173270263Y-108121373D01*
X173148226Y-108199801D01*
X173053225Y-108309438D01*
X173053222Y-108309443D01*
X172992958Y-108441402D01*
X172992957Y-108441405D01*
X172972312Y-108585000D01*
X170688000Y-108585000D01*
X170688000Y-102107995D01*
X181897768Y-102107995D01*
X181897768Y-102108004D01*
X181916653Y-102311813D01*
X181916655Y-102311825D01*
X181972672Y-102508701D01*
X182063912Y-102691935D01*
X182063913Y-102691936D01*
X182063915Y-102691940D01*
X182187259Y-102855275D01*
X182187264Y-102855280D01*
X182187268Y-102855285D01*
X182289870Y-102948819D01*
X182338533Y-102993182D01*
X182338534Y-102993183D01*
X182338538Y-102993186D01*
X182512573Y-103100944D01*
X182703444Y-103174888D01*
X182904653Y-103212500D01*
X182904656Y-103212500D01*
X183109344Y-103212500D01*
X183109347Y-103212500D01*
X183310556Y-103174888D01*
X183501427Y-103100944D01*
X183675462Y-102993186D01*
X183826732Y-102855285D01*
X183950088Y-102691935D01*
X184041328Y-102508701D01*
X184097345Y-102311821D01*
X184116232Y-102108000D01*
X184116232Y-102107995D01*
X184437768Y-102107995D01*
X184437768Y-102108004D01*
X184456653Y-102311813D01*
X184456655Y-102311825D01*
X184512672Y-102508701D01*
X184603912Y-102691935D01*
X184603913Y-102691936D01*
X184603915Y-102691940D01*
X184727259Y-102855275D01*
X184727264Y-102855280D01*
X184727268Y-102855285D01*
X184829870Y-102948819D01*
X184878533Y-102993182D01*
X184878534Y-102993183D01*
X184878538Y-102993186D01*
X185052573Y-103100944D01*
X185243444Y-103174888D01*
X185444653Y-103212500D01*
X185444656Y-103212500D01*
X185649344Y-103212500D01*
X185649347Y-103212500D01*
X185850556Y-103174888D01*
X186041427Y-103100944D01*
X186215462Y-102993186D01*
X186366732Y-102855285D01*
X186490088Y-102691935D01*
X186581328Y-102508701D01*
X186637345Y-102311821D01*
X186656232Y-102108000D01*
X186644139Y-101977500D01*
X186637346Y-101904186D01*
X186637344Y-101904174D01*
X186593067Y-101748558D01*
X186581328Y-101707299D01*
X186490088Y-101524065D01*
X186490085Y-101524061D01*
X186490084Y-101524059D01*
X186366740Y-101360724D01*
X186366735Y-101360719D01*
X186366732Y-101360715D01*
X186271834Y-101274204D01*
X186215466Y-101222817D01*
X186215463Y-101222815D01*
X186215462Y-101222814D01*
X186041427Y-101115056D01*
X186041425Y-101115055D01*
X185985948Y-101093563D01*
X185850556Y-101041112D01*
X185850553Y-101041111D01*
X185850552Y-101041111D01*
X185649351Y-101003500D01*
X185649347Y-101003500D01*
X185444653Y-101003500D01*
X185444648Y-101003500D01*
X185243447Y-101041111D01*
X185052574Y-101115055D01*
X184878533Y-101222817D01*
X184727266Y-101360717D01*
X184727259Y-101360724D01*
X184603915Y-101524059D01*
X184603912Y-101524065D01*
X184512672Y-101707298D01*
X184456655Y-101904174D01*
X184456653Y-101904186D01*
X184437768Y-102107995D01*
X184116232Y-102107995D01*
X184104139Y-101977500D01*
X184097346Y-101904186D01*
X184097344Y-101904174D01*
X184053067Y-101748558D01*
X184041328Y-101707299D01*
X183950088Y-101524065D01*
X183950085Y-101524061D01*
X183950084Y-101524059D01*
X183826740Y-101360724D01*
X183826735Y-101360719D01*
X183826732Y-101360715D01*
X183731834Y-101274204D01*
X183675466Y-101222817D01*
X183675463Y-101222815D01*
X183675462Y-101222814D01*
X183501427Y-101115056D01*
X183501425Y-101115055D01*
X183445948Y-101093563D01*
X183310556Y-101041112D01*
X183310553Y-101041111D01*
X183310552Y-101041111D01*
X183109351Y-101003500D01*
X183109347Y-101003500D01*
X182904653Y-101003500D01*
X182904648Y-101003500D01*
X182703447Y-101041111D01*
X182512574Y-101115055D01*
X182338533Y-101222817D01*
X182187266Y-101360717D01*
X182187259Y-101360724D01*
X182063915Y-101524059D01*
X182063912Y-101524065D01*
X181972672Y-101707298D01*
X181916655Y-101904174D01*
X181916653Y-101904186D01*
X181897768Y-102107995D01*
X170688000Y-102107995D01*
X170688000Y-101473000D01*
X172972312Y-101473000D01*
X172992957Y-101616594D01*
X172992958Y-101616597D01*
X173053222Y-101748556D01*
X173053225Y-101748561D01*
X173148226Y-101858198D01*
X173270263Y-101936626D01*
X173270268Y-101936629D01*
X173409461Y-101977499D01*
X173409463Y-101977500D01*
X173409464Y-101977500D01*
X173554537Y-101977500D01*
X173554537Y-101977499D01*
X173693732Y-101936629D01*
X173744225Y-101904179D01*
X173815773Y-101858198D01*
X173910774Y-101748561D01*
X173910777Y-101748558D01*
X173971042Y-101616596D01*
X173991688Y-101473000D01*
X173971042Y-101329404D01*
X173910777Y-101197442D01*
X173910774Y-101197438D01*
X173815773Y-101087801D01*
X173693736Y-101009373D01*
X173693727Y-101009369D01*
X173554538Y-100968500D01*
X173554536Y-100968500D01*
X173409464Y-100968500D01*
X173409462Y-100968500D01*
X173270272Y-101009369D01*
X173270263Y-101009373D01*
X173148226Y-101087801D01*
X173053225Y-101197438D01*
X173053222Y-101197443D01*
X172992958Y-101329402D01*
X172992957Y-101329405D01*
X172972312Y-101473000D01*
X170688000Y-101473000D01*
X170688000Y-100203000D01*
X172972312Y-100203000D01*
X172992957Y-100346594D01*
X172992958Y-100346597D01*
X173053222Y-100478556D01*
X173053225Y-100478561D01*
X173148226Y-100588198D01*
X173270263Y-100666626D01*
X173270268Y-100666629D01*
X173409461Y-100707499D01*
X173409463Y-100707500D01*
X173409464Y-100707500D01*
X173554537Y-100707500D01*
X173554537Y-100707499D01*
X173693732Y-100666629D01*
X173743122Y-100634888D01*
X173815773Y-100588198D01*
X173910774Y-100478561D01*
X173910777Y-100478558D01*
X173971042Y-100346596D01*
X173991688Y-100203000D01*
X173971042Y-100059404D01*
X173910777Y-99927442D01*
X173910774Y-99927438D01*
X173815773Y-99817801D01*
X173693736Y-99739373D01*
X173693727Y-99739369D01*
X173554538Y-99698500D01*
X173554536Y-99698500D01*
X173409464Y-99698500D01*
X173409462Y-99698500D01*
X173270272Y-99739369D01*
X173270263Y-99739373D01*
X173148226Y-99817801D01*
X173053225Y-99927438D01*
X173053222Y-99927443D01*
X172992958Y-100059402D01*
X172992957Y-100059405D01*
X172972312Y-100203000D01*
X170688000Y-100203000D01*
X170688000Y-99567995D01*
X181897768Y-99567995D01*
X181897768Y-99568004D01*
X181916653Y-99771813D01*
X181916655Y-99771825D01*
X181960933Y-99927442D01*
X181972672Y-99968701D01*
X182063912Y-100151935D01*
X182063913Y-100151936D01*
X182063915Y-100151940D01*
X182187259Y-100315275D01*
X182187264Y-100315280D01*
X182187268Y-100315285D01*
X182221616Y-100346597D01*
X182338533Y-100453182D01*
X182338534Y-100453183D01*
X182338538Y-100453186D01*
X182512573Y-100560944D01*
X182703444Y-100634888D01*
X182904653Y-100672500D01*
X182904656Y-100672500D01*
X183109344Y-100672500D01*
X183109347Y-100672500D01*
X183310556Y-100634888D01*
X183501427Y-100560944D01*
X183675462Y-100453186D01*
X183826732Y-100315285D01*
X183950088Y-100151935D01*
X184041328Y-99968701D01*
X184097345Y-99771821D01*
X184100352Y-99739369D01*
X184116232Y-99568004D01*
X184116232Y-99567995D01*
X184437768Y-99567995D01*
X184437768Y-99568004D01*
X184456653Y-99771813D01*
X184456655Y-99771825D01*
X184500933Y-99927442D01*
X184512672Y-99968701D01*
X184603912Y-100151935D01*
X184603913Y-100151936D01*
X184603915Y-100151940D01*
X184727259Y-100315275D01*
X184727264Y-100315280D01*
X184727268Y-100315285D01*
X184761616Y-100346597D01*
X184878533Y-100453182D01*
X184878534Y-100453183D01*
X184878538Y-100453186D01*
X185052573Y-100560944D01*
X185243444Y-100634888D01*
X185444653Y-100672500D01*
X185444656Y-100672500D01*
X185649344Y-100672500D01*
X185649347Y-100672500D01*
X185850556Y-100634888D01*
X186041427Y-100560944D01*
X186215462Y-100453186D01*
X186366732Y-100315285D01*
X186490088Y-100151935D01*
X186581328Y-99968701D01*
X186637345Y-99771821D01*
X186640352Y-99739369D01*
X186656232Y-99568004D01*
X186656232Y-99567995D01*
X186637346Y-99364186D01*
X186637344Y-99364174D01*
X186593067Y-99208558D01*
X186581328Y-99167299D01*
X186490088Y-98984065D01*
X186490085Y-98984061D01*
X186490084Y-98984059D01*
X186366740Y-98820724D01*
X186366735Y-98820719D01*
X186366732Y-98820715D01*
X186271834Y-98734204D01*
X186215466Y-98682817D01*
X186215463Y-98682815D01*
X186215462Y-98682814D01*
X186041427Y-98575056D01*
X186041425Y-98575055D01*
X185985948Y-98553563D01*
X185850556Y-98501112D01*
X185850553Y-98501111D01*
X185850552Y-98501111D01*
X185649351Y-98463500D01*
X185649347Y-98463500D01*
X185444653Y-98463500D01*
X185444648Y-98463500D01*
X185243447Y-98501111D01*
X185052574Y-98575055D01*
X184878533Y-98682817D01*
X184727266Y-98820717D01*
X184727259Y-98820724D01*
X184603915Y-98984059D01*
X184603912Y-98984065D01*
X184512672Y-99167298D01*
X184456655Y-99364174D01*
X184456653Y-99364186D01*
X184437768Y-99567995D01*
X184116232Y-99567995D01*
X184097346Y-99364186D01*
X184097344Y-99364174D01*
X184053067Y-99208558D01*
X184041328Y-99167299D01*
X183950088Y-98984065D01*
X183950085Y-98984061D01*
X183950084Y-98984059D01*
X183826740Y-98820724D01*
X183826735Y-98820719D01*
X183826732Y-98820715D01*
X183731834Y-98734204D01*
X183675466Y-98682817D01*
X183675463Y-98682815D01*
X183675462Y-98682814D01*
X183501427Y-98575056D01*
X183501425Y-98575055D01*
X183445948Y-98553563D01*
X183310556Y-98501112D01*
X183310553Y-98501111D01*
X183310552Y-98501111D01*
X183109351Y-98463500D01*
X183109347Y-98463500D01*
X182904653Y-98463500D01*
X182904648Y-98463500D01*
X182703447Y-98501111D01*
X182512574Y-98575055D01*
X182338533Y-98682817D01*
X182187266Y-98820717D01*
X182187259Y-98820724D01*
X182063915Y-98984059D01*
X182063912Y-98984065D01*
X181972672Y-99167298D01*
X181916655Y-99364174D01*
X181916653Y-99364186D01*
X181897768Y-99567995D01*
X170688000Y-99567995D01*
X170688000Y-98933000D01*
X174496312Y-98933000D01*
X174516957Y-99076594D01*
X174516958Y-99076597D01*
X174577222Y-99208556D01*
X174577225Y-99208561D01*
X174672226Y-99318198D01*
X174794263Y-99396626D01*
X174794268Y-99396629D01*
X174933461Y-99437499D01*
X174933463Y-99437500D01*
X174933464Y-99437500D01*
X175078537Y-99437500D01*
X175078537Y-99437499D01*
X175217732Y-99396629D01*
X175268225Y-99364179D01*
X175339773Y-99318198D01*
X175434774Y-99208561D01*
X175434777Y-99208558D01*
X175495042Y-99076596D01*
X175515688Y-98933000D01*
X175495042Y-98789404D01*
X175434777Y-98657442D01*
X175434774Y-98657438D01*
X175339773Y-98547801D01*
X175217736Y-98469373D01*
X175217727Y-98469369D01*
X175078538Y-98428500D01*
X175078536Y-98428500D01*
X174933464Y-98428500D01*
X174933462Y-98428500D01*
X174794272Y-98469369D01*
X174794263Y-98469373D01*
X174672226Y-98547801D01*
X174577225Y-98657438D01*
X174577222Y-98657443D01*
X174516958Y-98789402D01*
X174516957Y-98789405D01*
X174496312Y-98933000D01*
X170688000Y-98933000D01*
X170688000Y-97663000D01*
X172972312Y-97663000D01*
X172992957Y-97806594D01*
X172992958Y-97806597D01*
X173053222Y-97938556D01*
X173053225Y-97938561D01*
X173148226Y-98048198D01*
X173270263Y-98126626D01*
X173270268Y-98126629D01*
X173409461Y-98167499D01*
X173409463Y-98167500D01*
X173409464Y-98167500D01*
X173554537Y-98167500D01*
X173554537Y-98167499D01*
X173693732Y-98126629D01*
X173743122Y-98094888D01*
X173815773Y-98048198D01*
X173910774Y-97938561D01*
X173910777Y-97938558D01*
X173971042Y-97806596D01*
X173991688Y-97663000D01*
X173971042Y-97519404D01*
X173910777Y-97387442D01*
X173910774Y-97387438D01*
X173815773Y-97277801D01*
X173693736Y-97199373D01*
X173693727Y-97199369D01*
X173554538Y-97158500D01*
X173554536Y-97158500D01*
X173409464Y-97158500D01*
X173409462Y-97158500D01*
X173270272Y-97199369D01*
X173270263Y-97199373D01*
X173148226Y-97277801D01*
X173053225Y-97387438D01*
X173053222Y-97387443D01*
X172992958Y-97519402D01*
X172992957Y-97519405D01*
X172972312Y-97663000D01*
X170688000Y-97663000D01*
X170688000Y-97027995D01*
X181897768Y-97027995D01*
X181897768Y-97028004D01*
X181916653Y-97231813D01*
X181916655Y-97231825D01*
X181960933Y-97387442D01*
X181972672Y-97428701D01*
X182063912Y-97611935D01*
X182063913Y-97611936D01*
X182063915Y-97611940D01*
X182187259Y-97775275D01*
X182187264Y-97775280D01*
X182187268Y-97775285D01*
X182221616Y-97806597D01*
X182338533Y-97913182D01*
X182338534Y-97913183D01*
X182338538Y-97913186D01*
X182512573Y-98020944D01*
X182703444Y-98094888D01*
X182904653Y-98132500D01*
X182904656Y-98132500D01*
X183109344Y-98132500D01*
X183109347Y-98132500D01*
X183310556Y-98094888D01*
X183501427Y-98020944D01*
X183675462Y-97913186D01*
X183826732Y-97775285D01*
X183950088Y-97611935D01*
X184041328Y-97428701D01*
X184097345Y-97231821D01*
X184100352Y-97199369D01*
X184116232Y-97028004D01*
X184116232Y-97027995D01*
X184437768Y-97027995D01*
X184437768Y-97028004D01*
X184456653Y-97231813D01*
X184456655Y-97231825D01*
X184500933Y-97387442D01*
X184512672Y-97428701D01*
X184603912Y-97611935D01*
X184603913Y-97611936D01*
X184603915Y-97611940D01*
X184727259Y-97775275D01*
X184727264Y-97775280D01*
X184727268Y-97775285D01*
X184761616Y-97806597D01*
X184878533Y-97913182D01*
X184878534Y-97913183D01*
X184878538Y-97913186D01*
X185052573Y-98020944D01*
X185243444Y-98094888D01*
X185444653Y-98132500D01*
X185444656Y-98132500D01*
X185649344Y-98132500D01*
X185649347Y-98132500D01*
X185850556Y-98094888D01*
X186041427Y-98020944D01*
X186215462Y-97913186D01*
X186366732Y-97775285D01*
X186490088Y-97611935D01*
X186581328Y-97428701D01*
X186637345Y-97231821D01*
X186640352Y-97199369D01*
X186656232Y-97028004D01*
X186656232Y-97027995D01*
X186637346Y-96824186D01*
X186637344Y-96824174D01*
X186616542Y-96751066D01*
X186581328Y-96627299D01*
X186490088Y-96444065D01*
X186490085Y-96444061D01*
X186490084Y-96444059D01*
X186366740Y-96280724D01*
X186366735Y-96280719D01*
X186366732Y-96280715D01*
X186271834Y-96194204D01*
X186215466Y-96142817D01*
X186215463Y-96142815D01*
X186215462Y-96142814D01*
X186041427Y-96035056D01*
X186041425Y-96035055D01*
X185985948Y-96013563D01*
X185850556Y-95961112D01*
X185850553Y-95961111D01*
X185850552Y-95961111D01*
X185649351Y-95923500D01*
X185649347Y-95923500D01*
X185444653Y-95923500D01*
X185444648Y-95923500D01*
X185243447Y-95961111D01*
X185052574Y-96035055D01*
X184878533Y-96142817D01*
X184727266Y-96280717D01*
X184727259Y-96280724D01*
X184603915Y-96444059D01*
X184603912Y-96444065D01*
X184512672Y-96627298D01*
X184456655Y-96824174D01*
X184456653Y-96824186D01*
X184437768Y-97027995D01*
X184116232Y-97027995D01*
X184097346Y-96824186D01*
X184097344Y-96824174D01*
X184076542Y-96751066D01*
X184041328Y-96627299D01*
X183950088Y-96444065D01*
X183950085Y-96444061D01*
X183950084Y-96444059D01*
X183826740Y-96280724D01*
X183826735Y-96280719D01*
X183826732Y-96280715D01*
X183731834Y-96194204D01*
X183675466Y-96142817D01*
X183675463Y-96142815D01*
X183675462Y-96142814D01*
X183501427Y-96035056D01*
X183501425Y-96035055D01*
X183445948Y-96013563D01*
X183310556Y-95961112D01*
X183310553Y-95961111D01*
X183310552Y-95961111D01*
X183109351Y-95923500D01*
X183109347Y-95923500D01*
X182904653Y-95923500D01*
X182904648Y-95923500D01*
X182703447Y-95961111D01*
X182512574Y-96035055D01*
X182338533Y-96142817D01*
X182187266Y-96280717D01*
X182187259Y-96280724D01*
X182063915Y-96444059D01*
X182063912Y-96444065D01*
X181972672Y-96627298D01*
X181916655Y-96824174D01*
X181916653Y-96824186D01*
X181897768Y-97027995D01*
X170688000Y-97027995D01*
X170688000Y-95631000D01*
X174877312Y-95631000D01*
X174897957Y-95774594D01*
X174897958Y-95774597D01*
X174958222Y-95906556D01*
X174958225Y-95906561D01*
X175053226Y-96016198D01*
X175175263Y-96094626D01*
X175175268Y-96094629D01*
X175314461Y-96135499D01*
X175314463Y-96135500D01*
X175314464Y-96135500D01*
X175459537Y-96135500D01*
X175459537Y-96135499D01*
X175598732Y-96094629D01*
X175691429Y-96035056D01*
X175720773Y-96016198D01*
X175720775Y-96016196D01*
X175815777Y-95906558D01*
X175876042Y-95774596D01*
X175896688Y-95631000D01*
X175876042Y-95487404D01*
X175815777Y-95355442D01*
X175815774Y-95355438D01*
X175720773Y-95245801D01*
X175598736Y-95167373D01*
X175598727Y-95167369D01*
X175459538Y-95126500D01*
X175459536Y-95126500D01*
X175314464Y-95126500D01*
X175314462Y-95126500D01*
X175175272Y-95167369D01*
X175175263Y-95167373D01*
X175053226Y-95245801D01*
X174958225Y-95355438D01*
X174958222Y-95355443D01*
X174897958Y-95487402D01*
X174897957Y-95487405D01*
X174877312Y-95631000D01*
X170688000Y-95631000D01*
X170688000Y-94487995D01*
X181897768Y-94487995D01*
X181897768Y-94488004D01*
X181916653Y-94691813D01*
X181916655Y-94691825D01*
X181972672Y-94888701D01*
X182063912Y-95071935D01*
X182063913Y-95071936D01*
X182063915Y-95071940D01*
X182187259Y-95235275D01*
X182187264Y-95235280D01*
X182187268Y-95235285D01*
X182289870Y-95328819D01*
X182338533Y-95373182D01*
X182338534Y-95373183D01*
X182338538Y-95373186D01*
X182512573Y-95480944D01*
X182703444Y-95554888D01*
X182904653Y-95592500D01*
X182904656Y-95592500D01*
X183109344Y-95592500D01*
X183109347Y-95592500D01*
X183310556Y-95554888D01*
X183501427Y-95480944D01*
X183675462Y-95373186D01*
X183826732Y-95235285D01*
X183950088Y-95071935D01*
X184041328Y-94888701D01*
X184097345Y-94691821D01*
X184116232Y-94488000D01*
X184116232Y-94487995D01*
X184437768Y-94487995D01*
X184437768Y-94488004D01*
X184456653Y-94691813D01*
X184456655Y-94691825D01*
X184512672Y-94888701D01*
X184603912Y-95071935D01*
X184603913Y-95071936D01*
X184603915Y-95071940D01*
X184727259Y-95235275D01*
X184727264Y-95235280D01*
X184727268Y-95235285D01*
X184829870Y-95328819D01*
X184878533Y-95373182D01*
X184878534Y-95373183D01*
X184878538Y-95373186D01*
X185052573Y-95480944D01*
X185243444Y-95554888D01*
X185444653Y-95592500D01*
X185444656Y-95592500D01*
X185649344Y-95592500D01*
X185649347Y-95592500D01*
X185850556Y-95554888D01*
X186041427Y-95480944D01*
X186215462Y-95373186D01*
X186366732Y-95235285D01*
X186490088Y-95071935D01*
X186581328Y-94888701D01*
X186637345Y-94691821D01*
X186656232Y-94488000D01*
X186652120Y-94443630D01*
X186637346Y-94284186D01*
X186637344Y-94284174D01*
X186593067Y-94128558D01*
X186581328Y-94087299D01*
X186490088Y-93904065D01*
X186490085Y-93904061D01*
X186490084Y-93904059D01*
X186366740Y-93740724D01*
X186366735Y-93740719D01*
X186366732Y-93740715D01*
X186271834Y-93654204D01*
X186215466Y-93602817D01*
X186215463Y-93602815D01*
X186215462Y-93602814D01*
X186041427Y-93495056D01*
X186041425Y-93495055D01*
X185985948Y-93473563D01*
X185850556Y-93421112D01*
X185850553Y-93421111D01*
X185850552Y-93421111D01*
X185649351Y-93383500D01*
X185649347Y-93383500D01*
X185444653Y-93383500D01*
X185444648Y-93383500D01*
X185243447Y-93421111D01*
X185052574Y-93495055D01*
X184878533Y-93602817D01*
X184727266Y-93740717D01*
X184727259Y-93740724D01*
X184603915Y-93904059D01*
X184603912Y-93904065D01*
X184512672Y-94087298D01*
X184456655Y-94284174D01*
X184456653Y-94284186D01*
X184437768Y-94487995D01*
X184116232Y-94487995D01*
X184112120Y-94443630D01*
X184097346Y-94284186D01*
X184097344Y-94284174D01*
X184053067Y-94128558D01*
X184041328Y-94087299D01*
X183950088Y-93904065D01*
X183950085Y-93904061D01*
X183950084Y-93904059D01*
X183826740Y-93740724D01*
X183826735Y-93740719D01*
X183826732Y-93740715D01*
X183731834Y-93654204D01*
X183675466Y-93602817D01*
X183675463Y-93602815D01*
X183675462Y-93602814D01*
X183501427Y-93495056D01*
X183501425Y-93495055D01*
X183445948Y-93473563D01*
X183310556Y-93421112D01*
X183310553Y-93421111D01*
X183310552Y-93421111D01*
X183109351Y-93383500D01*
X183109347Y-93383500D01*
X182904653Y-93383500D01*
X182904648Y-93383500D01*
X182703447Y-93421111D01*
X182512574Y-93495055D01*
X182338533Y-93602817D01*
X182187266Y-93740717D01*
X182187259Y-93740724D01*
X182063915Y-93904059D01*
X182063912Y-93904065D01*
X181972672Y-94087298D01*
X181916655Y-94284174D01*
X181916653Y-94284186D01*
X181897768Y-94487995D01*
X170688000Y-94487995D01*
X170688000Y-93853000D01*
X172083312Y-93853000D01*
X172103957Y-93996594D01*
X172103958Y-93996597D01*
X172164222Y-94128556D01*
X172164225Y-94128561D01*
X172259226Y-94238198D01*
X172381263Y-94316626D01*
X172381268Y-94316629D01*
X172520461Y-94357499D01*
X172520463Y-94357500D01*
X172520464Y-94357500D01*
X172665537Y-94357500D01*
X172665537Y-94357499D01*
X172804732Y-94316629D01*
X172855225Y-94284179D01*
X172926773Y-94238198D01*
X173021774Y-94128561D01*
X173021777Y-94128558D01*
X173082042Y-93996596D01*
X173084428Y-93980000D01*
X174877312Y-93980000D01*
X174897957Y-94123594D01*
X174897958Y-94123597D01*
X174958222Y-94255556D01*
X174958225Y-94255561D01*
X175053226Y-94365198D01*
X175175263Y-94443626D01*
X175175268Y-94443629D01*
X175314461Y-94484499D01*
X175314463Y-94484500D01*
X175314464Y-94484500D01*
X175459537Y-94484500D01*
X175459537Y-94484499D01*
X175598732Y-94443629D01*
X175644535Y-94414192D01*
X175720773Y-94365198D01*
X175720775Y-94365196D01*
X175815777Y-94255558D01*
X175876042Y-94123596D01*
X175896688Y-93980000D01*
X175876042Y-93836404D01*
X175815777Y-93704442D01*
X175815774Y-93704438D01*
X175720773Y-93594801D01*
X175598736Y-93516373D01*
X175598727Y-93516369D01*
X175459538Y-93475500D01*
X175459536Y-93475500D01*
X175314464Y-93475500D01*
X175314462Y-93475500D01*
X175175272Y-93516369D01*
X175175263Y-93516373D01*
X175053226Y-93594801D01*
X174958225Y-93704438D01*
X174958222Y-93704443D01*
X174897958Y-93836402D01*
X174897957Y-93836405D01*
X174877312Y-93980000D01*
X173084428Y-93980000D01*
X173102688Y-93853000D01*
X173082042Y-93709404D01*
X173021777Y-93577442D01*
X173021774Y-93577438D01*
X172926773Y-93467801D01*
X172804736Y-93389373D01*
X172804727Y-93389369D01*
X172665538Y-93348500D01*
X172665536Y-93348500D01*
X172520464Y-93348500D01*
X172520462Y-93348500D01*
X172381272Y-93389369D01*
X172381263Y-93389373D01*
X172259226Y-93467801D01*
X172164225Y-93577438D01*
X172164222Y-93577443D01*
X172103958Y-93709402D01*
X172103957Y-93709405D01*
X172083312Y-93853000D01*
X170688000Y-93853000D01*
X170688000Y-88532932D01*
X181902500Y-88532932D01*
X181902500Y-90283064D01*
X181902501Y-90283068D01*
X181917265Y-90357299D01*
X181917267Y-90357303D01*
X181973515Y-90441484D01*
X182057697Y-90497733D01*
X182057699Y-90497734D01*
X182131933Y-90512500D01*
X183882066Y-90512499D01*
X183956301Y-90497734D01*
X184040484Y-90441484D01*
X184096734Y-90357301D01*
X184111500Y-90283067D01*
X184111499Y-89407995D01*
X184437768Y-89407995D01*
X184437768Y-89408004D01*
X184456653Y-89611813D01*
X184456655Y-89611825D01*
X184512672Y-89808701D01*
X184603912Y-89991935D01*
X184603913Y-89991936D01*
X184603915Y-89991940D01*
X184727259Y-90155275D01*
X184727264Y-90155280D01*
X184727268Y-90155285D01*
X184829870Y-90248819D01*
X184878533Y-90293182D01*
X184878534Y-90293183D01*
X184878538Y-90293186D01*
X185052573Y-90400944D01*
X185243444Y-90474888D01*
X185444653Y-90512500D01*
X185444656Y-90512500D01*
X185649344Y-90512500D01*
X185649347Y-90512500D01*
X185850556Y-90474888D01*
X186041427Y-90400944D01*
X186215462Y-90293186D01*
X186366732Y-90155285D01*
X186490088Y-89991935D01*
X186581328Y-89808701D01*
X186637345Y-89611821D01*
X186656232Y-89408000D01*
X186637345Y-89204179D01*
X186581328Y-89007299D01*
X186490088Y-88824065D01*
X186490085Y-88824061D01*
X186490084Y-88824059D01*
X186366740Y-88660724D01*
X186366735Y-88660719D01*
X186366732Y-88660715D01*
X186271834Y-88574204D01*
X186215466Y-88522817D01*
X186215463Y-88522815D01*
X186215462Y-88522814D01*
X186041427Y-88415056D01*
X186041425Y-88415055D01*
X185936781Y-88374516D01*
X185850556Y-88341112D01*
X185850553Y-88341111D01*
X185850552Y-88341111D01*
X185649351Y-88303500D01*
X185649347Y-88303500D01*
X185444653Y-88303500D01*
X185444648Y-88303500D01*
X185243447Y-88341111D01*
X185052574Y-88415055D01*
X184878533Y-88522817D01*
X184727266Y-88660717D01*
X184727259Y-88660724D01*
X184603915Y-88824059D01*
X184603912Y-88824065D01*
X184512672Y-89007298D01*
X184456655Y-89204174D01*
X184456653Y-89204186D01*
X184437768Y-89407995D01*
X184111499Y-89407995D01*
X184111499Y-88532934D01*
X184096734Y-88458699D01*
X184096732Y-88458696D01*
X184040484Y-88374515D01*
X183956302Y-88318266D01*
X183956300Y-88318265D01*
X183882067Y-88303500D01*
X182131935Y-88303500D01*
X182131931Y-88303501D01*
X182057700Y-88318265D01*
X182057696Y-88318267D01*
X181973515Y-88374515D01*
X181917266Y-88458697D01*
X181917265Y-88458699D01*
X181902500Y-88532932D01*
X170688000Y-88532932D01*
X170688000Y-85344000D01*
X170688000Y-85090000D01*
X170434000Y-85090000D01*
X159029888Y-85090000D01*
X158985694Y-85071694D01*
X158768306Y-84854306D01*
X158750000Y-84810112D01*
X158750000Y-83820000D01*
X175766312Y-83820000D01*
X175786957Y-83963594D01*
X175786958Y-83963597D01*
X175847222Y-84095556D01*
X175847225Y-84095561D01*
X175942226Y-84205198D01*
X176064263Y-84283626D01*
X176064268Y-84283629D01*
X176203461Y-84324499D01*
X176203463Y-84324500D01*
X176203464Y-84324500D01*
X176348537Y-84324500D01*
X176348537Y-84324499D01*
X176487732Y-84283629D01*
X176533535Y-84254192D01*
X176609773Y-84205198D01*
X176704774Y-84095561D01*
X176704777Y-84095558D01*
X176765042Y-83963596D01*
X176785688Y-83820000D01*
X176765042Y-83676404D01*
X176704777Y-83544442D01*
X176680295Y-83516188D01*
X176609773Y-83434801D01*
X176487736Y-83356373D01*
X176487727Y-83356369D01*
X176348538Y-83315500D01*
X176348536Y-83315500D01*
X176203464Y-83315500D01*
X176203462Y-83315500D01*
X176064272Y-83356369D01*
X176064263Y-83356373D01*
X175942226Y-83434801D01*
X175847225Y-83544438D01*
X175847222Y-83544443D01*
X175786958Y-83676402D01*
X175786957Y-83676405D01*
X175766312Y-83820000D01*
X158750000Y-83820000D01*
X158750000Y-79248000D01*
X168527312Y-79248000D01*
X168547957Y-79391594D01*
X168547958Y-79391597D01*
X168608222Y-79523556D01*
X168608225Y-79523561D01*
X168703226Y-79633198D01*
X168825263Y-79711626D01*
X168825268Y-79711629D01*
X168964461Y-79752499D01*
X168964463Y-79752500D01*
X168964464Y-79752500D01*
X169109537Y-79752500D01*
X169109537Y-79752499D01*
X169248732Y-79711629D01*
X169294535Y-79682192D01*
X169370773Y-79633198D01*
X169374411Y-79629000D01*
X169465777Y-79523558D01*
X169488148Y-79474571D01*
X169523158Y-79441976D01*
X169570963Y-79443683D01*
X169601852Y-79474572D01*
X169624222Y-79523556D01*
X169624225Y-79523561D01*
X169719226Y-79633198D01*
X169841263Y-79711626D01*
X169841268Y-79711629D01*
X169980461Y-79752499D01*
X169980463Y-79752500D01*
X169980464Y-79752500D01*
X170125537Y-79752500D01*
X170125537Y-79752499D01*
X170264732Y-79711629D01*
X170310535Y-79682192D01*
X170386773Y-79633198D01*
X170390411Y-79629000D01*
X170450266Y-79559922D01*
X170493041Y-79538511D01*
X170538429Y-79553618D01*
X170544730Y-79559919D01*
X170570611Y-79589787D01*
X170608226Y-79633198D01*
X170730263Y-79711626D01*
X170730268Y-79711629D01*
X170869461Y-79752499D01*
X170869463Y-79752500D01*
X170869464Y-79752500D01*
X171014537Y-79752500D01*
X171014537Y-79752499D01*
X171153732Y-79711629D01*
X171199535Y-79682192D01*
X171275773Y-79633198D01*
X171279411Y-79629000D01*
X176020312Y-79629000D01*
X176040957Y-79772594D01*
X176040958Y-79772597D01*
X176101222Y-79904556D01*
X176101225Y-79904561D01*
X176196226Y-80014198D01*
X176318263Y-80092626D01*
X176318268Y-80092629D01*
X176457461Y-80133499D01*
X176457463Y-80133500D01*
X176457464Y-80133500D01*
X176602537Y-80133500D01*
X176602537Y-80133499D01*
X176741732Y-80092629D01*
X176813710Y-80046370D01*
X176860785Y-80037877D01*
X176881288Y-80046370D01*
X176953268Y-80092629D01*
X177092461Y-80133499D01*
X177092463Y-80133500D01*
X177092464Y-80133500D01*
X177237537Y-80133500D01*
X177237537Y-80133499D01*
X177376732Y-80092629D01*
X177448710Y-80046370D01*
X177495785Y-80037877D01*
X177516288Y-80046370D01*
X177588268Y-80092629D01*
X177727461Y-80133499D01*
X177727463Y-80133500D01*
X177727464Y-80133500D01*
X177872537Y-80133500D01*
X177872537Y-80133499D01*
X178011732Y-80092629D01*
X178057535Y-80063192D01*
X178133773Y-80014198D01*
X178228774Y-79904561D01*
X178228777Y-79904558D01*
X178289042Y-79772596D01*
X178309688Y-79629000D01*
X178289042Y-79485404D01*
X178228777Y-79353442D01*
X178137411Y-79248000D01*
X178133773Y-79243801D01*
X178011736Y-79165373D01*
X178011727Y-79165369D01*
X177872538Y-79124500D01*
X177872536Y-79124500D01*
X177727464Y-79124500D01*
X177727462Y-79124500D01*
X177588272Y-79165369D01*
X177588263Y-79165373D01*
X177516290Y-79211628D01*
X177469215Y-79220122D01*
X177448710Y-79211628D01*
X177376736Y-79165373D01*
X177376727Y-79165369D01*
X177237538Y-79124500D01*
X177237536Y-79124500D01*
X177092464Y-79124500D01*
X177092462Y-79124500D01*
X176953272Y-79165369D01*
X176953263Y-79165373D01*
X176881290Y-79211628D01*
X176834215Y-79220122D01*
X176813710Y-79211628D01*
X176741736Y-79165373D01*
X176741727Y-79165369D01*
X176602538Y-79124500D01*
X176602536Y-79124500D01*
X176457464Y-79124500D01*
X176457462Y-79124500D01*
X176318272Y-79165369D01*
X176318263Y-79165373D01*
X176196226Y-79243801D01*
X176101225Y-79353438D01*
X176101222Y-79353443D01*
X176040958Y-79485402D01*
X176040957Y-79485405D01*
X176020312Y-79629000D01*
X171279411Y-79629000D01*
X171370777Y-79523558D01*
X171431042Y-79391596D01*
X171451688Y-79248000D01*
X171431042Y-79104404D01*
X171370777Y-78972442D01*
X171370774Y-78972438D01*
X171275773Y-78862801D01*
X171153736Y-78784373D01*
X171153727Y-78784369D01*
X171014538Y-78743500D01*
X171014536Y-78743500D01*
X170869464Y-78743500D01*
X170869462Y-78743500D01*
X170730272Y-78784369D01*
X170730263Y-78784373D01*
X170608226Y-78862801D01*
X170544734Y-78936075D01*
X170501958Y-78957487D01*
X170456571Y-78942380D01*
X170450266Y-78936075D01*
X170386773Y-78862801D01*
X170264736Y-78784373D01*
X170264727Y-78784369D01*
X170125538Y-78743500D01*
X170125536Y-78743500D01*
X169980464Y-78743500D01*
X169980462Y-78743500D01*
X169841272Y-78784369D01*
X169841263Y-78784373D01*
X169719226Y-78862801D01*
X169624225Y-78972438D01*
X169624222Y-78972443D01*
X169601852Y-79021427D01*
X169566842Y-79054023D01*
X169519037Y-79052316D01*
X169488148Y-79021427D01*
X169465777Y-78972443D01*
X169465777Y-78972442D01*
X169465774Y-78972438D01*
X169370773Y-78862801D01*
X169248736Y-78784373D01*
X169248727Y-78784369D01*
X169109538Y-78743500D01*
X169109536Y-78743500D01*
X168964464Y-78743500D01*
X168964462Y-78743500D01*
X168825272Y-78784369D01*
X168825263Y-78784373D01*
X168703226Y-78862801D01*
X168608225Y-78972438D01*
X168608222Y-78972443D01*
X168547958Y-79104402D01*
X168547957Y-79104405D01*
X168527312Y-79248000D01*
X158750000Y-79248000D01*
X158750000Y-71627999D01*
X166495701Y-71627999D01*
X166495701Y-71628000D01*
X166514837Y-71797847D01*
X166571293Y-71959188D01*
X166571294Y-71959189D01*
X166662227Y-72103906D01*
X166662228Y-72103908D01*
X166777126Y-72218806D01*
X166795432Y-72263000D01*
X166777126Y-72307194D01*
X166662228Y-72422091D01*
X166662227Y-72422093D01*
X166571294Y-72566810D01*
X166571293Y-72566811D01*
X166514837Y-72728152D01*
X166495701Y-72897999D01*
X166495701Y-72898000D01*
X166514837Y-73067847D01*
X166571293Y-73229188D01*
X166571294Y-73229189D01*
X166662227Y-73373906D01*
X166662228Y-73373908D01*
X166777126Y-73488806D01*
X166795432Y-73533000D01*
X166777126Y-73577194D01*
X166662228Y-73692091D01*
X166662227Y-73692093D01*
X166571294Y-73836810D01*
X166571293Y-73836811D01*
X166514837Y-73998152D01*
X166495701Y-74167999D01*
X166495701Y-74168000D01*
X166514837Y-74337847D01*
X166571293Y-74499188D01*
X166571294Y-74499189D01*
X166662227Y-74643906D01*
X166662228Y-74643908D01*
X166783091Y-74764771D01*
X166783093Y-74764772D01*
X166927810Y-74855705D01*
X166927811Y-74855706D01*
X166927813Y-74855706D01*
X166927817Y-74855709D01*
X167089150Y-74912162D01*
X167259000Y-74931299D01*
X167428850Y-74912162D01*
X167590183Y-74855709D01*
X167734909Y-74764771D01*
X167855771Y-74643909D01*
X167946709Y-74499183D01*
X168003162Y-74337850D01*
X168022299Y-74168000D01*
X168003162Y-73998150D01*
X167946709Y-73836817D01*
X167946706Y-73836813D01*
X167946706Y-73836811D01*
X167946705Y-73836810D01*
X167855772Y-73692093D01*
X167855771Y-73692091D01*
X167740874Y-73577194D01*
X167722568Y-73533000D01*
X167740874Y-73488806D01*
X167855771Y-73373909D01*
X167946709Y-73229183D01*
X168003162Y-73067850D01*
X168022299Y-72898000D01*
X168003162Y-72728150D01*
X167946709Y-72566817D01*
X167946706Y-72566813D01*
X167946706Y-72566811D01*
X167946705Y-72566810D01*
X167855772Y-72422093D01*
X167855771Y-72422091D01*
X167740874Y-72307194D01*
X167722568Y-72263000D01*
X167740874Y-72218806D01*
X167855771Y-72103909D01*
X167946709Y-71959183D01*
X168003162Y-71797850D01*
X168022299Y-71628000D01*
X168003162Y-71458150D01*
X167946709Y-71296817D01*
X167946706Y-71296813D01*
X167946706Y-71296811D01*
X167946705Y-71296810D01*
X167855772Y-71152093D01*
X167855771Y-71152091D01*
X167734908Y-71031228D01*
X167734906Y-71031227D01*
X167590189Y-70940294D01*
X167590188Y-70940293D01*
X167590183Y-70940291D01*
X167428850Y-70883838D01*
X167428849Y-70883837D01*
X167428847Y-70883837D01*
X167259000Y-70864701D01*
X167089152Y-70883837D01*
X166927811Y-70940293D01*
X166927810Y-70940294D01*
X166783093Y-71031227D01*
X166783091Y-71031228D01*
X166662228Y-71152091D01*
X166662227Y-71152093D01*
X166571294Y-71296810D01*
X166571293Y-71296811D01*
X166514837Y-71458152D01*
X166495701Y-71627999D01*
X158750000Y-71627999D01*
X158750000Y-69976999D01*
X170178701Y-69976999D01*
X170178701Y-69977000D01*
X170197837Y-70146847D01*
X170254293Y-70308188D01*
X170254294Y-70308189D01*
X170345227Y-70452906D01*
X170345228Y-70452908D01*
X170466091Y-70573771D01*
X170466093Y-70573772D01*
X170610810Y-70664705D01*
X170610811Y-70664706D01*
X170610813Y-70664706D01*
X170610817Y-70664709D01*
X170772150Y-70721162D01*
X170942000Y-70740299D01*
X171111850Y-70721162D01*
X171273183Y-70664709D01*
X171417909Y-70573771D01*
X171532806Y-70458874D01*
X171577000Y-70440568D01*
X171621194Y-70458874D01*
X171736091Y-70573771D01*
X171736093Y-70573772D01*
X171880810Y-70664705D01*
X171880811Y-70664706D01*
X171880813Y-70664706D01*
X171880817Y-70664709D01*
X172042150Y-70721162D01*
X172212000Y-70740299D01*
X172381850Y-70721162D01*
X172543183Y-70664709D01*
X172687909Y-70573771D01*
X172802806Y-70458874D01*
X172847000Y-70440568D01*
X172891194Y-70458874D01*
X173006091Y-70573771D01*
X173006093Y-70573772D01*
X173150810Y-70664705D01*
X173150811Y-70664706D01*
X173150813Y-70664706D01*
X173150817Y-70664709D01*
X173312150Y-70721162D01*
X173482000Y-70740299D01*
X173651850Y-70721162D01*
X173813183Y-70664709D01*
X173957909Y-70573771D01*
X174078771Y-70452909D01*
X174169709Y-70308183D01*
X174226162Y-70146850D01*
X174245299Y-69977000D01*
X174245299Y-69976999D01*
X175004701Y-69976999D01*
X175004701Y-69977000D01*
X175023837Y-70146847D01*
X175080293Y-70308188D01*
X175080294Y-70308189D01*
X175171227Y-70452906D01*
X175171228Y-70452908D01*
X175292091Y-70573771D01*
X175292093Y-70573772D01*
X175436810Y-70664705D01*
X175436811Y-70664706D01*
X175436813Y-70664706D01*
X175436817Y-70664709D01*
X175598150Y-70721162D01*
X175768000Y-70740299D01*
X175937850Y-70721162D01*
X176099183Y-70664709D01*
X176243909Y-70573771D01*
X176358806Y-70458874D01*
X176403000Y-70440568D01*
X176447194Y-70458874D01*
X176562091Y-70573771D01*
X176562093Y-70573772D01*
X176706810Y-70664705D01*
X176706811Y-70664706D01*
X176706813Y-70664706D01*
X176706817Y-70664709D01*
X176868150Y-70721162D01*
X177038000Y-70740299D01*
X177207850Y-70721162D01*
X177369183Y-70664709D01*
X177513909Y-70573771D01*
X177628806Y-70458874D01*
X177673000Y-70440568D01*
X177717194Y-70458874D01*
X177832091Y-70573771D01*
X177832093Y-70573772D01*
X177976810Y-70664705D01*
X177976811Y-70664706D01*
X177976813Y-70664706D01*
X177976817Y-70664709D01*
X178138150Y-70721162D01*
X178308000Y-70740299D01*
X178477850Y-70721162D01*
X178639183Y-70664709D01*
X178783909Y-70573771D01*
X178904771Y-70452909D01*
X178995709Y-70308183D01*
X179052162Y-70146850D01*
X179071299Y-69977000D01*
X179052162Y-69807150D01*
X178995709Y-69645817D01*
X178995706Y-69645813D01*
X178995706Y-69645811D01*
X178995705Y-69645810D01*
X178904772Y-69501093D01*
X178904771Y-69501091D01*
X178783908Y-69380228D01*
X178783906Y-69380227D01*
X178639189Y-69289294D01*
X178639188Y-69289293D01*
X178639183Y-69289291D01*
X178477850Y-69232838D01*
X178477849Y-69232837D01*
X178477847Y-69232837D01*
X178308000Y-69213701D01*
X178138152Y-69232837D01*
X177976811Y-69289293D01*
X177976810Y-69289294D01*
X177832093Y-69380227D01*
X177832091Y-69380228D01*
X177717194Y-69495126D01*
X177673000Y-69513432D01*
X177628806Y-69495126D01*
X177513908Y-69380228D01*
X177513906Y-69380227D01*
X177369189Y-69289294D01*
X177369188Y-69289293D01*
X177369183Y-69289291D01*
X177207850Y-69232838D01*
X177207849Y-69232837D01*
X177207847Y-69232837D01*
X177038000Y-69213701D01*
X176868152Y-69232837D01*
X176706811Y-69289293D01*
X176706810Y-69289294D01*
X176562093Y-69380227D01*
X176562091Y-69380228D01*
X176447194Y-69495126D01*
X176403000Y-69513432D01*
X176358806Y-69495126D01*
X176243908Y-69380228D01*
X176243906Y-69380227D01*
X176099189Y-69289294D01*
X176099188Y-69289293D01*
X176099183Y-69289291D01*
X175937850Y-69232838D01*
X175937849Y-69232837D01*
X175937847Y-69232837D01*
X175768000Y-69213701D01*
X175598152Y-69232837D01*
X175436811Y-69289293D01*
X175436810Y-69289294D01*
X175292093Y-69380227D01*
X175292091Y-69380228D01*
X175171228Y-69501091D01*
X175171227Y-69501093D01*
X175080294Y-69645810D01*
X175080293Y-69645811D01*
X175023837Y-69807152D01*
X175004701Y-69976999D01*
X174245299Y-69976999D01*
X174226162Y-69807150D01*
X174169709Y-69645817D01*
X174169706Y-69645813D01*
X174169706Y-69645811D01*
X174169705Y-69645810D01*
X174078772Y-69501093D01*
X174078771Y-69501091D01*
X173957908Y-69380228D01*
X173957906Y-69380227D01*
X173813189Y-69289294D01*
X173813188Y-69289293D01*
X173813183Y-69289291D01*
X173651850Y-69232838D01*
X173651849Y-69232837D01*
X173651847Y-69232837D01*
X173482000Y-69213701D01*
X173312152Y-69232837D01*
X173150811Y-69289293D01*
X173150810Y-69289294D01*
X173006093Y-69380227D01*
X173006091Y-69380228D01*
X172891194Y-69495126D01*
X172847000Y-69513432D01*
X172802806Y-69495126D01*
X172687908Y-69380228D01*
X172687906Y-69380227D01*
X172543189Y-69289294D01*
X172543188Y-69289293D01*
X172543183Y-69289291D01*
X172381850Y-69232838D01*
X172381849Y-69232837D01*
X172381847Y-69232837D01*
X172212000Y-69213701D01*
X172042152Y-69232837D01*
X171880811Y-69289293D01*
X171880810Y-69289294D01*
X171736093Y-69380227D01*
X171736091Y-69380228D01*
X171621194Y-69495126D01*
X171577000Y-69513432D01*
X171532806Y-69495126D01*
X171417908Y-69380228D01*
X171417906Y-69380227D01*
X171273189Y-69289294D01*
X171273188Y-69289293D01*
X171273183Y-69289291D01*
X171111850Y-69232838D01*
X171111849Y-69232837D01*
X171111847Y-69232837D01*
X170942000Y-69213701D01*
X170772152Y-69232837D01*
X170610811Y-69289293D01*
X170610810Y-69289294D01*
X170466093Y-69380227D01*
X170466091Y-69380228D01*
X170345228Y-69501091D01*
X170345227Y-69501093D01*
X170254294Y-69645810D01*
X170254293Y-69645811D01*
X170197837Y-69807152D01*
X170178701Y-69976999D01*
X158750000Y-69976999D01*
X158750000Y-67889965D01*
X158768306Y-67845771D01*
X158823746Y-67790331D01*
X158933676Y-67625809D01*
X159009397Y-67443002D01*
X159048000Y-67248935D01*
X159048000Y-65551065D01*
X159047978Y-65550952D01*
X159325000Y-65550952D01*
X159325000Y-67249047D01*
X159355989Y-67444705D01*
X159417201Y-67633095D01*
X159417202Y-67633098D01*
X159448344Y-67694218D01*
X159507134Y-67809598D01*
X159507137Y-67809602D01*
X159623569Y-67969857D01*
X159623576Y-67969865D01*
X159763634Y-68109923D01*
X159763642Y-68109930D01*
X159923902Y-68226366D01*
X160100403Y-68316298D01*
X160288800Y-68377512D01*
X160484454Y-68408500D01*
X160484456Y-68408500D01*
X160682544Y-68408500D01*
X160682546Y-68408500D01*
X160878200Y-68377512D01*
X161066597Y-68316298D01*
X161243098Y-68226366D01*
X161403358Y-68109930D01*
X161543430Y-67969858D01*
X161659866Y-67809598D01*
X161749798Y-67633097D01*
X161811012Y-67444700D01*
X161842000Y-67249046D01*
X161842000Y-65550954D01*
X161811012Y-65355300D01*
X161749798Y-65166903D01*
X161659866Y-64990402D01*
X161543430Y-64830142D01*
X161543423Y-64830134D01*
X161403365Y-64690076D01*
X161403357Y-64690069D01*
X161243102Y-64573637D01*
X161243098Y-64573634D01*
X161127718Y-64514844D01*
X161066598Y-64483702D01*
X161066595Y-64483701D01*
X160878205Y-64422489D01*
X160878201Y-64422488D01*
X160878200Y-64422488D01*
X160767106Y-64404892D01*
X160682547Y-64391500D01*
X160682546Y-64391500D01*
X160484454Y-64391500D01*
X160484452Y-64391500D01*
X160288794Y-64422489D01*
X160100404Y-64483701D01*
X160100401Y-64483702D01*
X159978160Y-64545987D01*
X159923902Y-64573634D01*
X159923899Y-64573635D01*
X159923897Y-64573637D01*
X159763642Y-64690069D01*
X159763634Y-64690076D01*
X159623576Y-64830134D01*
X159623569Y-64830142D01*
X159507137Y-64990397D01*
X159417202Y-65166901D01*
X159417201Y-65166904D01*
X159355989Y-65355294D01*
X159325000Y-65550952D01*
X159047978Y-65550952D01*
X159009397Y-65356998D01*
X158933676Y-65174191D01*
X158823746Y-65009669D01*
X158768306Y-64954229D01*
X158750000Y-64910035D01*
X158750000Y-62083564D01*
X168667500Y-62083564D01*
X168667500Y-63281435D01*
X168706102Y-63475500D01*
X168706102Y-63475501D01*
X168781824Y-63658309D01*
X168781825Y-63658311D01*
X168891753Y-63822830D01*
X168891754Y-63822831D01*
X169031669Y-63962746D01*
X169196191Y-64072676D01*
X169378998Y-64148397D01*
X169573065Y-64187000D01*
X169770935Y-64187000D01*
X169965002Y-64148397D01*
X170147809Y-64072676D01*
X170312331Y-63962746D01*
X170452246Y-63822831D01*
X170562176Y-63658309D01*
X170637897Y-63475502D01*
X170676500Y-63281435D01*
X170676500Y-62083565D01*
X170637897Y-61889498D01*
X170562176Y-61706691D01*
X170452246Y-61542169D01*
X170312331Y-61402254D01*
X170284813Y-61383867D01*
X170284794Y-61383854D01*
X173493500Y-61383854D01*
X173493500Y-63981145D01*
X173500011Y-64041702D01*
X173551109Y-64178700D01*
X173551110Y-64178702D01*
X173551111Y-64178704D01*
X173638739Y-64295761D01*
X173755796Y-64383389D01*
X173892799Y-64434489D01*
X173953362Y-64441000D01*
X173953368Y-64441000D01*
X175550632Y-64441000D01*
X175550638Y-64441000D01*
X175611201Y-64434489D01*
X175748204Y-64383389D01*
X175865261Y-64295761D01*
X175952889Y-64178704D01*
X176003989Y-64041701D01*
X176010500Y-63981138D01*
X176010500Y-63878354D01*
X185095500Y-63878354D01*
X185095500Y-66575645D01*
X185102011Y-66636202D01*
X185153109Y-66773200D01*
X185153110Y-66773202D01*
X185153111Y-66773204D01*
X185240739Y-66890261D01*
X185357796Y-66977889D01*
X185494799Y-67028989D01*
X185555362Y-67035500D01*
X185555368Y-67035500D01*
X188252632Y-67035500D01*
X188252638Y-67035500D01*
X188313201Y-67028989D01*
X188450204Y-66977889D01*
X188567261Y-66890261D01*
X188654889Y-66773204D01*
X188705989Y-66636201D01*
X188712500Y-66575638D01*
X188712500Y-63878362D01*
X188705989Y-63817799D01*
X188654889Y-63680796D01*
X188567261Y-63563739D01*
X188450204Y-63476111D01*
X188450202Y-63476110D01*
X188450200Y-63476109D01*
X188313202Y-63425011D01*
X188252645Y-63418500D01*
X188252638Y-63418500D01*
X185555362Y-63418500D01*
X185555354Y-63418500D01*
X185494797Y-63425011D01*
X185357799Y-63476109D01*
X185357794Y-63476112D01*
X185240739Y-63563739D01*
X185153112Y-63680794D01*
X185153109Y-63680799D01*
X185102011Y-63817797D01*
X185095500Y-63878354D01*
X176010500Y-63878354D01*
X176010500Y-61383862D01*
X176003989Y-61323299D01*
X175952889Y-61186296D01*
X175865261Y-61069239D01*
X175748204Y-60981611D01*
X175748202Y-60981610D01*
X175748200Y-60981609D01*
X175611202Y-60930511D01*
X175550645Y-60924000D01*
X175550638Y-60924000D01*
X173953362Y-60924000D01*
X173953354Y-60924000D01*
X173892797Y-60930511D01*
X173755799Y-60981609D01*
X173755794Y-60981612D01*
X173638739Y-61069239D01*
X173551112Y-61186294D01*
X173551109Y-61186299D01*
X173500011Y-61323297D01*
X173493500Y-61383854D01*
X170284794Y-61383854D01*
X170147811Y-61292325D01*
X170147809Y-61292324D01*
X169965000Y-61216602D01*
X169770935Y-61178000D01*
X169573065Y-61178000D01*
X169378999Y-61216602D01*
X169378998Y-61216602D01*
X169196190Y-61292324D01*
X169196188Y-61292325D01*
X169031669Y-61402253D01*
X168891753Y-61542169D01*
X168781825Y-61706688D01*
X168781824Y-61706690D01*
X168706102Y-61889498D01*
X168706102Y-61889499D01*
X168667500Y-62083564D01*
X158750000Y-62083564D01*
X158750000Y-60731888D01*
X158768306Y-60687694D01*
X158937194Y-60518806D01*
X158981388Y-60500500D01*
X189252612Y-60500500D01*
X189296806Y-60518806D01*
G37*
G04 #@! TD.AperFunction*
G04 #@! TD*
M02*
