M48
; DRILL file {KiCad 8.0.4} date 2024-09-02T12:45:48+0200
; FORMAT={-:-/ absolute / inch / decimal}
; #@! TF.CreationDate,2024-09-02T12:45:48+02:00
; #@! TF.GenerationSoftware,Kicad,Pcbnew,8.0.4
; #@! TF.FileFunction,Plated,1,4,PTH
FMAT,2
INCH
; #@! TA.AperFunction,Plated,PTH,ViaDrill
T1C0.0079
; #@! TA.AperFunction,Plated,PTH,ComponentDrill
T2C0.0079
; #@! TA.AperFunction,Plated,PTH,ComponentDrill
T3C0.0118
; #@! TA.AperFunction,Plated,PTH,ComponentDrill
T4C0.0197
; #@! TA.AperFunction,Plated,PTH,ComponentDrill
T5C0.0315
; #@! TA.AperFunction,Plated,PTH,ComponentDrill
T6C0.0394
; #@! TA.AperFunction,Plated,PTH,ComponentDrill
T7C0.0512
; #@! TA.AperFunction,Plated,PTH,ComponentDrill
T8C0.0551
%
G90
G05
T1
X3.89Y-3.845
X3.89Y-3.97
X3.89Y-4.3
X3.89Y-4.425
X4.0972Y-4.26
X4.1228Y-4.01
X4.2676Y-3.815
X4.2676Y-4.455
X4.3424Y-3.82
X4.3424Y-4.455
X4.475Y-3.96
X4.4793Y-4.3043
X4.48Y-2.455
X4.48Y-2.555
X4.48Y-2.655
X4.48Y-3.18
X4.48Y-3.28
X4.48Y-3.38
X4.48Y-3.48
X4.48Y-3.58
X4.48Y-4.45
X4.4898Y-4.19
X4.49Y-4.015
X4.51Y-3.885
X4.51Y-3.915
X4.51Y-4.34
X4.51Y-4.37
X4.52Y-3.755
X4.545Y-2.725
X4.545Y-2.99
X4.55Y-3.885
X4.55Y-3.915
X4.55Y-4.34
X4.55Y-4.37
X4.5793Y-3.9507
X4.58Y-3.7882
X4.595Y-2.725
X4.595Y-2.99
X4.6Y-4.3
X4.6Y-4.9
X4.6Y-5.0
X4.62Y-3.755
X4.645Y-2.725
X4.645Y-2.99
X4.645Y-4.195
X4.7Y-4.9
X4.7Y-5.0
X4.8Y-4.9
X4.8Y-5.0
X4.83Y-2.45
X4.83Y-2.5
X4.83Y-2.55
X4.835Y-2.775
X4.835Y-2.955
X4.8476Y-4.6074
X4.8476Y-4.6424
X4.865Y-2.775
X4.9Y-4.9
X4.9Y-5.0
X4.935Y-2.97
X4.94Y-2.45
X4.94Y-2.5
X4.94Y-2.55
X4.95Y-3.25
X4.95Y-3.35
X4.95Y-3.45
X4.95Y-3.55
X4.95Y-3.65
X4.95Y-3.75
X4.9621Y-4.3471
X4.965Y-2.97
X4.965Y-4.255
X4.98Y-4.015
X5.0Y-3.2
X5.0Y-3.8
X5.0Y-4.9
X5.0Y-5.0
X5.05Y-4.475
X5.055Y-4.015
X5.079Y-4.284
X5.08Y-2.64
X5.08Y-2.69
X5.08Y-2.74
X5.08Y-3.015
X5.08Y-3.06
X5.08Y-3.105
X5.1Y-3.2
X5.1Y-3.8
X5.1Y-4.9
X5.1Y-5.0
X5.11Y-2.945
X5.16Y-2.945
X5.17Y-4.59
X5.19Y-3.39
X5.2Y-3.2
X5.2Y-3.8
X5.2Y-4.9
X5.2Y-5.0
X5.21Y-2.945
X5.2378Y-4.1414
X5.295Y-4.135
X5.3Y-4.435
X5.3Y-4.9
X5.3Y-5.0
X5.305Y-4.05
X5.31Y-2.8787
X5.31Y-2.9237
X5.31Y-2.9687
X5.3175Y-3.9525
X5.32Y-4.195
X5.335Y-3.91
X5.35Y-2.8787
X5.35Y-2.9237
X5.35Y-2.9687
X5.355Y-3.53
X5.364Y-3.031
X5.39Y-3.4872
X5.4Y-3.2
X5.4Y-3.8
X5.4072Y-3.915
X5.4072Y-4.135
X5.445Y-4.435
X5.45Y-4.18
X5.4584Y-4.1222
X5.475Y-3.455
X5.476Y-4.524
X5.5Y-3.2
X5.5Y-3.8
X5.505Y-4.105
X5.505Y-4.41
X5.525Y-4.0122
X5.545Y-3.925
X5.56Y-2.945
X5.585Y-4.26
X5.6Y-3.2
X5.6Y-3.8
X5.61Y-2.945
X5.63Y-4.115
X5.63Y-4.155
X5.6376Y-4.4526
X5.65Y-3.25
X5.65Y-3.35
X5.65Y-3.45
X5.65Y-3.55
X5.65Y-3.65
X5.65Y-3.75
X5.655Y-4.49
X5.66Y-2.945
X5.67Y-4.115
X5.67Y-4.155
X5.725Y-4.215
X5.725Y-4.26
X5.735Y-4.49
X5.7526Y-3.6774
X5.755Y-3.81
X5.755Y-3.97
X5.76Y-2.8787
X5.76Y-2.9237
X5.76Y-2.9687
X5.7765Y-4.0965
X5.7777Y-4.265
X5.8Y-2.8787
X5.8Y-2.9237
X5.8Y-2.9687
X5.8Y-4.41
X5.814Y-3.031
X5.815Y-3.425
X5.839Y-4.524
X5.84Y-3.605
X5.85Y-3.6774
X5.87Y-3.93
X5.895Y-4.0
X5.9357Y-3.6026
X5.95Y-4.135
X5.97Y-3.18
X5.97Y-3.28
X5.97Y-3.38
X5.97Y-3.48
X5.985Y-3.92
X5.986Y-4.228
X6.013Y-4.071
X6.014Y-4.197
X6.015Y-4.135
X6.025Y-4.28
X6.025Y-4.31
X6.04Y-3.955
X6.04Y-3.982
X6.045Y-3.78
X6.048Y-4.071
X6.065Y-4.345
X6.077Y-4.071
X6.077Y-4.103
X6.077Y-4.135
X6.077Y-4.166
X6.077Y-4.197
X6.077Y-4.228
X6.095Y-3.78
X6.095Y-3.875
X6.1Y-3.98
X6.109Y-4.071
X6.109Y-4.103
X6.109Y-4.135
X6.109Y-4.166
X6.109Y-4.197
X6.139Y-4.071
X6.139Y-4.103
X6.139Y-4.135
X6.139Y-4.166
X6.139Y-4.197
X6.155Y-3.78
X6.195Y-3.955
X6.195Y-3.985
X6.206Y-4.262
X6.27Y-3.695
X6.27Y-4.574
X6.29Y-4.24
X6.33Y-3.235
X6.33Y-3.285
X6.355Y-4.08
X6.355Y-4.135
X6.355Y-4.19
X6.355Y-4.65
X6.355Y-4.75
X6.355Y-4.85
X6.355Y-4.95
X6.38Y-3.235
X6.38Y-3.285
X6.43Y-3.235
X6.43Y-3.285
X6.48Y-3.235
X6.48Y-3.285
X6.53Y-3.235
X6.53Y-3.285
X6.58Y-3.235
X6.58Y-3.285
X6.585Y-2.82
X6.585Y-2.87
X6.585Y-2.92
X6.655Y-3.12
X6.695Y-3.12
X6.73Y-2.755
X6.73Y-3.12
X6.74Y-4.65
X6.74Y-4.75
X6.74Y-4.85
X6.74Y-4.95
X6.755Y-4.08
X6.755Y-4.135
X6.755Y-4.19
X6.78Y-2.755
X6.795Y-3.695
X6.8Y-5.0
X6.81Y-4.575
X6.82Y-3.1
X6.82Y-3.145
X6.82Y-3.19
X6.83Y-2.755
X6.83Y-3.845
X6.83Y-3.945
X6.83Y-3.995
X6.83Y-4.275
X6.83Y-4.375
X6.83Y-4.425
X6.86Y-3.1
X6.86Y-3.145
X6.86Y-3.19
X6.865Y-4.625
X6.89Y-3.895
X6.895Y-4.545
X6.9Y-5.0
X6.905Y-3.7
X6.905Y-3.765
X6.92Y-2.755
X6.94Y-3.3
X6.95Y-3.135
X6.9675Y-4.3575
X6.97Y-2.755
X6.975Y-3.135
X6.975Y-3.265
X7.0Y-3.135
X7.0Y-5.0
X7.02Y-2.755
X7.1Y-5.0
X7.2Y-4.2
X7.2Y-4.25
X7.25Y-4.2
X7.25Y-4.25
X7.3Y-4.2
X7.3Y-4.25
X7.35Y-4.2
X7.35Y-4.25
X7.395Y-3.24
X7.395Y-3.275
X7.43Y-3.24
X7.43Y-3.275
T2
X4.0844Y-4.1133
X4.0844Y-4.1567
X4.1356Y-4.1133
X4.1356Y-4.1567
X4.5026Y-4.1133
X4.5026Y-4.1567
X4.5538Y-4.1133
X4.5538Y-4.1567
X4.8489Y-2.8748
X4.8594Y-3.9883
X4.8594Y-4.0317
X4.8594Y-4.2403
X4.8594Y-4.2836
X4.8804Y-2.859
X4.8804Y-2.8905
X4.9106Y-3.9883
X4.9106Y-4.0317
X4.9106Y-4.2403
X4.9106Y-4.2836
X4.9119Y-2.8748
X5.1994Y-3.9883
X5.1994Y-4.0317
X5.1994Y-4.2383
X5.1994Y-4.2817
X5.2506Y-3.9883
X5.2506Y-4.0317
X5.2506Y-4.2383
X5.2506Y-4.2817
T3
X5.3826Y-3.9876
X5.3826Y-4.025
X5.3826Y-4.0624
X5.42Y-3.9876
X5.42Y-4.025
X5.42Y-4.0624
X5.4574Y-3.9876
X5.4574Y-4.025
X5.4574Y-4.0624
T4
X4.73Y-4.3455
X4.73Y-4.4053
X4.73Y-4.4652
X4.73Y-4.525
T5
X3.84Y-4.035
X3.84Y-4.235
X3.94Y-4.135
X4.26Y-4.035
X4.26Y-4.235
X4.36Y-4.135
T6
X5.275Y-2.465
X5.375Y-2.465
X5.475Y-2.465
X5.7222Y-2.6142
X5.8222Y-2.6142
X5.9222Y-2.6142
X6.0222Y-2.6142
X6.2222Y-2.6142
X6.3222Y-2.6142
X6.4222Y-2.6142
X6.68Y-2.4678
X6.78Y-2.4678
X6.88Y-2.4678
X7.205Y-3.52
X7.205Y-3.62
X7.205Y-3.72
X7.205Y-3.82
X7.205Y-3.92
X7.205Y-4.02
X7.205Y-4.4255
X7.205Y-4.5255
X7.205Y-4.6255
X7.205Y-4.7255
X7.205Y-4.8255
X7.205Y-4.9255
X7.305Y-3.52
X7.305Y-3.62
X7.305Y-3.72
X7.305Y-3.82
X7.305Y-3.92
X7.305Y-4.02
X7.305Y-4.4255
X7.305Y-4.5255
X7.305Y-4.6255
X7.305Y-4.7255
X7.305Y-4.8255
X7.305Y-4.9255
T7
X7.1616Y-2.568
X7.3584Y-2.568
T8
X3.495Y-3.9476
X3.495Y-4.3224
M30
