%TF.GenerationSoftware,KiCad,Pcbnew,8.0.4*%
%TF.CreationDate,2024-09-02T12:19:12+02:00*%
%TF.ProjectId,AD4030-Voltage,41443430-3330-42d5-966f-6c746167652e,rev?*%
%TF.SameCoordinates,Original*%
%TF.FileFunction,Drillmap*%
%TF.FilePolarity,Positive*%
%FSLAX45Y45*%
G04 Gerber Fmt 4.5, Leading zero omitted, Abs format (unit mm)*
G04 Created by KiCad (PCBNEW 8.0.4) date 2024-09-02 12:19:12*
%MOMM*%
%LPD*%
G01*
G04 APERTURE LIST*
%ADD10C,0.050000*%
%ADD11C,0.200000*%
%ADD12C,0.160000*%
%ADD13C,0.320000*%
G04 APERTURE END LIST*
D10*
X13335000Y-8255000D02*
X13335000Y-8420100D01*
X12700000Y-9525000D02*
X13335000Y-9525000D01*
X13589000Y-9359900D02*
X14058900Y-9359900D01*
X13589000Y-8420100D02*
X14058900Y-8420100D01*
X15646400Y-6972300D02*
G75*
G02*
X15468600Y-6972300I-88900J0D01*
G01*
X14058900Y-9359900D02*
X14058900Y-9017000D01*
X8000000Y-6000000D02*
X19000000Y-6000000D01*
X19000000Y-13000000D01*
X8000000Y-13000000D01*
X8000000Y-6000000D01*
X12865100Y-8420100D02*
X12865100Y-8763000D01*
X13335000Y-9525000D02*
X13335000Y-9359900D01*
X14224000Y-9017000D02*
X14224000Y-9525000D01*
X12865100Y-9359900D02*
X12865100Y-9017000D01*
X13589000Y-8255000D02*
X13589000Y-8420100D01*
X12865100Y-9017000D02*
X12700000Y-9017000D01*
X12700000Y-9017000D02*
X12700000Y-9525000D01*
X14224000Y-9525000D02*
X13589000Y-9525000D01*
X14224000Y-8255000D02*
X13589000Y-8255000D01*
X15468600Y-6311900D02*
G75*
G02*
X15646400Y-6311900I88900J0D01*
G01*
X12700000Y-8763000D02*
X12700000Y-8255000D01*
X12700000Y-8255000D02*
X13335000Y-8255000D01*
X14058900Y-8763000D02*
X14224000Y-8763000D01*
X14058900Y-8420100D02*
X14058900Y-8763000D01*
X14224000Y-8763000D02*
X14224000Y-8255000D01*
X14058900Y-9017000D02*
X14224000Y-9017000D01*
X12865100Y-8763000D02*
X12700000Y-8763000D01*
X13335000Y-8420100D02*
X12865100Y-8420100D01*
X13335000Y-9359900D02*
X12865100Y-9359900D01*
X15646400Y-6972300D02*
X15646400Y-6311900D01*
X15468600Y-6311900D02*
X15468600Y-6972300D01*
X13589000Y-9525000D02*
X13589000Y-9359900D01*
D11*
D12*
X8107300Y-10422900D02*
X8267300Y-10582900D01*
X8267300Y-10422900D02*
X8107300Y-10582900D01*
X9157300Y-10422900D02*
X9317300Y-10582900D01*
X9317300Y-10422900D02*
X9157300Y-10582900D01*
D13*
X11160000Y-6350000D02*
G75*
G02*
X10840000Y-6350000I-160000J0D01*
G01*
X10840000Y-6350000D02*
G75*
G02*
X11160000Y-6350000I160000J0D01*
G01*
X11160000Y-12650000D02*
G75*
G02*
X10840000Y-12650000I-160000J0D01*
G01*
X10840000Y-12650000D02*
G75*
G02*
X11160000Y-12650000I160000J0D01*
G01*
D11*
X8258277Y-13313984D02*
X8258277Y-13113984D01*
X8258277Y-13113984D02*
X8305896Y-13113984D01*
X8305896Y-13113984D02*
X8334467Y-13123508D01*
X8334467Y-13123508D02*
X8353515Y-13142555D01*
X8353515Y-13142555D02*
X8363039Y-13161603D01*
X8363039Y-13161603D02*
X8372562Y-13199698D01*
X8372562Y-13199698D02*
X8372562Y-13228269D01*
X8372562Y-13228269D02*
X8363039Y-13266365D01*
X8363039Y-13266365D02*
X8353515Y-13285412D01*
X8353515Y-13285412D02*
X8334467Y-13304460D01*
X8334467Y-13304460D02*
X8305896Y-13313984D01*
X8305896Y-13313984D02*
X8258277Y-13313984D01*
X8458277Y-13313984D02*
X8458277Y-13180650D01*
X8458277Y-13218746D02*
X8467801Y-13199698D01*
X8467801Y-13199698D02*
X8477324Y-13190174D01*
X8477324Y-13190174D02*
X8496372Y-13180650D01*
X8496372Y-13180650D02*
X8515420Y-13180650D01*
X8582086Y-13313984D02*
X8582086Y-13180650D01*
X8582086Y-13113984D02*
X8572563Y-13123508D01*
X8572563Y-13123508D02*
X8582086Y-13133031D01*
X8582086Y-13133031D02*
X8591610Y-13123508D01*
X8591610Y-13123508D02*
X8582086Y-13113984D01*
X8582086Y-13113984D02*
X8582086Y-13133031D01*
X8705896Y-13313984D02*
X8686848Y-13304460D01*
X8686848Y-13304460D02*
X8677324Y-13285412D01*
X8677324Y-13285412D02*
X8677324Y-13113984D01*
X8810658Y-13313984D02*
X8791610Y-13304460D01*
X8791610Y-13304460D02*
X8782086Y-13285412D01*
X8782086Y-13285412D02*
X8782086Y-13113984D01*
X9039229Y-13313984D02*
X9039229Y-13113984D01*
X9039229Y-13113984D02*
X9105896Y-13256841D01*
X9105896Y-13256841D02*
X9172563Y-13113984D01*
X9172563Y-13113984D02*
X9172563Y-13313984D01*
X9353515Y-13313984D02*
X9353515Y-13209222D01*
X9353515Y-13209222D02*
X9343991Y-13190174D01*
X9343991Y-13190174D02*
X9324944Y-13180650D01*
X9324944Y-13180650D02*
X9286848Y-13180650D01*
X9286848Y-13180650D02*
X9267801Y-13190174D01*
X9353515Y-13304460D02*
X9334467Y-13313984D01*
X9334467Y-13313984D02*
X9286848Y-13313984D01*
X9286848Y-13313984D02*
X9267801Y-13304460D01*
X9267801Y-13304460D02*
X9258277Y-13285412D01*
X9258277Y-13285412D02*
X9258277Y-13266365D01*
X9258277Y-13266365D02*
X9267801Y-13247317D01*
X9267801Y-13247317D02*
X9286848Y-13237793D01*
X9286848Y-13237793D02*
X9334467Y-13237793D01*
X9334467Y-13237793D02*
X9353515Y-13228269D01*
X9448753Y-13180650D02*
X9448753Y-13380650D01*
X9448753Y-13190174D02*
X9467801Y-13180650D01*
X9467801Y-13180650D02*
X9505896Y-13180650D01*
X9505896Y-13180650D02*
X9524944Y-13190174D01*
X9524944Y-13190174D02*
X9534467Y-13199698D01*
X9534467Y-13199698D02*
X9543991Y-13218746D01*
X9543991Y-13218746D02*
X9543991Y-13275888D01*
X9543991Y-13275888D02*
X9534467Y-13294936D01*
X9534467Y-13294936D02*
X9524944Y-13304460D01*
X9524944Y-13304460D02*
X9505896Y-13313984D01*
X9505896Y-13313984D02*
X9467801Y-13313984D01*
X9467801Y-13313984D02*
X9448753Y-13304460D01*
X9629705Y-13294936D02*
X9639229Y-13304460D01*
X9639229Y-13304460D02*
X9629705Y-13313984D01*
X9629705Y-13313984D02*
X9620182Y-13304460D01*
X9620182Y-13304460D02*
X9629705Y-13294936D01*
X9629705Y-13294936D02*
X9629705Y-13313984D01*
X9629705Y-13190174D02*
X9639229Y-13199698D01*
X9639229Y-13199698D02*
X9629705Y-13209222D01*
X9629705Y-13209222D02*
X9620182Y-13199698D01*
X9620182Y-13199698D02*
X9629705Y-13190174D01*
X9629705Y-13190174D02*
X9629705Y-13209222D01*
D12*
X7837500Y-13562500D02*
X7997500Y-13722500D01*
X7997500Y-13562500D02*
X7837500Y-13722500D01*
D11*
X8363039Y-13733984D02*
X8248753Y-13733984D01*
X8305896Y-13733984D02*
X8305896Y-13533984D01*
X8305896Y-13533984D02*
X8286848Y-13562555D01*
X8286848Y-13562555D02*
X8267801Y-13581603D01*
X8267801Y-13581603D02*
X8248753Y-13591127D01*
X8448753Y-13714936D02*
X8458277Y-13724460D01*
X8458277Y-13724460D02*
X8448753Y-13733984D01*
X8448753Y-13733984D02*
X8439229Y-13724460D01*
X8439229Y-13724460D02*
X8448753Y-13714936D01*
X8448753Y-13714936D02*
X8448753Y-13733984D01*
X8629705Y-13533984D02*
X8591610Y-13533984D01*
X8591610Y-13533984D02*
X8572563Y-13543508D01*
X8572563Y-13543508D02*
X8563039Y-13553031D01*
X8563039Y-13553031D02*
X8543991Y-13581603D01*
X8543991Y-13581603D02*
X8534467Y-13619698D01*
X8534467Y-13619698D02*
X8534467Y-13695888D01*
X8534467Y-13695888D02*
X8543991Y-13714936D01*
X8543991Y-13714936D02*
X8553515Y-13724460D01*
X8553515Y-13724460D02*
X8572563Y-13733984D01*
X8572563Y-13733984D02*
X8610658Y-13733984D01*
X8610658Y-13733984D02*
X8629705Y-13724460D01*
X8629705Y-13724460D02*
X8639229Y-13714936D01*
X8639229Y-13714936D02*
X8648753Y-13695888D01*
X8648753Y-13695888D02*
X8648753Y-13648269D01*
X8648753Y-13648269D02*
X8639229Y-13629222D01*
X8639229Y-13629222D02*
X8629705Y-13619698D01*
X8629705Y-13619698D02*
X8610658Y-13610174D01*
X8610658Y-13610174D02*
X8572563Y-13610174D01*
X8572563Y-13610174D02*
X8553515Y-13619698D01*
X8553515Y-13619698D02*
X8543991Y-13629222D01*
X8543991Y-13629222D02*
X8534467Y-13648269D01*
X8772563Y-13533984D02*
X8791610Y-13533984D01*
X8791610Y-13533984D02*
X8810658Y-13543508D01*
X8810658Y-13543508D02*
X8820182Y-13553031D01*
X8820182Y-13553031D02*
X8829705Y-13572079D01*
X8829705Y-13572079D02*
X8839229Y-13610174D01*
X8839229Y-13610174D02*
X8839229Y-13657793D01*
X8839229Y-13657793D02*
X8829705Y-13695888D01*
X8829705Y-13695888D02*
X8820182Y-13714936D01*
X8820182Y-13714936D02*
X8810658Y-13724460D01*
X8810658Y-13724460D02*
X8791610Y-13733984D01*
X8791610Y-13733984D02*
X8772563Y-13733984D01*
X8772563Y-13733984D02*
X8753515Y-13724460D01*
X8753515Y-13724460D02*
X8743991Y-13714936D01*
X8743991Y-13714936D02*
X8734467Y-13695888D01*
X8734467Y-13695888D02*
X8724944Y-13657793D01*
X8724944Y-13657793D02*
X8724944Y-13610174D01*
X8724944Y-13610174D02*
X8734467Y-13572079D01*
X8734467Y-13572079D02*
X8743991Y-13553031D01*
X8743991Y-13553031D02*
X8753515Y-13543508D01*
X8753515Y-13543508D02*
X8772563Y-13533984D01*
X8963039Y-13533984D02*
X8982086Y-13533984D01*
X8982086Y-13533984D02*
X9001134Y-13543508D01*
X9001134Y-13543508D02*
X9010658Y-13553031D01*
X9010658Y-13553031D02*
X9020182Y-13572079D01*
X9020182Y-13572079D02*
X9029705Y-13610174D01*
X9029705Y-13610174D02*
X9029705Y-13657793D01*
X9029705Y-13657793D02*
X9020182Y-13695888D01*
X9020182Y-13695888D02*
X9010658Y-13714936D01*
X9010658Y-13714936D02*
X9001134Y-13724460D01*
X9001134Y-13724460D02*
X8982086Y-13733984D01*
X8982086Y-13733984D02*
X8963039Y-13733984D01*
X8963039Y-13733984D02*
X8943991Y-13724460D01*
X8943991Y-13724460D02*
X8934467Y-13714936D01*
X8934467Y-13714936D02*
X8924944Y-13695888D01*
X8924944Y-13695888D02*
X8915420Y-13657793D01*
X8915420Y-13657793D02*
X8915420Y-13610174D01*
X8915420Y-13610174D02*
X8924944Y-13572079D01*
X8924944Y-13572079D02*
X8934467Y-13553031D01*
X8934467Y-13553031D02*
X8943991Y-13543508D01*
X8943991Y-13543508D02*
X8963039Y-13533984D01*
X9115420Y-13733984D02*
X9115420Y-13600650D01*
X9115420Y-13619698D02*
X9124944Y-13610174D01*
X9124944Y-13610174D02*
X9143991Y-13600650D01*
X9143991Y-13600650D02*
X9172563Y-13600650D01*
X9172563Y-13600650D02*
X9191610Y-13610174D01*
X9191610Y-13610174D02*
X9201134Y-13629222D01*
X9201134Y-13629222D02*
X9201134Y-13733984D01*
X9201134Y-13629222D02*
X9210658Y-13610174D01*
X9210658Y-13610174D02*
X9229705Y-13600650D01*
X9229705Y-13600650D02*
X9258277Y-13600650D01*
X9258277Y-13600650D02*
X9277325Y-13610174D01*
X9277325Y-13610174D02*
X9286848Y-13629222D01*
X9286848Y-13629222D02*
X9286848Y-13733984D01*
X9382086Y-13733984D02*
X9382086Y-13600650D01*
X9382086Y-13619698D02*
X9391610Y-13610174D01*
X9391610Y-13610174D02*
X9410658Y-13600650D01*
X9410658Y-13600650D02*
X9439229Y-13600650D01*
X9439229Y-13600650D02*
X9458277Y-13610174D01*
X9458277Y-13610174D02*
X9467801Y-13629222D01*
X9467801Y-13629222D02*
X9467801Y-13733984D01*
X9467801Y-13629222D02*
X9477325Y-13610174D01*
X9477325Y-13610174D02*
X9496372Y-13600650D01*
X9496372Y-13600650D02*
X9524944Y-13600650D01*
X9524944Y-13600650D02*
X9543991Y-13610174D01*
X9543991Y-13610174D02*
X9553515Y-13629222D01*
X9553515Y-13629222D02*
X9553515Y-13733984D01*
X9943991Y-13524460D02*
X9772563Y-13781603D01*
X10201134Y-13533984D02*
X10220182Y-13533984D01*
X10220182Y-13533984D02*
X10239229Y-13543508D01*
X10239229Y-13543508D02*
X10248753Y-13553031D01*
X10248753Y-13553031D02*
X10258277Y-13572079D01*
X10258277Y-13572079D02*
X10267801Y-13610174D01*
X10267801Y-13610174D02*
X10267801Y-13657793D01*
X10267801Y-13657793D02*
X10258277Y-13695888D01*
X10258277Y-13695888D02*
X10248753Y-13714936D01*
X10248753Y-13714936D02*
X10239229Y-13724460D01*
X10239229Y-13724460D02*
X10220182Y-13733984D01*
X10220182Y-13733984D02*
X10201134Y-13733984D01*
X10201134Y-13733984D02*
X10182087Y-13724460D01*
X10182087Y-13724460D02*
X10172563Y-13714936D01*
X10172563Y-13714936D02*
X10163039Y-13695888D01*
X10163039Y-13695888D02*
X10153515Y-13657793D01*
X10153515Y-13657793D02*
X10153515Y-13610174D01*
X10153515Y-13610174D02*
X10163039Y-13572079D01*
X10163039Y-13572079D02*
X10172563Y-13553031D01*
X10172563Y-13553031D02*
X10182087Y-13543508D01*
X10182087Y-13543508D02*
X10201134Y-13533984D01*
X10353515Y-13714936D02*
X10363039Y-13724460D01*
X10363039Y-13724460D02*
X10353515Y-13733984D01*
X10353515Y-13733984D02*
X10343991Y-13724460D01*
X10343991Y-13724460D02*
X10353515Y-13714936D01*
X10353515Y-13714936D02*
X10353515Y-13733984D01*
X10486848Y-13533984D02*
X10505896Y-13533984D01*
X10505896Y-13533984D02*
X10524944Y-13543508D01*
X10524944Y-13543508D02*
X10534468Y-13553031D01*
X10534468Y-13553031D02*
X10543991Y-13572079D01*
X10543991Y-13572079D02*
X10553515Y-13610174D01*
X10553515Y-13610174D02*
X10553515Y-13657793D01*
X10553515Y-13657793D02*
X10543991Y-13695888D01*
X10543991Y-13695888D02*
X10534468Y-13714936D01*
X10534468Y-13714936D02*
X10524944Y-13724460D01*
X10524944Y-13724460D02*
X10505896Y-13733984D01*
X10505896Y-13733984D02*
X10486848Y-13733984D01*
X10486848Y-13733984D02*
X10467801Y-13724460D01*
X10467801Y-13724460D02*
X10458277Y-13714936D01*
X10458277Y-13714936D02*
X10448753Y-13695888D01*
X10448753Y-13695888D02*
X10439229Y-13657793D01*
X10439229Y-13657793D02*
X10439229Y-13610174D01*
X10439229Y-13610174D02*
X10448753Y-13572079D01*
X10448753Y-13572079D02*
X10458277Y-13553031D01*
X10458277Y-13553031D02*
X10467801Y-13543508D01*
X10467801Y-13543508D02*
X10486848Y-13533984D01*
X10724944Y-13533984D02*
X10686848Y-13533984D01*
X10686848Y-13533984D02*
X10667801Y-13543508D01*
X10667801Y-13543508D02*
X10658277Y-13553031D01*
X10658277Y-13553031D02*
X10639229Y-13581603D01*
X10639229Y-13581603D02*
X10629706Y-13619698D01*
X10629706Y-13619698D02*
X10629706Y-13695888D01*
X10629706Y-13695888D02*
X10639229Y-13714936D01*
X10639229Y-13714936D02*
X10648753Y-13724460D01*
X10648753Y-13724460D02*
X10667801Y-13733984D01*
X10667801Y-13733984D02*
X10705896Y-13733984D01*
X10705896Y-13733984D02*
X10724944Y-13724460D01*
X10724944Y-13724460D02*
X10734468Y-13714936D01*
X10734468Y-13714936D02*
X10743991Y-13695888D01*
X10743991Y-13695888D02*
X10743991Y-13648269D01*
X10743991Y-13648269D02*
X10734468Y-13629222D01*
X10734468Y-13629222D02*
X10724944Y-13619698D01*
X10724944Y-13619698D02*
X10705896Y-13610174D01*
X10705896Y-13610174D02*
X10667801Y-13610174D01*
X10667801Y-13610174D02*
X10648753Y-13619698D01*
X10648753Y-13619698D02*
X10639229Y-13629222D01*
X10639229Y-13629222D02*
X10629706Y-13648269D01*
X10810658Y-13533984D02*
X10934468Y-13533984D01*
X10934468Y-13533984D02*
X10867801Y-13610174D01*
X10867801Y-13610174D02*
X10896372Y-13610174D01*
X10896372Y-13610174D02*
X10915420Y-13619698D01*
X10915420Y-13619698D02*
X10924944Y-13629222D01*
X10924944Y-13629222D02*
X10934468Y-13648269D01*
X10934468Y-13648269D02*
X10934468Y-13695888D01*
X10934468Y-13695888D02*
X10924944Y-13714936D01*
X10924944Y-13714936D02*
X10915420Y-13724460D01*
X10915420Y-13724460D02*
X10896372Y-13733984D01*
X10896372Y-13733984D02*
X10839229Y-13733984D01*
X10839229Y-13733984D02*
X10820182Y-13724460D01*
X10820182Y-13724460D02*
X10810658Y-13714936D01*
X11058277Y-13533984D02*
X11077325Y-13533984D01*
X11077325Y-13533984D02*
X11096372Y-13543508D01*
X11096372Y-13543508D02*
X11105896Y-13553031D01*
X11105896Y-13553031D02*
X11115420Y-13572079D01*
X11115420Y-13572079D02*
X11124944Y-13610174D01*
X11124944Y-13610174D02*
X11124944Y-13657793D01*
X11124944Y-13657793D02*
X11115420Y-13695888D01*
X11115420Y-13695888D02*
X11105896Y-13714936D01*
X11105896Y-13714936D02*
X11096372Y-13724460D01*
X11096372Y-13724460D02*
X11077325Y-13733984D01*
X11077325Y-13733984D02*
X11058277Y-13733984D01*
X11058277Y-13733984D02*
X11039229Y-13724460D01*
X11039229Y-13724460D02*
X11029706Y-13714936D01*
X11029706Y-13714936D02*
X11020182Y-13695888D01*
X11020182Y-13695888D02*
X11010658Y-13657793D01*
X11010658Y-13657793D02*
X11010658Y-13610174D01*
X11010658Y-13610174D02*
X11020182Y-13572079D01*
X11020182Y-13572079D02*
X11029706Y-13553031D01*
X11029706Y-13553031D02*
X11039229Y-13543508D01*
X11039229Y-13543508D02*
X11058277Y-13533984D01*
X11201134Y-13533984D02*
X11201134Y-13572079D01*
X11277325Y-13533984D02*
X11277325Y-13572079D01*
X11572563Y-13810174D02*
X11563039Y-13800650D01*
X11563039Y-13800650D02*
X11543991Y-13772079D01*
X11543991Y-13772079D02*
X11534468Y-13753031D01*
X11534468Y-13753031D02*
X11524944Y-13724460D01*
X11524944Y-13724460D02*
X11515420Y-13676841D01*
X11515420Y-13676841D02*
X11515420Y-13638746D01*
X11515420Y-13638746D02*
X11524944Y-13591127D01*
X11524944Y-13591127D02*
X11534468Y-13562555D01*
X11534468Y-13562555D02*
X11543991Y-13543508D01*
X11543991Y-13543508D02*
X11563039Y-13514936D01*
X11563039Y-13514936D02*
X11572563Y-13505412D01*
X11639229Y-13553031D02*
X11648753Y-13543508D01*
X11648753Y-13543508D02*
X11667801Y-13533984D01*
X11667801Y-13533984D02*
X11715420Y-13533984D01*
X11715420Y-13533984D02*
X11734468Y-13543508D01*
X11734468Y-13543508D02*
X11743991Y-13553031D01*
X11743991Y-13553031D02*
X11753515Y-13572079D01*
X11753515Y-13572079D02*
X11753515Y-13591127D01*
X11753515Y-13591127D02*
X11743991Y-13619698D01*
X11743991Y-13619698D02*
X11629706Y-13733984D01*
X11629706Y-13733984D02*
X11753515Y-13733984D01*
X11991610Y-13733984D02*
X11991610Y-13533984D01*
X12077325Y-13733984D02*
X12077325Y-13629222D01*
X12077325Y-13629222D02*
X12067801Y-13610174D01*
X12067801Y-13610174D02*
X12048753Y-13600650D01*
X12048753Y-13600650D02*
X12020182Y-13600650D01*
X12020182Y-13600650D02*
X12001134Y-13610174D01*
X12001134Y-13610174D02*
X11991610Y-13619698D01*
X12201134Y-13733984D02*
X12182087Y-13724460D01*
X12182087Y-13724460D02*
X12172563Y-13714936D01*
X12172563Y-13714936D02*
X12163039Y-13695888D01*
X12163039Y-13695888D02*
X12163039Y-13638746D01*
X12163039Y-13638746D02*
X12172563Y-13619698D01*
X12172563Y-13619698D02*
X12182087Y-13610174D01*
X12182087Y-13610174D02*
X12201134Y-13600650D01*
X12201134Y-13600650D02*
X12229706Y-13600650D01*
X12229706Y-13600650D02*
X12248753Y-13610174D01*
X12248753Y-13610174D02*
X12258277Y-13619698D01*
X12258277Y-13619698D02*
X12267801Y-13638746D01*
X12267801Y-13638746D02*
X12267801Y-13695888D01*
X12267801Y-13695888D02*
X12258277Y-13714936D01*
X12258277Y-13714936D02*
X12248753Y-13724460D01*
X12248753Y-13724460D02*
X12229706Y-13733984D01*
X12229706Y-13733984D02*
X12201134Y-13733984D01*
X12382087Y-13733984D02*
X12363039Y-13724460D01*
X12363039Y-13724460D02*
X12353515Y-13705412D01*
X12353515Y-13705412D02*
X12353515Y-13533984D01*
X12534468Y-13724460D02*
X12515420Y-13733984D01*
X12515420Y-13733984D02*
X12477325Y-13733984D01*
X12477325Y-13733984D02*
X12458277Y-13724460D01*
X12458277Y-13724460D02*
X12448753Y-13705412D01*
X12448753Y-13705412D02*
X12448753Y-13629222D01*
X12448753Y-13629222D02*
X12458277Y-13610174D01*
X12458277Y-13610174D02*
X12477325Y-13600650D01*
X12477325Y-13600650D02*
X12515420Y-13600650D01*
X12515420Y-13600650D02*
X12534468Y-13610174D01*
X12534468Y-13610174D02*
X12543991Y-13629222D01*
X12543991Y-13629222D02*
X12543991Y-13648269D01*
X12543991Y-13648269D02*
X12448753Y-13667317D01*
X12620182Y-13724460D02*
X12639230Y-13733984D01*
X12639230Y-13733984D02*
X12677325Y-13733984D01*
X12677325Y-13733984D02*
X12696372Y-13724460D01*
X12696372Y-13724460D02*
X12705896Y-13705412D01*
X12705896Y-13705412D02*
X12705896Y-13695888D01*
X12705896Y-13695888D02*
X12696372Y-13676841D01*
X12696372Y-13676841D02*
X12677325Y-13667317D01*
X12677325Y-13667317D02*
X12648753Y-13667317D01*
X12648753Y-13667317D02*
X12629706Y-13657793D01*
X12629706Y-13657793D02*
X12620182Y-13638746D01*
X12620182Y-13638746D02*
X12620182Y-13629222D01*
X12620182Y-13629222D02*
X12629706Y-13610174D01*
X12629706Y-13610174D02*
X12648753Y-13600650D01*
X12648753Y-13600650D02*
X12677325Y-13600650D01*
X12677325Y-13600650D02*
X12696372Y-13610174D01*
X12772563Y-13810174D02*
X12782087Y-13800650D01*
X12782087Y-13800650D02*
X12801134Y-13772079D01*
X12801134Y-13772079D02*
X12810658Y-13753031D01*
X12810658Y-13753031D02*
X12820182Y-13724460D01*
X12820182Y-13724460D02*
X12829706Y-13676841D01*
X12829706Y-13676841D02*
X12829706Y-13638746D01*
X12829706Y-13638746D02*
X12820182Y-13591127D01*
X12820182Y-13591127D02*
X12810658Y-13562555D01*
X12810658Y-13562555D02*
X12801134Y-13543508D01*
X12801134Y-13543508D02*
X12782087Y-13514936D01*
X12782087Y-13514936D02*
X12772563Y-13505412D01*
X13134468Y-13810174D02*
X13124944Y-13800650D01*
X13124944Y-13800650D02*
X13105896Y-13772079D01*
X13105896Y-13772079D02*
X13096372Y-13753031D01*
X13096372Y-13753031D02*
X13086849Y-13724460D01*
X13086849Y-13724460D02*
X13077325Y-13676841D01*
X13077325Y-13676841D02*
X13077325Y-13638746D01*
X13077325Y-13638746D02*
X13086849Y-13591127D01*
X13086849Y-13591127D02*
X13096372Y-13562555D01*
X13096372Y-13562555D02*
X13105896Y-13543508D01*
X13105896Y-13543508D02*
X13124944Y-13514936D01*
X13124944Y-13514936D02*
X13134468Y-13505412D01*
X13210658Y-13600650D02*
X13210658Y-13733984D01*
X13210658Y-13619698D02*
X13220182Y-13610174D01*
X13220182Y-13610174D02*
X13239230Y-13600650D01*
X13239230Y-13600650D02*
X13267801Y-13600650D01*
X13267801Y-13600650D02*
X13286849Y-13610174D01*
X13286849Y-13610174D02*
X13296372Y-13629222D01*
X13296372Y-13629222D02*
X13296372Y-13733984D01*
X13420182Y-13733984D02*
X13401134Y-13724460D01*
X13401134Y-13724460D02*
X13391611Y-13714936D01*
X13391611Y-13714936D02*
X13382087Y-13695888D01*
X13382087Y-13695888D02*
X13382087Y-13638746D01*
X13382087Y-13638746D02*
X13391611Y-13619698D01*
X13391611Y-13619698D02*
X13401134Y-13610174D01*
X13401134Y-13610174D02*
X13420182Y-13600650D01*
X13420182Y-13600650D02*
X13448753Y-13600650D01*
X13448753Y-13600650D02*
X13467801Y-13610174D01*
X13467801Y-13610174D02*
X13477325Y-13619698D01*
X13477325Y-13619698D02*
X13486849Y-13638746D01*
X13486849Y-13638746D02*
X13486849Y-13695888D01*
X13486849Y-13695888D02*
X13477325Y-13714936D01*
X13477325Y-13714936D02*
X13467801Y-13724460D01*
X13467801Y-13724460D02*
X13448753Y-13733984D01*
X13448753Y-13733984D02*
X13420182Y-13733984D01*
X13543992Y-13600650D02*
X13620182Y-13600650D01*
X13572563Y-13533984D02*
X13572563Y-13705412D01*
X13572563Y-13705412D02*
X13582087Y-13724460D01*
X13582087Y-13724460D02*
X13601134Y-13733984D01*
X13601134Y-13733984D02*
X13620182Y-13733984D01*
X13839230Y-13600650D02*
X13839230Y-13800650D01*
X13839230Y-13610174D02*
X13858277Y-13600650D01*
X13858277Y-13600650D02*
X13896373Y-13600650D01*
X13896373Y-13600650D02*
X13915420Y-13610174D01*
X13915420Y-13610174D02*
X13924944Y-13619698D01*
X13924944Y-13619698D02*
X13934468Y-13638746D01*
X13934468Y-13638746D02*
X13934468Y-13695888D01*
X13934468Y-13695888D02*
X13924944Y-13714936D01*
X13924944Y-13714936D02*
X13915420Y-13724460D01*
X13915420Y-13724460D02*
X13896373Y-13733984D01*
X13896373Y-13733984D02*
X13858277Y-13733984D01*
X13858277Y-13733984D02*
X13839230Y-13724460D01*
X14048753Y-13733984D02*
X14029706Y-13724460D01*
X14029706Y-13724460D02*
X14020182Y-13705412D01*
X14020182Y-13705412D02*
X14020182Y-13533984D01*
X14210658Y-13733984D02*
X14210658Y-13629222D01*
X14210658Y-13629222D02*
X14201134Y-13610174D01*
X14201134Y-13610174D02*
X14182087Y-13600650D01*
X14182087Y-13600650D02*
X14143992Y-13600650D01*
X14143992Y-13600650D02*
X14124944Y-13610174D01*
X14210658Y-13724460D02*
X14191611Y-13733984D01*
X14191611Y-13733984D02*
X14143992Y-13733984D01*
X14143992Y-13733984D02*
X14124944Y-13724460D01*
X14124944Y-13724460D02*
X14115420Y-13705412D01*
X14115420Y-13705412D02*
X14115420Y-13686365D01*
X14115420Y-13686365D02*
X14124944Y-13667317D01*
X14124944Y-13667317D02*
X14143992Y-13657793D01*
X14143992Y-13657793D02*
X14191611Y-13657793D01*
X14191611Y-13657793D02*
X14210658Y-13648269D01*
X14277325Y-13600650D02*
X14353515Y-13600650D01*
X14305896Y-13533984D02*
X14305896Y-13705412D01*
X14305896Y-13705412D02*
X14315420Y-13724460D01*
X14315420Y-13724460D02*
X14334468Y-13733984D01*
X14334468Y-13733984D02*
X14353515Y-13733984D01*
X14496373Y-13724460D02*
X14477325Y-13733984D01*
X14477325Y-13733984D02*
X14439230Y-13733984D01*
X14439230Y-13733984D02*
X14420182Y-13724460D01*
X14420182Y-13724460D02*
X14410658Y-13705412D01*
X14410658Y-13705412D02*
X14410658Y-13629222D01*
X14410658Y-13629222D02*
X14420182Y-13610174D01*
X14420182Y-13610174D02*
X14439230Y-13600650D01*
X14439230Y-13600650D02*
X14477325Y-13600650D01*
X14477325Y-13600650D02*
X14496373Y-13610174D01*
X14496373Y-13610174D02*
X14505896Y-13629222D01*
X14505896Y-13629222D02*
X14505896Y-13648269D01*
X14505896Y-13648269D02*
X14410658Y-13667317D01*
X14677325Y-13733984D02*
X14677325Y-13533984D01*
X14677325Y-13724460D02*
X14658277Y-13733984D01*
X14658277Y-13733984D02*
X14620182Y-13733984D01*
X14620182Y-13733984D02*
X14601134Y-13724460D01*
X14601134Y-13724460D02*
X14591611Y-13714936D01*
X14591611Y-13714936D02*
X14582087Y-13695888D01*
X14582087Y-13695888D02*
X14582087Y-13638746D01*
X14582087Y-13638746D02*
X14591611Y-13619698D01*
X14591611Y-13619698D02*
X14601134Y-13610174D01*
X14601134Y-13610174D02*
X14620182Y-13600650D01*
X14620182Y-13600650D02*
X14658277Y-13600650D01*
X14658277Y-13600650D02*
X14677325Y-13610174D01*
X14753515Y-13810174D02*
X14763039Y-13800650D01*
X14763039Y-13800650D02*
X14782087Y-13772079D01*
X14782087Y-13772079D02*
X14791611Y-13753031D01*
X14791611Y-13753031D02*
X14801134Y-13724460D01*
X14801134Y-13724460D02*
X14810658Y-13676841D01*
X14810658Y-13676841D02*
X14810658Y-13638746D01*
X14810658Y-13638746D02*
X14801134Y-13591127D01*
X14801134Y-13591127D02*
X14791611Y-13562555D01*
X14791611Y-13562555D02*
X14782087Y-13543508D01*
X14782087Y-13543508D02*
X14763039Y-13514936D01*
X14763039Y-13514936D02*
X14753515Y-13505412D01*
X7997500Y-13922500D02*
G75*
G02*
X7797500Y-13922500I-100000J0D01*
G01*
X7797500Y-13922500D02*
G75*
G02*
X7997500Y-13922500I100000J0D01*
G01*
X8239229Y-13813984D02*
X8363039Y-13813984D01*
X8363039Y-13813984D02*
X8296372Y-13890174D01*
X8296372Y-13890174D02*
X8324943Y-13890174D01*
X8324943Y-13890174D02*
X8343991Y-13899698D01*
X8343991Y-13899698D02*
X8353515Y-13909222D01*
X8353515Y-13909222D02*
X8363039Y-13928269D01*
X8363039Y-13928269D02*
X8363039Y-13975888D01*
X8363039Y-13975888D02*
X8353515Y-13994936D01*
X8353515Y-13994936D02*
X8343991Y-14004460D01*
X8343991Y-14004460D02*
X8324943Y-14013984D01*
X8324943Y-14013984D02*
X8267801Y-14013984D01*
X8267801Y-14013984D02*
X8248753Y-14004460D01*
X8248753Y-14004460D02*
X8239229Y-13994936D01*
X8448753Y-13994936D02*
X8458277Y-14004460D01*
X8458277Y-14004460D02*
X8448753Y-14013984D01*
X8448753Y-14013984D02*
X8439229Y-14004460D01*
X8439229Y-14004460D02*
X8448753Y-13994936D01*
X8448753Y-13994936D02*
X8448753Y-14013984D01*
X8534467Y-13833031D02*
X8543991Y-13823508D01*
X8543991Y-13823508D02*
X8563039Y-13813984D01*
X8563039Y-13813984D02*
X8610658Y-13813984D01*
X8610658Y-13813984D02*
X8629705Y-13823508D01*
X8629705Y-13823508D02*
X8639229Y-13833031D01*
X8639229Y-13833031D02*
X8648753Y-13852079D01*
X8648753Y-13852079D02*
X8648753Y-13871127D01*
X8648753Y-13871127D02*
X8639229Y-13899698D01*
X8639229Y-13899698D02*
X8524944Y-14013984D01*
X8524944Y-14013984D02*
X8648753Y-14013984D01*
X8772563Y-13813984D02*
X8791610Y-13813984D01*
X8791610Y-13813984D02*
X8810658Y-13823508D01*
X8810658Y-13823508D02*
X8820182Y-13833031D01*
X8820182Y-13833031D02*
X8829705Y-13852079D01*
X8829705Y-13852079D02*
X8839229Y-13890174D01*
X8839229Y-13890174D02*
X8839229Y-13937793D01*
X8839229Y-13937793D02*
X8829705Y-13975888D01*
X8829705Y-13975888D02*
X8820182Y-13994936D01*
X8820182Y-13994936D02*
X8810658Y-14004460D01*
X8810658Y-14004460D02*
X8791610Y-14013984D01*
X8791610Y-14013984D02*
X8772563Y-14013984D01*
X8772563Y-14013984D02*
X8753515Y-14004460D01*
X8753515Y-14004460D02*
X8743991Y-13994936D01*
X8743991Y-13994936D02*
X8734467Y-13975888D01*
X8734467Y-13975888D02*
X8724944Y-13937793D01*
X8724944Y-13937793D02*
X8724944Y-13890174D01*
X8724944Y-13890174D02*
X8734467Y-13852079D01*
X8734467Y-13852079D02*
X8743991Y-13833031D01*
X8743991Y-13833031D02*
X8753515Y-13823508D01*
X8753515Y-13823508D02*
X8772563Y-13813984D01*
X8963039Y-13813984D02*
X8982086Y-13813984D01*
X8982086Y-13813984D02*
X9001134Y-13823508D01*
X9001134Y-13823508D02*
X9010658Y-13833031D01*
X9010658Y-13833031D02*
X9020182Y-13852079D01*
X9020182Y-13852079D02*
X9029705Y-13890174D01*
X9029705Y-13890174D02*
X9029705Y-13937793D01*
X9029705Y-13937793D02*
X9020182Y-13975888D01*
X9020182Y-13975888D02*
X9010658Y-13994936D01*
X9010658Y-13994936D02*
X9001134Y-14004460D01*
X9001134Y-14004460D02*
X8982086Y-14013984D01*
X8982086Y-14013984D02*
X8963039Y-14013984D01*
X8963039Y-14013984D02*
X8943991Y-14004460D01*
X8943991Y-14004460D02*
X8934467Y-13994936D01*
X8934467Y-13994936D02*
X8924944Y-13975888D01*
X8924944Y-13975888D02*
X8915420Y-13937793D01*
X8915420Y-13937793D02*
X8915420Y-13890174D01*
X8915420Y-13890174D02*
X8924944Y-13852079D01*
X8924944Y-13852079D02*
X8934467Y-13833031D01*
X8934467Y-13833031D02*
X8943991Y-13823508D01*
X8943991Y-13823508D02*
X8963039Y-13813984D01*
X9115420Y-14013984D02*
X9115420Y-13880650D01*
X9115420Y-13899698D02*
X9124944Y-13890174D01*
X9124944Y-13890174D02*
X9143991Y-13880650D01*
X9143991Y-13880650D02*
X9172563Y-13880650D01*
X9172563Y-13880650D02*
X9191610Y-13890174D01*
X9191610Y-13890174D02*
X9201134Y-13909222D01*
X9201134Y-13909222D02*
X9201134Y-14013984D01*
X9201134Y-13909222D02*
X9210658Y-13890174D01*
X9210658Y-13890174D02*
X9229705Y-13880650D01*
X9229705Y-13880650D02*
X9258277Y-13880650D01*
X9258277Y-13880650D02*
X9277325Y-13890174D01*
X9277325Y-13890174D02*
X9286848Y-13909222D01*
X9286848Y-13909222D02*
X9286848Y-14013984D01*
X9382086Y-14013984D02*
X9382086Y-13880650D01*
X9382086Y-13899698D02*
X9391610Y-13890174D01*
X9391610Y-13890174D02*
X9410658Y-13880650D01*
X9410658Y-13880650D02*
X9439229Y-13880650D01*
X9439229Y-13880650D02*
X9458277Y-13890174D01*
X9458277Y-13890174D02*
X9467801Y-13909222D01*
X9467801Y-13909222D02*
X9467801Y-14013984D01*
X9467801Y-13909222D02*
X9477325Y-13890174D01*
X9477325Y-13890174D02*
X9496372Y-13880650D01*
X9496372Y-13880650D02*
X9524944Y-13880650D01*
X9524944Y-13880650D02*
X9543991Y-13890174D01*
X9543991Y-13890174D02*
X9553515Y-13909222D01*
X9553515Y-13909222D02*
X9553515Y-14013984D01*
X9943991Y-13804460D02*
X9772563Y-14061603D01*
X10201134Y-13813984D02*
X10220182Y-13813984D01*
X10220182Y-13813984D02*
X10239229Y-13823508D01*
X10239229Y-13823508D02*
X10248753Y-13833031D01*
X10248753Y-13833031D02*
X10258277Y-13852079D01*
X10258277Y-13852079D02*
X10267801Y-13890174D01*
X10267801Y-13890174D02*
X10267801Y-13937793D01*
X10267801Y-13937793D02*
X10258277Y-13975888D01*
X10258277Y-13975888D02*
X10248753Y-13994936D01*
X10248753Y-13994936D02*
X10239229Y-14004460D01*
X10239229Y-14004460D02*
X10220182Y-14013984D01*
X10220182Y-14013984D02*
X10201134Y-14013984D01*
X10201134Y-14013984D02*
X10182087Y-14004460D01*
X10182087Y-14004460D02*
X10172563Y-13994936D01*
X10172563Y-13994936D02*
X10163039Y-13975888D01*
X10163039Y-13975888D02*
X10153515Y-13937793D01*
X10153515Y-13937793D02*
X10153515Y-13890174D01*
X10153515Y-13890174D02*
X10163039Y-13852079D01*
X10163039Y-13852079D02*
X10172563Y-13833031D01*
X10172563Y-13833031D02*
X10182087Y-13823508D01*
X10182087Y-13823508D02*
X10201134Y-13813984D01*
X10353515Y-13994936D02*
X10363039Y-14004460D01*
X10363039Y-14004460D02*
X10353515Y-14013984D01*
X10353515Y-14013984D02*
X10343991Y-14004460D01*
X10343991Y-14004460D02*
X10353515Y-13994936D01*
X10353515Y-13994936D02*
X10353515Y-14013984D01*
X10553515Y-14013984D02*
X10439229Y-14013984D01*
X10496372Y-14013984D02*
X10496372Y-13813984D01*
X10496372Y-13813984D02*
X10477325Y-13842555D01*
X10477325Y-13842555D02*
X10458277Y-13861603D01*
X10458277Y-13861603D02*
X10439229Y-13871127D01*
X10629706Y-13833031D02*
X10639229Y-13823508D01*
X10639229Y-13823508D02*
X10658277Y-13813984D01*
X10658277Y-13813984D02*
X10705896Y-13813984D01*
X10705896Y-13813984D02*
X10724944Y-13823508D01*
X10724944Y-13823508D02*
X10734468Y-13833031D01*
X10734468Y-13833031D02*
X10743991Y-13852079D01*
X10743991Y-13852079D02*
X10743991Y-13871127D01*
X10743991Y-13871127D02*
X10734468Y-13899698D01*
X10734468Y-13899698D02*
X10620182Y-14013984D01*
X10620182Y-14013984D02*
X10743991Y-14013984D01*
X10915420Y-13813984D02*
X10877325Y-13813984D01*
X10877325Y-13813984D02*
X10858277Y-13823508D01*
X10858277Y-13823508D02*
X10848753Y-13833031D01*
X10848753Y-13833031D02*
X10829706Y-13861603D01*
X10829706Y-13861603D02*
X10820182Y-13899698D01*
X10820182Y-13899698D02*
X10820182Y-13975888D01*
X10820182Y-13975888D02*
X10829706Y-13994936D01*
X10829706Y-13994936D02*
X10839229Y-14004460D01*
X10839229Y-14004460D02*
X10858277Y-14013984D01*
X10858277Y-14013984D02*
X10896372Y-14013984D01*
X10896372Y-14013984D02*
X10915420Y-14004460D01*
X10915420Y-14004460D02*
X10924944Y-13994936D01*
X10924944Y-13994936D02*
X10934468Y-13975888D01*
X10934468Y-13975888D02*
X10934468Y-13928269D01*
X10934468Y-13928269D02*
X10924944Y-13909222D01*
X10924944Y-13909222D02*
X10915420Y-13899698D01*
X10915420Y-13899698D02*
X10896372Y-13890174D01*
X10896372Y-13890174D02*
X10858277Y-13890174D01*
X10858277Y-13890174D02*
X10839229Y-13899698D01*
X10839229Y-13899698D02*
X10829706Y-13909222D01*
X10829706Y-13909222D02*
X10820182Y-13928269D01*
X11058277Y-13813984D02*
X11077325Y-13813984D01*
X11077325Y-13813984D02*
X11096372Y-13823508D01*
X11096372Y-13823508D02*
X11105896Y-13833031D01*
X11105896Y-13833031D02*
X11115420Y-13852079D01*
X11115420Y-13852079D02*
X11124944Y-13890174D01*
X11124944Y-13890174D02*
X11124944Y-13937793D01*
X11124944Y-13937793D02*
X11115420Y-13975888D01*
X11115420Y-13975888D02*
X11105896Y-13994936D01*
X11105896Y-13994936D02*
X11096372Y-14004460D01*
X11096372Y-14004460D02*
X11077325Y-14013984D01*
X11077325Y-14013984D02*
X11058277Y-14013984D01*
X11058277Y-14013984D02*
X11039229Y-14004460D01*
X11039229Y-14004460D02*
X11029706Y-13994936D01*
X11029706Y-13994936D02*
X11020182Y-13975888D01*
X11020182Y-13975888D02*
X11010658Y-13937793D01*
X11010658Y-13937793D02*
X11010658Y-13890174D01*
X11010658Y-13890174D02*
X11020182Y-13852079D01*
X11020182Y-13852079D02*
X11029706Y-13833031D01*
X11029706Y-13833031D02*
X11039229Y-13823508D01*
X11039229Y-13823508D02*
X11058277Y-13813984D01*
X11201134Y-13813984D02*
X11201134Y-13852079D01*
X11277325Y-13813984D02*
X11277325Y-13852079D01*
X11572563Y-14090174D02*
X11563039Y-14080650D01*
X11563039Y-14080650D02*
X11543991Y-14052079D01*
X11543991Y-14052079D02*
X11534468Y-14033031D01*
X11534468Y-14033031D02*
X11524944Y-14004460D01*
X11524944Y-14004460D02*
X11515420Y-13956841D01*
X11515420Y-13956841D02*
X11515420Y-13918746D01*
X11515420Y-13918746D02*
X11524944Y-13871127D01*
X11524944Y-13871127D02*
X11534468Y-13842555D01*
X11534468Y-13842555D02*
X11543991Y-13823508D01*
X11543991Y-13823508D02*
X11563039Y-13794936D01*
X11563039Y-13794936D02*
X11572563Y-13785412D01*
X11639229Y-13833031D02*
X11648753Y-13823508D01*
X11648753Y-13823508D02*
X11667801Y-13813984D01*
X11667801Y-13813984D02*
X11715420Y-13813984D01*
X11715420Y-13813984D02*
X11734468Y-13823508D01*
X11734468Y-13823508D02*
X11743991Y-13833031D01*
X11743991Y-13833031D02*
X11753515Y-13852079D01*
X11753515Y-13852079D02*
X11753515Y-13871127D01*
X11753515Y-13871127D02*
X11743991Y-13899698D01*
X11743991Y-13899698D02*
X11629706Y-14013984D01*
X11629706Y-14013984D02*
X11753515Y-14013984D01*
X11991610Y-14013984D02*
X11991610Y-13813984D01*
X12077325Y-14013984D02*
X12077325Y-13909222D01*
X12077325Y-13909222D02*
X12067801Y-13890174D01*
X12067801Y-13890174D02*
X12048753Y-13880650D01*
X12048753Y-13880650D02*
X12020182Y-13880650D01*
X12020182Y-13880650D02*
X12001134Y-13890174D01*
X12001134Y-13890174D02*
X11991610Y-13899698D01*
X12201134Y-14013984D02*
X12182087Y-14004460D01*
X12182087Y-14004460D02*
X12172563Y-13994936D01*
X12172563Y-13994936D02*
X12163039Y-13975888D01*
X12163039Y-13975888D02*
X12163039Y-13918746D01*
X12163039Y-13918746D02*
X12172563Y-13899698D01*
X12172563Y-13899698D02*
X12182087Y-13890174D01*
X12182087Y-13890174D02*
X12201134Y-13880650D01*
X12201134Y-13880650D02*
X12229706Y-13880650D01*
X12229706Y-13880650D02*
X12248753Y-13890174D01*
X12248753Y-13890174D02*
X12258277Y-13899698D01*
X12258277Y-13899698D02*
X12267801Y-13918746D01*
X12267801Y-13918746D02*
X12267801Y-13975888D01*
X12267801Y-13975888D02*
X12258277Y-13994936D01*
X12258277Y-13994936D02*
X12248753Y-14004460D01*
X12248753Y-14004460D02*
X12229706Y-14013984D01*
X12229706Y-14013984D02*
X12201134Y-14013984D01*
X12382087Y-14013984D02*
X12363039Y-14004460D01*
X12363039Y-14004460D02*
X12353515Y-13985412D01*
X12353515Y-13985412D02*
X12353515Y-13813984D01*
X12534468Y-14004460D02*
X12515420Y-14013984D01*
X12515420Y-14013984D02*
X12477325Y-14013984D01*
X12477325Y-14013984D02*
X12458277Y-14004460D01*
X12458277Y-14004460D02*
X12448753Y-13985412D01*
X12448753Y-13985412D02*
X12448753Y-13909222D01*
X12448753Y-13909222D02*
X12458277Y-13890174D01*
X12458277Y-13890174D02*
X12477325Y-13880650D01*
X12477325Y-13880650D02*
X12515420Y-13880650D01*
X12515420Y-13880650D02*
X12534468Y-13890174D01*
X12534468Y-13890174D02*
X12543991Y-13909222D01*
X12543991Y-13909222D02*
X12543991Y-13928269D01*
X12543991Y-13928269D02*
X12448753Y-13947317D01*
X12620182Y-14004460D02*
X12639230Y-14013984D01*
X12639230Y-14013984D02*
X12677325Y-14013984D01*
X12677325Y-14013984D02*
X12696372Y-14004460D01*
X12696372Y-14004460D02*
X12705896Y-13985412D01*
X12705896Y-13985412D02*
X12705896Y-13975888D01*
X12705896Y-13975888D02*
X12696372Y-13956841D01*
X12696372Y-13956841D02*
X12677325Y-13947317D01*
X12677325Y-13947317D02*
X12648753Y-13947317D01*
X12648753Y-13947317D02*
X12629706Y-13937793D01*
X12629706Y-13937793D02*
X12620182Y-13918746D01*
X12620182Y-13918746D02*
X12620182Y-13909222D01*
X12620182Y-13909222D02*
X12629706Y-13890174D01*
X12629706Y-13890174D02*
X12648753Y-13880650D01*
X12648753Y-13880650D02*
X12677325Y-13880650D01*
X12677325Y-13880650D02*
X12696372Y-13890174D01*
X12772563Y-14090174D02*
X12782087Y-14080650D01*
X12782087Y-14080650D02*
X12801134Y-14052079D01*
X12801134Y-14052079D02*
X12810658Y-14033031D01*
X12810658Y-14033031D02*
X12820182Y-14004460D01*
X12820182Y-14004460D02*
X12829706Y-13956841D01*
X12829706Y-13956841D02*
X12829706Y-13918746D01*
X12829706Y-13918746D02*
X12820182Y-13871127D01*
X12820182Y-13871127D02*
X12810658Y-13842555D01*
X12810658Y-13842555D02*
X12801134Y-13823508D01*
X12801134Y-13823508D02*
X12782087Y-13794936D01*
X12782087Y-13794936D02*
X12772563Y-13785412D01*
X13134468Y-14090174D02*
X13124944Y-14080650D01*
X13124944Y-14080650D02*
X13105896Y-14052079D01*
X13105896Y-14052079D02*
X13096372Y-14033031D01*
X13096372Y-14033031D02*
X13086849Y-14004460D01*
X13086849Y-14004460D02*
X13077325Y-13956841D01*
X13077325Y-13956841D02*
X13077325Y-13918746D01*
X13077325Y-13918746D02*
X13086849Y-13871127D01*
X13086849Y-13871127D02*
X13096372Y-13842555D01*
X13096372Y-13842555D02*
X13105896Y-13823508D01*
X13105896Y-13823508D02*
X13124944Y-13794936D01*
X13124944Y-13794936D02*
X13134468Y-13785412D01*
X13210658Y-13880650D02*
X13210658Y-14013984D01*
X13210658Y-13899698D02*
X13220182Y-13890174D01*
X13220182Y-13890174D02*
X13239230Y-13880650D01*
X13239230Y-13880650D02*
X13267801Y-13880650D01*
X13267801Y-13880650D02*
X13286849Y-13890174D01*
X13286849Y-13890174D02*
X13296372Y-13909222D01*
X13296372Y-13909222D02*
X13296372Y-14013984D01*
X13420182Y-14013984D02*
X13401134Y-14004460D01*
X13401134Y-14004460D02*
X13391611Y-13994936D01*
X13391611Y-13994936D02*
X13382087Y-13975888D01*
X13382087Y-13975888D02*
X13382087Y-13918746D01*
X13382087Y-13918746D02*
X13391611Y-13899698D01*
X13391611Y-13899698D02*
X13401134Y-13890174D01*
X13401134Y-13890174D02*
X13420182Y-13880650D01*
X13420182Y-13880650D02*
X13448753Y-13880650D01*
X13448753Y-13880650D02*
X13467801Y-13890174D01*
X13467801Y-13890174D02*
X13477325Y-13899698D01*
X13477325Y-13899698D02*
X13486849Y-13918746D01*
X13486849Y-13918746D02*
X13486849Y-13975888D01*
X13486849Y-13975888D02*
X13477325Y-13994936D01*
X13477325Y-13994936D02*
X13467801Y-14004460D01*
X13467801Y-14004460D02*
X13448753Y-14013984D01*
X13448753Y-14013984D02*
X13420182Y-14013984D01*
X13543992Y-13880650D02*
X13620182Y-13880650D01*
X13572563Y-13813984D02*
X13572563Y-13985412D01*
X13572563Y-13985412D02*
X13582087Y-14004460D01*
X13582087Y-14004460D02*
X13601134Y-14013984D01*
X13601134Y-14013984D02*
X13620182Y-14013984D01*
X13839230Y-13880650D02*
X13839230Y-14080650D01*
X13839230Y-13890174D02*
X13858277Y-13880650D01*
X13858277Y-13880650D02*
X13896373Y-13880650D01*
X13896373Y-13880650D02*
X13915420Y-13890174D01*
X13915420Y-13890174D02*
X13924944Y-13899698D01*
X13924944Y-13899698D02*
X13934468Y-13918746D01*
X13934468Y-13918746D02*
X13934468Y-13975888D01*
X13934468Y-13975888D02*
X13924944Y-13994936D01*
X13924944Y-13994936D02*
X13915420Y-14004460D01*
X13915420Y-14004460D02*
X13896373Y-14013984D01*
X13896373Y-14013984D02*
X13858277Y-14013984D01*
X13858277Y-14013984D02*
X13839230Y-14004460D01*
X14048753Y-14013984D02*
X14029706Y-14004460D01*
X14029706Y-14004460D02*
X14020182Y-13985412D01*
X14020182Y-13985412D02*
X14020182Y-13813984D01*
X14210658Y-14013984D02*
X14210658Y-13909222D01*
X14210658Y-13909222D02*
X14201134Y-13890174D01*
X14201134Y-13890174D02*
X14182087Y-13880650D01*
X14182087Y-13880650D02*
X14143992Y-13880650D01*
X14143992Y-13880650D02*
X14124944Y-13890174D01*
X14210658Y-14004460D02*
X14191611Y-14013984D01*
X14191611Y-14013984D02*
X14143992Y-14013984D01*
X14143992Y-14013984D02*
X14124944Y-14004460D01*
X14124944Y-14004460D02*
X14115420Y-13985412D01*
X14115420Y-13985412D02*
X14115420Y-13966365D01*
X14115420Y-13966365D02*
X14124944Y-13947317D01*
X14124944Y-13947317D02*
X14143992Y-13937793D01*
X14143992Y-13937793D02*
X14191611Y-13937793D01*
X14191611Y-13937793D02*
X14210658Y-13928269D01*
X14277325Y-13880650D02*
X14353515Y-13880650D01*
X14305896Y-13813984D02*
X14305896Y-13985412D01*
X14305896Y-13985412D02*
X14315420Y-14004460D01*
X14315420Y-14004460D02*
X14334468Y-14013984D01*
X14334468Y-14013984D02*
X14353515Y-14013984D01*
X14496373Y-14004460D02*
X14477325Y-14013984D01*
X14477325Y-14013984D02*
X14439230Y-14013984D01*
X14439230Y-14013984D02*
X14420182Y-14004460D01*
X14420182Y-14004460D02*
X14410658Y-13985412D01*
X14410658Y-13985412D02*
X14410658Y-13909222D01*
X14410658Y-13909222D02*
X14420182Y-13890174D01*
X14420182Y-13890174D02*
X14439230Y-13880650D01*
X14439230Y-13880650D02*
X14477325Y-13880650D01*
X14477325Y-13880650D02*
X14496373Y-13890174D01*
X14496373Y-13890174D02*
X14505896Y-13909222D01*
X14505896Y-13909222D02*
X14505896Y-13928269D01*
X14505896Y-13928269D02*
X14410658Y-13947317D01*
X14677325Y-14013984D02*
X14677325Y-13813984D01*
X14677325Y-14004460D02*
X14658277Y-14013984D01*
X14658277Y-14013984D02*
X14620182Y-14013984D01*
X14620182Y-14013984D02*
X14601134Y-14004460D01*
X14601134Y-14004460D02*
X14591611Y-13994936D01*
X14591611Y-13994936D02*
X14582087Y-13975888D01*
X14582087Y-13975888D02*
X14582087Y-13918746D01*
X14582087Y-13918746D02*
X14591611Y-13899698D01*
X14591611Y-13899698D02*
X14601134Y-13890174D01*
X14601134Y-13890174D02*
X14620182Y-13880650D01*
X14620182Y-13880650D02*
X14658277Y-13880650D01*
X14658277Y-13880650D02*
X14677325Y-13890174D01*
X14753515Y-14090174D02*
X14763039Y-14080650D01*
X14763039Y-14080650D02*
X14782087Y-14052079D01*
X14782087Y-14052079D02*
X14791611Y-14033031D01*
X14791611Y-14033031D02*
X14801134Y-14004460D01*
X14801134Y-14004460D02*
X14810658Y-13956841D01*
X14810658Y-13956841D02*
X14810658Y-13918746D01*
X14810658Y-13918746D02*
X14801134Y-13871127D01*
X14801134Y-13871127D02*
X14791611Y-13842555D01*
X14791611Y-13842555D02*
X14782087Y-13823508D01*
X14782087Y-13823508D02*
X14763039Y-13794936D01*
X14763039Y-13794936D02*
X14753515Y-13785412D01*
M02*
