G04 #@! TF.GenerationSoftware,KiCad,Pcbnew,8.0.4*
G04 #@! TF.CreationDate,2024-09-02T23:30:59+02:00*
G04 #@! TF.ProjectId,AD4030-Voltage,41443430-3330-42d5-966f-6c746167652e,rev?*
G04 #@! TF.SameCoordinates,Original*
G04 #@! TF.FileFunction,Paste,Bot*
G04 #@! TF.FilePolarity,Positive*
%FSLAX46Y46*%
G04 Gerber Fmt 4.6, Leading zero omitted, Abs format (unit mm)*
G04 Created by KiCad (PCBNEW 8.0.4) date 2024-09-02 23:30:59*
%MOMM*%
%LPD*%
G01*
G04 APERTURE LIST*
G04 Aperture macros list*
%AMRoundRect*
0 Rectangle with rounded corners*
0 $1 Rounding radius*
0 $2 $3 $4 $5 $6 $7 $8 $9 X,Y pos of 4 corners*
0 Add a 4 corners polygon primitive as box body*
4,1,4,$2,$3,$4,$5,$6,$7,$8,$9,$2,$3,0*
0 Add four circle primitives for the rounded corners*
1,1,$1+$1,$2,$3*
1,1,$1+$1,$4,$5*
1,1,$1+$1,$6,$7*
1,1,$1+$1,$8,$9*
0 Add four rect primitives between the rounded corners*
20,1,$1+$1,$2,$3,$4,$5,0*
20,1,$1+$1,$4,$5,$6,$7,0*
20,1,$1+$1,$6,$7,$8,$9,0*
20,1,$1+$1,$8,$9,$2,$3,0*%
G04 Aperture macros list end*
%ADD10RoundRect,0.237500X0.237500X-0.300000X0.237500X0.300000X-0.237500X0.300000X-0.237500X-0.300000X0*%
%ADD11RoundRect,0.160000X-0.197500X-0.160000X0.197500X-0.160000X0.197500X0.160000X-0.197500X0.160000X0*%
%ADD12RoundRect,0.237500X0.250000X0.237500X-0.250000X0.237500X-0.250000X-0.237500X0.250000X-0.237500X0*%
%ADD13RoundRect,0.250000X0.412500X0.650000X-0.412500X0.650000X-0.412500X-0.650000X0.412500X-0.650000X0*%
%ADD14RoundRect,0.155000X0.212500X0.155000X-0.212500X0.155000X-0.212500X-0.155000X0.212500X-0.155000X0*%
%ADD15RoundRect,0.237500X-0.237500X0.300000X-0.237500X-0.300000X0.237500X-0.300000X0.237500X0.300000X0*%
%ADD16RoundRect,0.250000X-0.650000X0.412500X-0.650000X-0.412500X0.650000X-0.412500X0.650000X0.412500X0*%
%ADD17R,2.510000X1.000000*%
%ADD18RoundRect,0.250000X1.100000X-0.412500X1.100000X0.412500X-1.100000X0.412500X-1.100000X-0.412500X0*%
%ADD19RoundRect,0.250000X0.475000X-0.337500X0.475000X0.337500X-0.475000X0.337500X-0.475000X-0.337500X0*%
%ADD20RoundRect,0.237500X-0.250000X-0.237500X0.250000X-0.237500X0.250000X0.237500X-0.250000X0.237500X0*%
%ADD21RoundRect,0.237500X0.300000X0.237500X-0.300000X0.237500X-0.300000X-0.237500X0.300000X-0.237500X0*%
%ADD22RoundRect,0.250000X-0.475000X0.337500X-0.475000X-0.337500X0.475000X-0.337500X0.475000X0.337500X0*%
G04 APERTURE END LIST*
D10*
G04 #@! TO.C,C229*
X135509000Y-103097500D03*
X135509000Y-101372500D03*
G04 #@! TD*
G04 #@! TO.C,C208*
X116840000Y-99922500D03*
X116840000Y-98197500D03*
G04 #@! TD*
D11*
G04 #@! TO.C,R304*
X146722500Y-104521000D03*
X147917500Y-104521000D03*
G04 #@! TD*
D12*
G04 #@! TO.C,R213*
X111693500Y-102489000D03*
X109868500Y-102489000D03*
G04 #@! TD*
D13*
G04 #@! TO.C,C504*
X124498500Y-70485000D03*
X121373500Y-70485000D03*
G04 #@! TD*
D14*
G04 #@! TO.C,C309*
X152332500Y-100711000D03*
X151197500Y-100711000D03*
G04 #@! TD*
G04 #@! TO.C,C305*
X156396500Y-101600000D03*
X155261500Y-101600000D03*
G04 #@! TD*
D15*
G04 #@! TO.C,C224*
X116840000Y-109754500D03*
X116840000Y-111479500D03*
G04 #@! TD*
D10*
G04 #@! TO.C,C402*
X160020000Y-116178500D03*
X160020000Y-114453500D03*
G04 #@! TD*
D15*
G04 #@! TO.C,C219*
X97917000Y-97689500D03*
X97917000Y-99414500D03*
G04 #@! TD*
D16*
G04 #@! TO.C,C523*
X131064000Y-73589000D03*
X131064000Y-76714000D03*
G04 #@! TD*
D15*
G04 #@! TO.C,C216*
X99695000Y-97689500D03*
X99695000Y-99414500D03*
G04 #@! TD*
D14*
G04 #@! TO.C,C306*
X152332500Y-101727000D03*
X151197500Y-101727000D03*
G04 #@! TD*
D15*
G04 #@! TO.C,C408*
X173355000Y-93879500D03*
X173355000Y-95604500D03*
G04 #@! TD*
G04 #@! TO.C,C215*
X139827000Y-101372500D03*
X139827000Y-103097500D03*
G04 #@! TD*
D17*
G04 #@! TO.C,J402*
X176272000Y-108839000D03*
X179582000Y-111379000D03*
X176272000Y-113919000D03*
X179582000Y-116459000D03*
X176272000Y-118999000D03*
X179582000Y-121539000D03*
X176272000Y-124079000D03*
G04 #@! TD*
D14*
G04 #@! TO.C,C302*
X152459500Y-109601000D03*
X151324500Y-109601000D03*
G04 #@! TD*
D18*
G04 #@! TO.C,C502*
X177038000Y-68745500D03*
X177038000Y-65620500D03*
G04 #@! TD*
D16*
G04 #@! TO.C,C501*
X127508000Y-73621500D03*
X127508000Y-76746500D03*
G04 #@! TD*
G04 #@! TO.C,C522*
X142494000Y-73589000D03*
X142494000Y-76714000D03*
G04 #@! TD*
D15*
G04 #@! TO.C,C217*
X97917000Y-110643500D03*
X97917000Y-112368500D03*
G04 #@! TD*
D16*
G04 #@! TO.C,C514*
X139065000Y-64985500D03*
X139065000Y-68110500D03*
G04 #@! TD*
D18*
G04 #@! TO.C,C506*
X172212000Y-68745500D03*
X172212000Y-65620500D03*
G04 #@! TD*
D15*
G04 #@! TO.C,C312*
X150114000Y-91466500D03*
X150114000Y-93191500D03*
G04 #@! TD*
D14*
G04 #@! TO.C,C304*
X152459500Y-108585000D03*
X151324500Y-108585000D03*
G04 #@! TD*
D15*
G04 #@! TO.C,C404*
X158496000Y-93879500D03*
X158496000Y-95604500D03*
G04 #@! TD*
G04 #@! TO.C,C407*
X171831000Y-93879500D03*
X171831000Y-95604500D03*
G04 #@! TD*
D19*
G04 #@! TO.C,C315*
X133477000Y-89683500D03*
X133477000Y-87608500D03*
G04 #@! TD*
D15*
G04 #@! TO.C,C311*
X151511000Y-97308500D03*
X151511000Y-99033500D03*
G04 #@! TD*
D10*
G04 #@! TO.C,C401*
X158496000Y-116178500D03*
X158496000Y-114453500D03*
G04 #@! TD*
D15*
G04 #@! TO.C,C403*
X160020000Y-93879500D03*
X160020000Y-95604500D03*
G04 #@! TD*
D17*
G04 #@! TO.C,J401*
X176272000Y-86995000D03*
X179582000Y-89535000D03*
X176272000Y-92075000D03*
X179582000Y-94615000D03*
X176272000Y-97155000D03*
X179582000Y-99695000D03*
X176272000Y-102235000D03*
X179582000Y-104775000D03*
G04 #@! TD*
D10*
G04 #@! TO.C,C405*
X173736000Y-116178500D03*
X173736000Y-114453500D03*
G04 #@! TD*
G04 #@! TO.C,C221*
X113284000Y-99922500D03*
X113284000Y-98197500D03*
G04 #@! TD*
D12*
G04 #@! TO.C,R211*
X100943500Y-102474000D03*
X99118500Y-102474000D03*
G04 #@! TD*
D19*
G04 #@! TO.C,C318*
X138430000Y-89683500D03*
X138430000Y-87608500D03*
G04 #@! TD*
D20*
G04 #@! TO.C,R212*
X99118500Y-107554000D03*
X100943500Y-107554000D03*
G04 #@! TD*
D15*
G04 #@! TO.C,C220*
X99695000Y-110643500D03*
X99695000Y-112368500D03*
G04 #@! TD*
D10*
G04 #@! TO.C,C406*
X172212000Y-116178500D03*
X172212000Y-114453500D03*
G04 #@! TD*
D21*
G04 #@! TO.C,C313*
X150087500Y-89281000D03*
X148362500Y-89281000D03*
G04 #@! TD*
G04 #@! TO.C,C225*
X109021500Y-105029000D03*
X107296500Y-105029000D03*
G04 #@! TD*
D10*
G04 #@! TO.C,C317*
X156337000Y-99033500D03*
X156337000Y-97308500D03*
G04 #@! TD*
D20*
G04 #@! TO.C,R214*
X109868500Y-107569000D03*
X111693500Y-107569000D03*
G04 #@! TD*
D15*
G04 #@! TO.C,C211*
X113284000Y-109754500D03*
X113284000Y-111479500D03*
G04 #@! TD*
D16*
G04 #@! TO.C,C516*
X133985000Y-64985500D03*
X133985000Y-68110500D03*
G04 #@! TD*
D22*
G04 #@! TO.C,C515*
X170053000Y-78337500D03*
X170053000Y-80412500D03*
G04 #@! TD*
D14*
G04 #@! TO.C,C303*
X156396500Y-100584000D03*
X155261500Y-100584000D03*
G04 #@! TD*
M02*
