G04 #@! TF.GenerationSoftware,KiCad,Pcbnew,8.0.4*
G04 #@! TF.CreationDate,2024-09-02T12:45:46+02:00*
G04 #@! TF.ProjectId,AD4030-Voltage,41443430-3330-42d5-966f-6c746167652e,rev?*
G04 #@! TF.SameCoordinates,Original*
G04 #@! TF.FileFunction,Paste,Top*
G04 #@! TF.FilePolarity,Positive*
%FSLAX46Y46*%
G04 Gerber Fmt 4.6, Leading zero omitted, Abs format (unit mm)*
G04 Created by KiCad (PCBNEW 8.0.4) date 2024-09-02 12:45:46*
%MOMM*%
%LPD*%
G01*
G04 APERTURE LIST*
G04 Aperture macros list*
%AMRoundRect*
0 Rectangle with rounded corners*
0 $1 Rounding radius*
0 $2 $3 $4 $5 $6 $7 $8 $9 X,Y pos of 4 corners*
0 Add a 4 corners polygon primitive as box body*
4,1,4,$2,$3,$4,$5,$6,$7,$8,$9,$2,$3,0*
0 Add four circle primitives for the rounded corners*
1,1,$1+$1,$2,$3*
1,1,$1+$1,$4,$5*
1,1,$1+$1,$6,$7*
1,1,$1+$1,$8,$9*
0 Add four rect primitives between the rounded corners*
20,1,$1+$1,$2,$3,$4,$5,0*
20,1,$1+$1,$4,$5,$6,$7,0*
20,1,$1+$1,$6,$7,$8,$9,0*
20,1,$1+$1,$8,$9,$2,$3,0*%
G04 Aperture macros list end*
%ADD10RoundRect,0.250000X-0.400000X-0.625000X0.400000X-0.625000X0.400000X0.625000X-0.400000X0.625000X0*%
%ADD11RoundRect,0.250000X-1.100000X0.412500X-1.100000X-0.412500X1.100000X-0.412500X1.100000X0.412500X0*%
%ADD12RoundRect,0.250000X-0.412500X-0.650000X0.412500X-0.650000X0.412500X0.650000X-0.412500X0.650000X0*%
%ADD13RoundRect,0.237500X0.300000X0.237500X-0.300000X0.237500X-0.300000X-0.237500X0.300000X-0.237500X0*%
%ADD14RoundRect,0.150000X0.150000X-0.587500X0.150000X0.587500X-0.150000X0.587500X-0.150000X-0.587500X0*%
%ADD15RoundRect,0.160000X0.197500X0.160000X-0.197500X0.160000X-0.197500X-0.160000X0.197500X-0.160000X0*%
%ADD16RoundRect,0.237500X0.250000X0.237500X-0.250000X0.237500X-0.250000X-0.237500X0.250000X-0.237500X0*%
%ADD17RoundRect,0.237500X-0.237500X0.250000X-0.237500X-0.250000X0.237500X-0.250000X0.237500X0.250000X0*%
%ADD18RoundRect,0.162500X-0.617500X-0.162500X0.617500X-0.162500X0.617500X0.162500X-0.617500X0.162500X0*%
%ADD19RoundRect,0.250000X-0.475000X0.337500X-0.475000X-0.337500X0.475000X-0.337500X0.475000X0.337500X0*%
%ADD20RoundRect,0.250000X-0.450000X0.325000X-0.450000X-0.325000X0.450000X-0.325000X0.450000X0.325000X0*%
%ADD21RoundRect,0.180000X-0.205000X0.180000X-0.205000X-0.180000X0.205000X-0.180000X0.205000X0.180000X0*%
%ADD22RoundRect,0.100000X-0.100000X0.612500X-0.100000X-0.612500X0.100000X-0.612500X0.100000X0.612500X0*%
%ADD23RoundRect,0.150000X-0.150000X0.587500X-0.150000X-0.587500X0.150000X-0.587500X0.150000X0.587500X0*%
%ADD24RoundRect,0.237500X-0.250000X-0.237500X0.250000X-0.237500X0.250000X0.237500X-0.250000X0.237500X0*%
%ADD25RoundRect,0.160000X-0.197500X-0.160000X0.197500X-0.160000X0.197500X0.160000X-0.197500X0.160000X0*%
%ADD26RoundRect,0.250000X-0.650000X0.412500X-0.650000X-0.412500X0.650000X-0.412500X0.650000X0.412500X0*%
%ADD27RoundRect,0.250000X0.475000X-0.337500X0.475000X0.337500X-0.475000X0.337500X-0.475000X-0.337500X0*%
%ADD28RoundRect,0.150000X0.512500X0.150000X-0.512500X0.150000X-0.512500X-0.150000X0.512500X-0.150000X0*%
%ADD29R,1.800000X1.000000*%
%ADD30R,1.900000X1.500000*%
%ADD31RoundRect,0.237500X-0.300000X-0.237500X0.300000X-0.237500X0.300000X0.237500X-0.300000X0.237500X0*%
%ADD32RoundRect,0.200000X-0.250000X0.200000X-0.250000X-0.200000X0.250000X-0.200000X0.250000X0.200000X0*%
%ADD33RoundRect,0.150000X-0.150000X0.512500X-0.150000X-0.512500X0.150000X-0.512500X0.150000X0.512500X0*%
%ADD34RoundRect,0.225000X0.225000X0.375000X-0.225000X0.375000X-0.225000X-0.375000X0.225000X-0.375000X0*%
%ADD35R,0.685000X0.670000*%
%ADD36R,0.700000X0.250000*%
%ADD37RoundRect,0.237500X0.237500X-0.300000X0.237500X0.300000X-0.237500X0.300000X-0.237500X-0.300000X0*%
%ADD38RoundRect,0.250000X-1.450000X0.400000X-1.450000X-0.400000X1.450000X-0.400000X1.450000X0.400000X0*%
%ADD39RoundRect,0.155000X-0.212500X-0.155000X0.212500X-0.155000X0.212500X0.155000X-0.212500X0.155000X0*%
%ADD40RoundRect,0.250000X-0.875000X-1.025000X0.875000X-1.025000X0.875000X1.025000X-0.875000X1.025000X0*%
%ADD41RoundRect,0.250000X-1.025000X0.875000X-1.025000X-0.875000X1.025000X-0.875000X1.025000X0.875000X0*%
%ADD42RoundRect,0.150000X0.875000X0.150000X-0.875000X0.150000X-0.875000X-0.150000X0.875000X-0.150000X0*%
%ADD43R,0.203200X0.812800*%
%ADD44R,2.108200X1.320800*%
%ADD45C,0.406400*%
%ADD46RoundRect,0.100000X-0.712500X-0.100000X0.712500X-0.100000X0.712500X0.100000X-0.712500X0.100000X0*%
%ADD47RoundRect,0.249999X-0.290001X-0.290001X0.290001X-0.290001X0.290001X0.290001X-0.290001X0.290001X0*%
%ADD48RoundRect,0.075000X-0.337500X-0.075000X0.337500X-0.075000X0.337500X0.075000X-0.337500X0.075000X0*%
%ADD49RoundRect,0.075000X-0.075000X-0.337500X0.075000X-0.337500X0.075000X0.337500X-0.075000X0.337500X0*%
%ADD50RoundRect,0.155000X0.155000X-0.212500X0.155000X0.212500X-0.155000X0.212500X-0.155000X-0.212500X0*%
%ADD51RoundRect,0.250001X-0.462499X-0.849999X0.462499X-0.849999X0.462499X0.849999X-0.462499X0.849999X0*%
%ADD52RoundRect,0.218750X0.256250X-0.218750X0.256250X0.218750X-0.256250X0.218750X-0.256250X-0.218750X0*%
%ADD53RoundRect,0.145000X-0.205000X0.145000X-0.205000X-0.145000X0.205000X-0.145000X0.205000X0.145000X0*%
%ADD54RoundRect,0.087500X-0.087500X0.200000X-0.087500X-0.200000X0.087500X-0.200000X0.087500X0.200000X0*%
%ADD55RoundRect,0.155000X0.212500X0.155000X-0.212500X0.155000X-0.212500X-0.155000X0.212500X-0.155000X0*%
%ADD56RoundRect,0.237500X-0.237500X0.300000X-0.237500X-0.300000X0.237500X-0.300000X0.237500X0.300000X0*%
%ADD57RoundRect,0.160000X-0.160000X-0.160000X0.160000X-0.160000X0.160000X0.160000X-0.160000X0.160000X0*%
%ADD58RoundRect,0.062500X-0.375000X-0.062500X0.375000X-0.062500X0.375000X0.062500X-0.375000X0.062500X0*%
%ADD59RoundRect,0.062500X-0.062500X-0.375000X0.062500X-0.375000X0.062500X0.375000X-0.062500X0.375000X0*%
%ADD60RoundRect,0.237500X0.237500X-0.250000X0.237500X0.250000X-0.237500X0.250000X-0.237500X-0.250000X0*%
%ADD61RoundRect,0.250001X0.462499X0.849999X-0.462499X0.849999X-0.462499X-0.849999X0.462499X-0.849999X0*%
%ADD62RoundRect,0.180000X0.205000X-0.180000X0.205000X0.180000X-0.205000X0.180000X-0.205000X-0.180000X0*%
%ADD63RoundRect,0.100000X0.100000X-0.612500X0.100000X0.612500X-0.100000X0.612500X-0.100000X-0.612500X0*%
%ADD64RoundRect,0.150000X-0.875000X-0.150000X0.875000X-0.150000X0.875000X0.150000X-0.875000X0.150000X0*%
%ADD65RoundRect,0.145000X0.205000X-0.145000X0.205000X0.145000X-0.205000X0.145000X-0.205000X-0.145000X0*%
%ADD66RoundRect,0.087500X0.087500X-0.200000X0.087500X0.200000X-0.087500X0.200000X-0.087500X-0.200000X0*%
%ADD67R,1.752600X4.495800*%
G04 APERTURE END LIST*
D10*
G04 #@! TO.C,R205*
X94843000Y-91567000D03*
X97943000Y-91567000D03*
G04 #@! TD*
D11*
G04 #@! TO.C,C507*
X162052000Y-76669500D03*
X162052000Y-79794500D03*
G04 #@! TD*
D12*
G04 #@! TO.C,C206*
X94830500Y-88265000D03*
X97955500Y-88265000D03*
G04 #@! TD*
G04 #@! TO.C,C203*
X89115500Y-88265000D03*
X92240500Y-88265000D03*
G04 #@! TD*
D13*
G04 #@! TO.C,C518*
X136244500Y-77564500D03*
X134519500Y-77564500D03*
G04 #@! TD*
D14*
G04 #@! TO.C,Q501*
X185867000Y-80947500D03*
X187767000Y-80947500D03*
X186817000Y-79072500D03*
G04 #@! TD*
D15*
G04 #@! TO.C,R412*
X180556500Y-117475000D03*
X179361500Y-117475000D03*
G04 #@! TD*
D16*
G04 #@! TO.C,R506*
X174648500Y-75946000D03*
X172823500Y-75946000D03*
G04 #@! TD*
D10*
G04 #@! TO.C,R206*
X94843000Y-118491000D03*
X97943000Y-118491000D03*
G04 #@! TD*
D17*
G04 #@! TO.C,R308*
X149098000Y-97258500D03*
X149098000Y-99083500D03*
G04 #@! TD*
D15*
G04 #@! TO.C,R407*
X180429500Y-99568000D03*
X179234500Y-99568000D03*
G04 #@! TD*
D18*
G04 #@! TO.C,U302*
X147367000Y-91506000D03*
X147367000Y-92456000D03*
X147367000Y-93406000D03*
X150067000Y-93406000D03*
X150067000Y-91506000D03*
G04 #@! TD*
D19*
G04 #@! TO.C,C314*
X130937000Y-90021500D03*
X130937000Y-92096500D03*
G04 #@! TD*
D20*
G04 #@! TO.C,FB301*
X130937000Y-86097000D03*
X130937000Y-88147000D03*
G04 #@! TD*
D21*
G04 #@! TO.C,RN206*
X133175000Y-107774000D03*
X132255000Y-107774000D03*
X133175000Y-108634000D03*
X132255000Y-108634000D03*
D22*
X133690000Y-106041500D03*
X133040000Y-106041500D03*
X132390000Y-106041500D03*
X131740000Y-106041500D03*
X131740000Y-110366500D03*
X132390000Y-110366500D03*
X133040000Y-110366500D03*
X133690000Y-110366500D03*
G04 #@! TD*
D21*
G04 #@! TO.C,RN201*
X104854000Y-104599000D03*
X103934000Y-104599000D03*
X104854000Y-105459000D03*
X103934000Y-105459000D03*
D22*
X105369000Y-102866500D03*
X104719000Y-102866500D03*
X104069000Y-102866500D03*
X103419000Y-102866500D03*
X103419000Y-107191500D03*
X104069000Y-107191500D03*
X104719000Y-107191500D03*
X105369000Y-107191500D03*
G04 #@! TD*
D20*
G04 #@! TO.C,FB502*
X150114000Y-71332500D03*
X150114000Y-73382500D03*
G04 #@! TD*
D23*
G04 #@! TO.C,Q201*
X125029000Y-115775500D03*
X123129000Y-115775500D03*
X124079000Y-117650500D03*
G04 #@! TD*
D24*
G04 #@! TO.C,R222*
X127230500Y-99568000D03*
X129055500Y-99568000D03*
G04 #@! TD*
D13*
G04 #@! TO.C,C214*
X137514500Y-112649000D03*
X135789500Y-112649000D03*
G04 #@! TD*
D16*
G04 #@! TO.C,R218*
X115974500Y-116840000D03*
X114149500Y-116840000D03*
G04 #@! TD*
D25*
G04 #@! TO.C,R403*
X179234500Y-93218000D03*
X180429500Y-93218000D03*
G04 #@! TD*
D15*
G04 #@! TO.C,R409*
X180429500Y-94488000D03*
X179234500Y-94488000D03*
G04 #@! TD*
D26*
G04 #@! TO.C,C510*
X177165000Y-78574500D03*
X177165000Y-81699500D03*
G04 #@! TD*
D25*
G04 #@! TO.C,R406*
X179361500Y-116205000D03*
X180556500Y-116205000D03*
G04 #@! TD*
D12*
G04 #@! TO.C,C213*
X106260500Y-121793000D03*
X109385500Y-121793000D03*
G04 #@! TD*
D27*
G04 #@! TO.C,C517*
X170053000Y-78380500D03*
X170053000Y-76305500D03*
G04 #@! TD*
D25*
G04 #@! TO.C,R402*
X179234500Y-95758000D03*
X180429500Y-95758000D03*
G04 #@! TD*
D17*
G04 #@! TO.C,R307*
X151511000Y-97258500D03*
X151511000Y-99083500D03*
G04 #@! TD*
D13*
G04 #@! TO.C,C231*
X115924500Y-114300000D03*
X114199500Y-114300000D03*
G04 #@! TD*
D17*
G04 #@! TO.C,R309*
X156337000Y-97258500D03*
X156337000Y-99083500D03*
G04 #@! TD*
D24*
G04 #@! TO.C,R504*
X170029500Y-83820000D03*
X171854500Y-83820000D03*
G04 #@! TD*
D14*
G04 #@! TO.C,D201*
X108397000Y-96060500D03*
X110297000Y-96060500D03*
X109347000Y-94185500D03*
G04 #@! TD*
D11*
G04 #@! TO.C,C503*
X165862000Y-76669500D03*
X165862000Y-79794500D03*
G04 #@! TD*
D10*
G04 #@! TO.C,R209*
X106273000Y-91567000D03*
X109373000Y-91567000D03*
G04 #@! TD*
D28*
G04 #@! TO.C,U207*
X144647500Y-114996000D03*
X144647500Y-114046000D03*
X144647500Y-113096000D03*
X142372500Y-113096000D03*
X142372500Y-114046000D03*
X142372500Y-114996000D03*
G04 #@! TD*
D29*
G04 #@! TO.C,C222*
X98806000Y-96852000D03*
X98806000Y-100252000D03*
G04 #@! TD*
D11*
G04 #@! TO.C,C521*
X131064000Y-73589000D03*
X131064000Y-76714000D03*
G04 #@! TD*
D12*
G04 #@! TO.C,C210*
X100545500Y-121793000D03*
X103670500Y-121793000D03*
G04 #@! TD*
D25*
G04 #@! TO.C,R404*
X179361500Y-121285000D03*
X180556500Y-121285000D03*
G04 #@! TD*
D30*
G04 #@! TO.C,L503*
X176294000Y-72644000D03*
X172194000Y-72644000D03*
G04 #@! TD*
D13*
G04 #@! TO.C,C230*
X115924500Y-95377000D03*
X114199500Y-95377000D03*
G04 #@! TD*
D31*
G04 #@! TO.C,C226*
X135789500Y-106553000D03*
X137514500Y-106553000D03*
G04 #@! TD*
D12*
G04 #@! TO.C,C202*
X83400500Y-121793000D03*
X86525500Y-121793000D03*
G04 #@! TD*
D31*
G04 #@! TO.C,C218*
X127280500Y-101981000D03*
X129005500Y-101981000D03*
G04 #@! TD*
D32*
G04 #@! TO.C,X301*
X150404000Y-87794000D03*
X148554000Y-87794000D03*
X148554000Y-89244000D03*
X150404000Y-89244000D03*
G04 #@! TD*
D10*
G04 #@! TO.C,R207*
X100558000Y-91567000D03*
X103658000Y-91567000D03*
G04 #@! TD*
D33*
G04 #@! TO.C,U205*
X129093000Y-103891500D03*
X128143000Y-103891500D03*
X127193000Y-103891500D03*
X127193000Y-106166500D03*
X128143000Y-106166500D03*
X129093000Y-106166500D03*
G04 #@! TD*
G04 #@! TO.C,U206*
X137602000Y-108463500D03*
X136652000Y-108463500D03*
X135702000Y-108463500D03*
X135702000Y-110738500D03*
X136652000Y-110738500D03*
X137602000Y-110738500D03*
G04 #@! TD*
D16*
G04 #@! TO.C,R501*
X182268500Y-83820000D03*
X180443500Y-83820000D03*
G04 #@! TD*
D26*
G04 #@! TO.C,C505*
X120523000Y-71462500D03*
X120523000Y-74587500D03*
G04 #@! TD*
D34*
G04 #@! TO.C,D502*
X183006000Y-76454000D03*
X179706000Y-76454000D03*
G04 #@! TD*
D21*
G04 #@! TO.C,RN203*
X124539000Y-101424000D03*
X123619000Y-101424000D03*
X124539000Y-102284000D03*
X123619000Y-102284000D03*
D22*
X125054000Y-99691500D03*
X124404000Y-99691500D03*
X123754000Y-99691500D03*
X123104000Y-99691500D03*
X123104000Y-104016500D03*
X123754000Y-104016500D03*
X124404000Y-104016500D03*
X125054000Y-104016500D03*
G04 #@! TD*
D15*
G04 #@! TO.C,R410*
X180556500Y-122555000D03*
X179361500Y-122555000D03*
G04 #@! TD*
D25*
G04 #@! TO.C,R303*
X142912500Y-110363000D03*
X144107500Y-110363000D03*
G04 #@! TD*
D10*
G04 #@! TO.C,R208*
X100558000Y-118491000D03*
X103658000Y-118491000D03*
G04 #@! TD*
D17*
G04 #@! TO.C,R503*
X170053000Y-80113500D03*
X170053000Y-81938500D03*
G04 #@! TD*
D35*
G04 #@! TO.C,U504*
X173311000Y-78645500D03*
X173311000Y-79470500D03*
X173311000Y-80295500D03*
X173311000Y-81120500D03*
X174161000Y-78645500D03*
X174161000Y-79470500D03*
X174161000Y-80295500D03*
X174161000Y-81120500D03*
D36*
X172286000Y-78633000D03*
X172286000Y-79133000D03*
X172286000Y-79633000D03*
X172286000Y-80133000D03*
X172286000Y-80633000D03*
X172286000Y-81133000D03*
X175186000Y-81133000D03*
X175186000Y-80633000D03*
X175186000Y-80133000D03*
X175186000Y-79633000D03*
X175186000Y-79133000D03*
X175186000Y-78633000D03*
G04 #@! TD*
D37*
G04 #@! TO.C,C233*
X139827000Y-114908500D03*
X139827000Y-113183500D03*
G04 #@! TD*
D12*
G04 #@! TO.C,C201*
X83400500Y-88265000D03*
X86525500Y-88265000D03*
G04 #@! TD*
D10*
G04 #@! TO.C,R202*
X83413000Y-118491000D03*
X86513000Y-118491000D03*
G04 #@! TD*
G04 #@! TO.C,R210*
X106273000Y-118491000D03*
X109373000Y-118491000D03*
G04 #@! TD*
D38*
G04 #@! TO.C,F501*
X186817000Y-72070000D03*
X186817000Y-76520000D03*
G04 #@! TD*
D39*
G04 #@! TO.C,C308*
X146752500Y-102743000D03*
X147887500Y-102743000D03*
G04 #@! TD*
D40*
G04 #@! TO.C,C508*
X120752000Y-63500000D03*
X127152000Y-63500000D03*
G04 #@! TD*
D41*
G04 #@! TO.C,C509*
X116713000Y-71222000D03*
X116713000Y-77622000D03*
G04 #@! TD*
D25*
G04 #@! TO.C,R306*
X146722500Y-104521000D03*
X147917500Y-104521000D03*
G04 #@! TD*
D42*
G04 #@! TO.C,U402*
X171147000Y-116205000D03*
X171147000Y-114935000D03*
X171147000Y-113665000D03*
X171147000Y-112395000D03*
X171147000Y-111125000D03*
X171147000Y-109855000D03*
X171147000Y-108585000D03*
X171147000Y-107315000D03*
X161847000Y-107315000D03*
X161847000Y-108585000D03*
X161847000Y-109855000D03*
X161847000Y-111125000D03*
X161847000Y-112395000D03*
X161847000Y-113665000D03*
X161847000Y-114935000D03*
X161847000Y-116205000D03*
G04 #@! TD*
D24*
G04 #@! TO.C,R217*
X114149500Y-92837000D03*
X115974500Y-92837000D03*
G04 #@! TD*
D25*
G04 #@! TO.C,R305*
X146722500Y-105537000D03*
X147917500Y-105537000D03*
G04 #@! TD*
D10*
G04 #@! TO.C,R203*
X89128000Y-91562000D03*
X92228000Y-91562000D03*
G04 #@! TD*
D23*
G04 #@! TO.C,Q502*
X182306000Y-79072500D03*
X180406000Y-79072500D03*
X181356000Y-80947500D03*
G04 #@! TD*
D43*
G04 #@! TO.C,U501*
X125087002Y-71571200D03*
X124637000Y-71571200D03*
X124187001Y-71571200D03*
X123736999Y-71571200D03*
X123287000Y-71571200D03*
X122837001Y-71571200D03*
X122836998Y-74466800D03*
X123287000Y-74466800D03*
X123736999Y-74466800D03*
X124187001Y-74466800D03*
X124637000Y-74466800D03*
X125086999Y-74466800D03*
D44*
X123962000Y-73019000D03*
G04 #@! TD*
D45*
G04 #@! TO.C,U303*
X151575000Y-102229000D03*
X152375000Y-102229000D03*
X153175000Y-102229000D03*
X153975000Y-102229000D03*
X154775000Y-102229000D03*
X155575000Y-102229000D03*
X156375000Y-102229000D03*
X157175000Y-102229000D03*
X151575000Y-103029000D03*
X152375000Y-103029000D03*
X153175000Y-103029000D03*
X153975000Y-103029000D03*
X154775000Y-103029000D03*
X155575000Y-103029000D03*
X156375000Y-103029000D03*
X157175000Y-103029000D03*
X151575000Y-103829000D03*
X152375000Y-103829000D03*
X153175000Y-103829000D03*
X153975000Y-103829000D03*
X154775000Y-103829000D03*
X155575000Y-103829000D03*
X156375000Y-103829000D03*
X157175000Y-103829000D03*
X151575000Y-104629000D03*
X152375000Y-104629000D03*
X153175000Y-104629000D03*
X153975000Y-104629000D03*
X154775000Y-104629000D03*
X155575000Y-104629000D03*
X156375000Y-104629000D03*
X157175000Y-104629000D03*
X151575000Y-105429000D03*
X152375000Y-105429000D03*
X153175000Y-105429000D03*
X153975000Y-105429000D03*
X154775000Y-105429000D03*
X155575000Y-105429000D03*
X156375000Y-105429000D03*
X157175000Y-105429000D03*
X151575000Y-106229000D03*
X152375000Y-106229000D03*
X153175000Y-106229000D03*
X153975000Y-106229000D03*
X154775000Y-106229000D03*
X155575000Y-106229000D03*
X156375000Y-106229000D03*
X157175000Y-106229000D03*
X151575000Y-107029000D03*
X152375000Y-107029000D03*
X153175000Y-107029000D03*
X153975000Y-107029000D03*
X154775000Y-107029000D03*
X155575000Y-107029000D03*
X156375000Y-107029000D03*
X157175000Y-107029000D03*
X151575000Y-107829000D03*
X152375000Y-107829000D03*
X153175000Y-107829000D03*
X153975000Y-107829000D03*
X154775000Y-107829000D03*
X155575000Y-107829000D03*
X156375000Y-107829000D03*
X157175000Y-107829000D03*
G04 #@! TD*
D12*
G04 #@! TO.C,C204*
X89115500Y-121793000D03*
X92240500Y-121793000D03*
G04 #@! TD*
D28*
G04 #@! TO.C,U204*
X129280500Y-114996000D03*
X129280500Y-114046000D03*
X129280500Y-113096000D03*
X127005500Y-113096000D03*
X127005500Y-114046000D03*
X127005500Y-114996000D03*
G04 #@! TD*
D15*
G04 #@! TO.C,R408*
X180429500Y-97028000D03*
X179234500Y-97028000D03*
G04 #@! TD*
D29*
G04 #@! TO.C,C223*
X98806000Y-113206000D03*
X98806000Y-109806000D03*
G04 #@! TD*
D46*
G04 #@! TO.C,U304*
X133777500Y-87925000D03*
X133777500Y-88575000D03*
X133777500Y-89225000D03*
X133777500Y-89875000D03*
X138002500Y-89875000D03*
X138002500Y-89225000D03*
X138002500Y-88575000D03*
X138002500Y-87925000D03*
G04 #@! TD*
D23*
G04 #@! TO.C,D202*
X110297000Y-113997500D03*
X108397000Y-113997500D03*
X109347000Y-115872500D03*
G04 #@! TD*
D12*
G04 #@! TO.C,C209*
X100545500Y-88265000D03*
X103670500Y-88265000D03*
G04 #@! TD*
D15*
G04 #@! TO.C,R411*
X180556500Y-120015000D03*
X179361500Y-120015000D03*
G04 #@! TD*
D35*
G04 #@! TO.C,U506*
X146387000Y-73025000D03*
X146387000Y-73850000D03*
X146387000Y-74675000D03*
X146387000Y-75500000D03*
X147237000Y-73025000D03*
X147237000Y-73850000D03*
X147237000Y-74675000D03*
X147237000Y-75500000D03*
D36*
X145362000Y-73012500D03*
X145362000Y-73512500D03*
X145362000Y-74012500D03*
X145362000Y-74512500D03*
X145362000Y-75012500D03*
X145362000Y-75512500D03*
X148262000Y-75512500D03*
X148262000Y-75012500D03*
X148262000Y-74512500D03*
X148262000Y-74012500D03*
X148262000Y-73512500D03*
X148262000Y-73012500D03*
G04 #@! TD*
D47*
G04 #@! TO.C,U201*
X137043000Y-101610000D03*
X137043000Y-102860000D03*
X138293000Y-101610000D03*
X138293000Y-102860000D03*
D48*
X135730500Y-101260000D03*
X135730500Y-101910000D03*
X135730500Y-102560000D03*
X135730500Y-103210000D03*
D49*
X136693000Y-104172500D03*
X137343000Y-104172500D03*
X137993000Y-104172500D03*
X138643000Y-104172500D03*
D48*
X139605500Y-103210000D03*
X139605500Y-102560000D03*
X139605500Y-101910000D03*
X139605500Y-101260000D03*
D49*
X138643000Y-100297500D03*
X137993000Y-100297500D03*
X137343000Y-100297500D03*
X136693000Y-100297500D03*
G04 #@! TD*
D17*
G04 #@! TO.C,R302*
X146685000Y-87606500D03*
X146685000Y-89431500D03*
G04 #@! TD*
D21*
G04 #@! TO.C,RN204*
X124539000Y-107823000D03*
X123619000Y-107823000D03*
X124539000Y-108683000D03*
X123619000Y-108683000D03*
D22*
X125054000Y-106090500D03*
X124404000Y-106090500D03*
X123754000Y-106090500D03*
X123104000Y-106090500D03*
X123104000Y-110415500D03*
X123754000Y-110415500D03*
X124404000Y-110415500D03*
X125054000Y-110415500D03*
G04 #@! TD*
D21*
G04 #@! TO.C,RN205*
X133175000Y-101424000D03*
X132255000Y-101424000D03*
X133175000Y-102284000D03*
X132255000Y-102284000D03*
D22*
X133690000Y-99691500D03*
X133040000Y-99691500D03*
X132390000Y-99691500D03*
X131740000Y-99691500D03*
X131740000Y-104016500D03*
X132390000Y-104016500D03*
X133040000Y-104016500D03*
X133690000Y-104016500D03*
G04 #@! TD*
D14*
G04 #@! TO.C,D501*
X185867000Y-85138500D03*
X187767000Y-85138500D03*
X186817000Y-83263500D03*
G04 #@! TD*
D50*
G04 #@! TO.C,C310*
X149098000Y-105596500D03*
X149098000Y-104461500D03*
G04 #@! TD*
D17*
G04 #@! TO.C,R215*
X102235000Y-97766500D03*
X102235000Y-99591500D03*
G04 #@! TD*
D51*
G04 #@! TO.C,L502*
X125075500Y-77724000D03*
X127400500Y-77724000D03*
G04 #@! TD*
D24*
G04 #@! TO.C,R221*
X123166500Y-113030000D03*
X124991500Y-113030000D03*
G04 #@! TD*
D52*
G04 #@! TO.C,D503*
X128397000Y-72034500D03*
X128397000Y-70459500D03*
G04 #@! TD*
D17*
G04 #@! TO.C,R505*
X128397000Y-73636500D03*
X128397000Y-75461500D03*
G04 #@! TD*
D13*
G04 #@! TO.C,C519*
X147674500Y-77564500D03*
X145949500Y-77564500D03*
G04 #@! TD*
D53*
G04 #@! TO.C,U202*
X115497000Y-98695000D03*
X114627000Y-98695000D03*
X115497000Y-99425000D03*
X114627000Y-99425000D03*
D54*
X115812000Y-97772500D03*
X115312000Y-97772500D03*
X114812000Y-97772500D03*
X114312000Y-97772500D03*
X114312000Y-100347500D03*
X114812000Y-100347500D03*
X115312000Y-100347500D03*
X115812000Y-100347500D03*
G04 #@! TD*
D37*
G04 #@! TO.C,C227*
X117983000Y-104113500D03*
X117983000Y-102388500D03*
G04 #@! TD*
D55*
G04 #@! TO.C,C307*
X147887500Y-107442000D03*
X146752500Y-107442000D03*
G04 #@! TD*
D56*
G04 #@! TO.C,C228*
X120523000Y-102388500D03*
X120523000Y-104113500D03*
G04 #@! TD*
D25*
G04 #@! TO.C,R401*
X179234500Y-98298000D03*
X180429500Y-98298000D03*
G04 #@! TD*
D57*
G04 #@! TO.C,U301*
X143110000Y-104629000D03*
X143110000Y-105429000D03*
X143910000Y-104629000D03*
X143910000Y-105429000D03*
D58*
X142072500Y-104279000D03*
X142072500Y-104779000D03*
X142072500Y-105279000D03*
X142072500Y-105779000D03*
D59*
X142760000Y-106466500D03*
X143260000Y-106466500D03*
X143760000Y-106466500D03*
X144260000Y-106466500D03*
D58*
X144947500Y-105779000D03*
X144947500Y-105279000D03*
X144947500Y-104779000D03*
X144947500Y-104279000D03*
D59*
X144260000Y-103591500D03*
X143760000Y-103591500D03*
X143260000Y-103591500D03*
X142760000Y-103591500D03*
G04 #@! TD*
D17*
G04 #@! TO.C,R219*
X117983000Y-105894500D03*
X117983000Y-107719500D03*
G04 #@! TD*
D37*
G04 #@! TO.C,C235*
X147320000Y-114908500D03*
X147320000Y-113183500D03*
G04 #@! TD*
D12*
G04 #@! TO.C,C207*
X94830500Y-121793000D03*
X97955500Y-121793000D03*
G04 #@! TD*
D19*
G04 #@! TO.C,C512*
X150114000Y-75130000D03*
X150114000Y-77205000D03*
G04 #@! TD*
D17*
G04 #@! TO.C,R216*
X102235000Y-110593500D03*
X102235000Y-112418500D03*
G04 #@! TD*
D31*
G04 #@! TO.C,C301*
X142647500Y-108204000D03*
X144372500Y-108204000D03*
G04 #@! TD*
D12*
G04 #@! TO.C,C212*
X106260500Y-88265000D03*
X109385500Y-88265000D03*
G04 #@! TD*
D13*
G04 #@! TO.C,C205*
X129005500Y-108077000D03*
X127280500Y-108077000D03*
G04 #@! TD*
G04 #@! TO.C,C513*
X175487500Y-83820000D03*
X173762500Y-83820000D03*
G04 #@! TD*
D60*
G04 #@! TO.C,C316*
X154813000Y-99083500D03*
X154813000Y-97258500D03*
G04 #@! TD*
D35*
G04 #@! TO.C,U505*
X134957000Y-73025000D03*
X134957000Y-73850000D03*
X134957000Y-74675000D03*
X134957000Y-75500000D03*
X135807000Y-73025000D03*
X135807000Y-73850000D03*
X135807000Y-74675000D03*
X135807000Y-75500000D03*
D36*
X133932000Y-73012500D03*
X133932000Y-73512500D03*
X133932000Y-74012500D03*
X133932000Y-74512500D03*
X133932000Y-75012500D03*
X133932000Y-75512500D03*
X136832000Y-75512500D03*
X136832000Y-75012500D03*
X136832000Y-74512500D03*
X136832000Y-74012500D03*
X136832000Y-73512500D03*
X136832000Y-73012500D03*
G04 #@! TD*
D10*
G04 #@! TO.C,R204*
X89128000Y-118491000D03*
X92228000Y-118491000D03*
G04 #@! TD*
D24*
G04 #@! TO.C,R301*
X148566500Y-86106000D03*
X150391500Y-86106000D03*
G04 #@! TD*
D61*
G04 #@! TO.C,L505*
X122828500Y-77724000D03*
X120503500Y-77724000D03*
G04 #@! TD*
D27*
G04 #@! TO.C,C319*
X146177000Y-99970500D03*
X146177000Y-97895500D03*
G04 #@! TD*
D62*
G04 #@! TO.C,RN202*
X114557000Y-105459000D03*
X115477000Y-105459000D03*
X114557000Y-104599000D03*
X115477000Y-104599000D03*
D63*
X114042000Y-107191500D03*
X114692000Y-107191500D03*
X115342000Y-107191500D03*
X115992000Y-107191500D03*
X115992000Y-102866500D03*
X115342000Y-102866500D03*
X114692000Y-102866500D03*
X114042000Y-102866500D03*
G04 #@! TD*
D31*
G04 #@! TO.C,C232*
X127280500Y-116840000D03*
X129005500Y-116840000D03*
G04 #@! TD*
D64*
G04 #@! TO.C,U401*
X161847000Y-93853000D03*
X161847000Y-95123000D03*
X161847000Y-96393000D03*
X161847000Y-97663000D03*
X161847000Y-98933000D03*
X161847000Y-100203000D03*
X161847000Y-101473000D03*
X161847000Y-102743000D03*
X171147000Y-102743000D03*
X171147000Y-101473000D03*
X171147000Y-100203000D03*
X171147000Y-98933000D03*
X171147000Y-97663000D03*
X171147000Y-96393000D03*
X171147000Y-95123000D03*
X171147000Y-93853000D03*
G04 #@! TD*
D11*
G04 #@! TO.C,C520*
X142494000Y-73589000D03*
X142494000Y-76714000D03*
G04 #@! TD*
D61*
G04 #@! TO.C,L506*
X122701500Y-68326000D03*
X120376500Y-68326000D03*
G04 #@! TD*
D37*
G04 #@! TO.C,C234*
X131318000Y-114908500D03*
X131318000Y-113183500D03*
G04 #@! TD*
D19*
G04 #@! TO.C,C511*
X138684000Y-75162500D03*
X138684000Y-77237500D03*
G04 #@! TD*
D60*
G04 #@! TO.C,R502*
X182626000Y-73810500D03*
X182626000Y-71985500D03*
G04 #@! TD*
D10*
G04 #@! TO.C,R201*
X83413000Y-91567000D03*
X86513000Y-91567000D03*
G04 #@! TD*
D17*
G04 #@! TO.C,R223*
X139573000Y-105767500D03*
X139573000Y-107592500D03*
G04 #@! TD*
G04 #@! TO.C,R220*
X120523000Y-105894500D03*
X120523000Y-107719500D03*
G04 #@! TD*
D23*
G04 #@! TO.C,RN301*
X143952000Y-97995500D03*
X142052000Y-97995500D03*
X143002000Y-99870500D03*
G04 #@! TD*
D65*
G04 #@! TO.C,U203*
X114627000Y-110982000D03*
X115497000Y-110982000D03*
X114627000Y-110252000D03*
X115497000Y-110252000D03*
D66*
X114312000Y-111904500D03*
X114812000Y-111904500D03*
X115312000Y-111904500D03*
X115812000Y-111904500D03*
X115812000Y-109329500D03*
X115312000Y-109329500D03*
X114812000Y-109329500D03*
X114312000Y-109329500D03*
G04 #@! TD*
D25*
G04 #@! TO.C,R405*
X179361500Y-118745000D03*
X180556500Y-118745000D03*
G04 #@! TD*
D61*
G04 #@! TO.C,L501*
X127400500Y-68326000D03*
X125075500Y-68326000D03*
G04 #@! TD*
D67*
G04 #@! TO.C,L504*
X165582001Y-72898000D03*
X162331999Y-72898000D03*
G04 #@! TD*
D20*
G04 #@! TO.C,FB501*
X138684000Y-71365000D03*
X138684000Y-73415000D03*
G04 #@! TD*
M02*
